<mxfile host="app.diagrams.net" modified="2020-10-25T12:11:48.767Z" agent="5.0 (Windows NT 10.0; Win64; x64) AppleWebKit/537.36 (KHTML, like Gecko) Chrome/86.0.4240.75 Safari/537.36" etag="vJy9R7HVPlsKH5MupwWL" version="13.8.1" type="github">
  <diagram id="UA9EWfgLgmXE08hX8-aA" name="Page-1">
    <mxGraphModel dx="1882" dy="1563" grid="1" gridSize="10" guides="1" tooltips="1" connect="1" arrows="1" fold="1" page="0" pageScale="1" pageWidth="850" pageHeight="1100" math="0" shadow="0">
      <root>
        <mxCell id="0" />
        <mxCell id="1" parent="0" />
        <mxCell id="l0EMNmxLnOdooNni136J-392" value="" style="endArrow=classic;html=1;entryX=0.5;entryY=0;entryDx=0;entryDy=0;exitX=0.5;exitY=1;exitDx=0;exitDy=0;" edge="1" parent="1" source="l0EMNmxLnOdooNni136J-194">
          <mxGeometry width="50" height="50" relative="1" as="geometry">
            <mxPoint x="975" y="-279" as="sourcePoint" />
            <mxPoint x="974.8349999999998" y="-227.63000000000002" as="targetPoint" />
          </mxGeometry>
        </mxCell>
        <mxCell id="l0EMNmxLnOdooNni136J-391" value="" style="endArrow=classic;html=1;entryX=0.5;entryY=0;entryDx=0;entryDy=0;exitX=0.5;exitY=1;exitDx=0;exitDy=0;" edge="1" parent="1" source="l0EMNmxLnOdooNni136J-389" target="l0EMNmxLnOdooNni136J-390">
          <mxGeometry width="50" height="50" relative="1" as="geometry">
            <mxPoint x="970" y="-179.07" as="sourcePoint" />
            <mxPoint x="1020" y="-229.07" as="targetPoint" />
          </mxGeometry>
        </mxCell>
        <mxCell id="l0EMNmxLnOdooNni136J-386" value="Private subnet" style="points=[[0,0],[0.25,0],[0.5,0],[0.75,0],[1,0],[1,0.25],[1,0.5],[1,0.75],[1,1],[0.75,1],[0.5,1],[0.25,1],[0,1],[0,0.75],[0,0.5],[0,0.25]];outlineConnect=0;gradientColor=none;html=1;whiteSpace=wrap;fontSize=12;fontStyle=0;shape=mxgraph.aws4.group;grIcon=mxgraph.aws4.group_security_group;grStroke=0;strokeColor=#147EBA;fillColor=#E6F2F8;verticalAlign=top;align=left;spacingLeft=30;fontColor=#147EBA;dashed=0;" vertex="1" parent="1">
          <mxGeometry x="580" y="-392" width="220" height="228.85" as="geometry" />
        </mxCell>
        <mxCell id="l0EMNmxLnOdooNni136J-385" value="Private subnet" style="points=[[0,0],[0.25,0],[0.5,0],[0.75,0],[1,0],[1,0.25],[1,0.5],[1,0.75],[1,1],[0.75,1],[0.5,1],[0.25,1],[0,1],[0,0.75],[0,0.5],[0,0.25]];outlineConnect=0;gradientColor=none;html=1;whiteSpace=wrap;fontSize=12;fontStyle=0;shape=mxgraph.aws4.group;grIcon=mxgraph.aws4.group_security_group;grStroke=0;strokeColor=#147EBA;fillColor=#E6F2F8;verticalAlign=top;align=left;spacingLeft=30;fontColor=#147EBA;dashed=0;" vertex="1" parent="1">
          <mxGeometry x="150" y="-391" width="350" height="241" as="geometry" />
        </mxCell>
        <mxCell id="l0EMNmxLnOdooNni136J-384" value="Public subnet" style="points=[[0,0],[0.25,0],[0.5,0],[0.75,0],[1,0],[1,0.25],[1,0.5],[1,0.75],[1,1],[0.75,1],[0.5,1],[0.25,1],[0,1],[0,0.75],[0,0.5],[0,0.25]];outlineConnect=0;gradientColor=none;html=1;whiteSpace=wrap;fontSize=12;fontStyle=0;shape=mxgraph.aws4.group;grIcon=mxgraph.aws4.group_security_group;grStroke=0;strokeColor=#248814;fillColor=#E9F3E6;verticalAlign=top;align=left;spacingLeft=30;fontColor=#248814;dashed=0;" vertex="1" parent="1">
          <mxGeometry x="40" y="-390" width="80" height="240" as="geometry" />
        </mxCell>
        <mxCell id="l0EMNmxLnOdooNni136J-354" value="" style="endArrow=classic;html=1;exitX=0.603;exitY=0.996;exitDx=0;exitDy=0;exitPerimeter=0;" edge="1" parent="1">
          <mxGeometry width="50" height="50" relative="1" as="geometry">
            <mxPoint x="973.29389" y="-369.60452000000004" as="sourcePoint" />
            <mxPoint x="974" y="-330" as="targetPoint" />
          </mxGeometry>
        </mxCell>
        <mxCell id="l0EMNmxLnOdooNni136J-350" value="" style="endArrow=classic;html=1;" edge="1" parent="1">
          <mxGeometry width="50" height="50" relative="1" as="geometry">
            <mxPoint x="881" y="-140" as="sourcePoint" />
            <mxPoint x="881" y="-370" as="targetPoint" />
          </mxGeometry>
        </mxCell>
        <mxCell id="toNbNgcDX6MXMbGnY5Hs-2" value="users" style="outlineConnect=0;fontColor=#232F3E;gradientColor=none;fillColor=#232F3E;strokeColor=none;dashed=0;verticalLabelPosition=bottom;verticalAlign=top;align=center;html=1;fontSize=12;fontStyle=0;aspect=fixed;pointerEvents=1;shape=mxgraph.aws4.users;" parent="1" vertex="1">
          <mxGeometry x="-250" y="-489.25" width="50" height="50" as="geometry" />
        </mxCell>
        <mxCell id="toNbNgcDX6MXMbGnY5Hs-3" value="Internet&lt;br&gt;" style="aspect=fixed;perimeter=ellipsePerimeter;html=1;align=center;shadow=0;dashed=0;spacingTop=3;image;image=img/lib/active_directory/internet_cloud.svg;" parent="1" vertex="1">
          <mxGeometry x="-190" y="-480" width="50" height="31.5" as="geometry" />
        </mxCell>
        <mxCell id="toNbNgcDX6MXMbGnY5Hs-7" value="" style="endArrow=none;dashed=1;html=1;dashPattern=1 3;strokeWidth=2;exitX=0;exitY=0.5;exitDx=0;exitDy=0;" parent="1" edge="1" target="toNbNgcDX6MXMbGnY5Hs-2" source="toNbNgcDX6MXMbGnY5Hs-3">
          <mxGeometry width="50" height="50" relative="1" as="geometry">
            <mxPoint x="-165.42" y="-490" as="sourcePoint" />
            <mxPoint x="-165" y="-520" as="targetPoint" />
          </mxGeometry>
        </mxCell>
        <mxCell id="toNbNgcDX6MXMbGnY5Hs-8" value="" style="outlineConnect=0;dashed=0;verticalLabelPosition=bottom;verticalAlign=top;align=center;html=1;shape=mxgraph.aws3.route_53;fillColor=#F58536;gradientColor=none;" parent="1" vertex="1">
          <mxGeometry x="-120" y="-290" width="60" height="45" as="geometry" />
        </mxCell>
        <mxCell id="toNbNgcDX6MXMbGnY5Hs-11" value="" style="endArrow=none;dashed=1;html=1;dashPattern=1 3;strokeWidth=2;entryX=0.08;entryY=1.033;entryDx=0;entryDy=0;entryPerimeter=0;" parent="1" edge="1">
          <mxGeometry width="50" height="50" relative="1" as="geometry">
            <mxPoint x="-160" y="-420" as="sourcePoint" />
            <mxPoint x="-115.20000000000005" y="-269.3399999999999" as="targetPoint" />
            <Array as="points">
              <mxPoint x="-160" y="-269" />
            </Array>
          </mxGeometry>
        </mxCell>
        <mxCell id="toNbNgcDX6MXMbGnY5Hs-19" value="VPC" style="points=[[0,0],[0.25,0],[0.5,0],[0.75,0],[1,0],[1,0.25],[1,0.5],[1,0.75],[1,1],[0.75,1],[0.5,1],[0.25,1],[0,1],[0,0.75],[0,0.5],[0,0.25]];outlineConnect=0;gradientColor=none;html=1;whiteSpace=wrap;fontSize=12;fontStyle=0;shape=mxgraph.aws4.group;grIcon=mxgraph.aws4.group_vpc;strokeColor=#248814;fillColor=none;verticalAlign=top;align=left;spacingLeft=30;fontColor=#AAB7B8;dashed=0;" parent="1" vertex="1">
          <mxGeometry y="-440" width="1020" height="520" as="geometry" />
        </mxCell>
        <mxCell id="toNbNgcDX6MXMbGnY5Hs-20" value="ALB" style="shape=image;verticalLabelPosition=bottom;labelBackgroundColor=#ffffff;verticalAlign=top;aspect=fixed;imageAspect=0;image=data:image/png,iVBORw0KGgoAAAANSUhEUgAAADIAAAAxCAYAAACYq/ofAAAIwUlEQVRoBd1aCXcT1xXWD6ttSV4I2aAhTUMObdq0hRQv8iKMbVxqBwIB9xCgEELIgYYCpQRo7NLSUhJoibUgy7Jl4UXeJXk3XiVrsa2v595h5BlrtIxsaJp3zjsz8969993vrffeNxpsUpryheB4OIOmzzw4Y3yCg2+3okRvRmGWlTO9U9lZYycaz3uYdmoktEmtA5qNSPK4/fjqnAf177TBkNOG6nwvqvI9qNB1Ye8PzCjfYsH+1x9zpncu03UxDdEatG2oe8eBr8554enxb0SVzIA8sc7irLEbJTkO1BSMoFTbgbqdDlw51o9HjeNwt81jwhvE4lwEoaUVzvROZb3t8/i2aRxXjw9wBxAvyaCOOFPRjU7rXEaAVI3ISH8A52t6Ua7rFHp/Wyu+PD2IAdciVlejqhUgHuK9+ftBVG9rRXW+h2V/Wu2Gr0/dCKUN5F/XRlCqb+Heq97mwP0/jSGwsKJa+UQMgYVlfH19DDXbhVE26Fpw79pIIvK48pRAAgsRnK/pwf68QZ5CNz4exMJMJE7QZhUszkZw4+QQSrVObpPa9i+kbi8pkKfjQRx9T5jD1FMdppnN0jelHJd5Bgd+2IaaAh+O/rwD02PBpDwJgRBj3c52VBf40LDbhanRJUVB/rlljPQF4e31Z5SJlzYCpfR0PISGPS7Woe7tdkyPJgajCMQ/v4xDuwQQJ0s6EQwsK7WDSDiKw++2waBt56lAO5C67ESpth2HfuJAJLSq2EZoaRmnSztRk+9jnajjlFIckGgUOF3m4kV9fLcLwSVlRhJGgEtyzSjMtuLIe204+st2VZl46MCkwzKRgtQObeENezoYzKlSF6CwQcYBafp8EFV5w6h9w4G56bAS+FgZ7TSGPDNnakxtCgdXYvzUKcnS/NMwanc4UJU/jKYLQ3GkMiBDXYswaFv5xHU7Uh9MUiCBRfVAlvzpAyHN3W1zMGgdnAc7F2RgZECO7RbMjFtnB2REiT6kQFL1qJKMTPhvfzLAh/FHv3KAloGYYkDs30xjX24fDuyw85wUCZI9M1FEKi8TfpqOtW/aUZnbh5avp2LiGAghO/yzVuzPG8KjpvFYZaqXTBSRysyUv/nOOB+WpHP0mWnEQLrtcyjXdaH6DRuWI5Lxkraq8E6KlOSaYMg3y4ZZgTRhEfGSDDVTc2U5igM7WlCh70K3bZZlM5AvDrt5u71z0ZOwQaUK/3wEpaSI3oLmv07wUNNwp5tNdyaYl8AkOhSV2qWyv13yss6XDvUwiWYlEoXxFStKtK0YGwwk4lMsX1pcQbHejH25vbwtki8iy3nDKNN2cKYtXVbHtMPMW5Rjgtpdb2wogOIcO4wvW3kWabxuPztCH/zUrqhsskJaW//5yxiufeTB5SN9uHykV5Yv1vegMMeEwuxmXKx3y+pEWuL99+2xjKbm4XdbUaHvZqdMQ04OOTZ//ji9LTcZMKU6mnqUn0e6cWqAdX/UOAbNtYY+VOUNwXJ38nm0xSCeFxDrPyd5p71yrA+ahvedKNO60N8hPynTRdVlm8WDG5O4f30kLt+97EWR1oRinRl//8IbV088xNvdktqKUNJnwLXARurxPU5oKl97jMJsEya8yma6kgCxLBhY4QBDZV4/+w00ReXZx64rucbkV8jriNYH4i0rsCDoV2/iTI0EsTfbhH2vWqGhFxp6MsrUJtr7ibdEZ2G/u+mzYajJ5KsX6ywsYzGBeZ5MJ/ImSwvM2JvVDA2Z0eUvWRBIYX0qCZQeiEr16ZRlciCKcqn9iq0WdgU2NCIkkEZkI4t5I/yyEVG7RlruT6Hx01Hc/mSIt2xazJSvn+hH47lR2O6vGXJiz61/ijJoy5fyk8x0ZZBMcY0QBlW7Fi1IQ56FF2h1vg+Uy3VPOFPkkBYueXvkZyRKchleCb8gLx0ZomzZrqXmHIktbr0F966O4OGt0Vi+d9XHC1ewmxJ7e5shQwQiO0fUnOypFnc6C3czZIhAZCe7WltLXJxRqXv2TPJandiU8nONLt5lWKtT5pWWrtlai0jL+iXz5Y8fDuPzg90xI/BS3SAe3BzlmC9NsT/UD8bqLhzsYfoHX47GjEGiJRkX1sl4eGsMqytR0NRcL+PKh8Mc8JYqL77HWb9UkcwfoUaqt9tQmduPyryBZ/ErJ4y5bnaopkdDfDLTN4U5xVAnmfa0I4VDqxyzKtaZ2GQXQq8CHfGUbbGAguN0qBn1azKoLXJnyUyPhONjXuQ7kaUQ80cISDIPkbyx37xlR1HWY1DvOR5Ow/KPSd6dyrda+KqA/Rm9Bea7k7J6WjPh4CpnmjLkgK2nMb5qhbfHj2K9CZWv2dgpozbItC/MsqBquw3kp0uTzEN8Zqel9NmJqfZHLXx6zkuC16Rk2RYzJn1BPl3pW5rEhS8CEV3i9TQVL1tA65T8FmpHTHTY7c0yKwJJ6LMTc6IoihTIzKRwVUZl1MNk2hAQGn76Fv19sZ6CdyIQeleiodEUgDSj9q01525uKqwIJGkURewFMa5180y/WAQG8qYdxdl2HH/fiZMGF04UdaAox4qyl4SpVbHViqJsC04UuWT1FE4NLa1yJiBKNMZXHmO4W5haJXorTpYIMsi9KM62ofJ1myw8Jca1SFfpxslTS9RaKdIYXQV+92snR1koamHU97B7SSd6/a5WDhp8sKuVT2hyO6X1B39s51GizvjtTmUakjE7GUbNDhvLIH5RRoWuE0d/0c67GumYdqSRiJViv3Sx0+/0o699AX3t85wHnAFWgHhmJsLodwYS1gs0IUWamXFhutLuJ8gQ5FNb1Ob8U+HKQVXslxqk4ZJF4xNcKRDti0oZReNJObKH0rkfeRFA6H7klOGJ+vsRUbl0b6xE+ufx3PCNlajU9+IOUQTzv7vV7di8W10RDD3X37PTnfj/1T27FMz34s8HKaBk/6J82zSR5F+Upe/GvyhSMPTucQdU/h1kYguBovLfib+D1gOib+n/Wmf3db7w/7X+C7HjQDg+9y9XAAAAAElFTkSuQmCC;" parent="1" vertex="1">
          <mxGeometry x="60" y="-290" width="50" height="49" as="geometry" />
        </mxCell>
        <mxCell id="toNbNgcDX6MXMbGnY5Hs-22" value="" style="outlineConnect=0;fontColor=#232F3E;gradientColor=#945DF2;gradientDirection=north;fillColor=#5A30B5;strokeColor=#ffffff;dashed=0;verticalLabelPosition=bottom;verticalAlign=top;align=center;html=1;fontSize=12;fontStyle=0;aspect=fixed;shape=mxgraph.aws4.resourceIcon;resIcon=mxgraph.aws4.cloudfront;" parent="1" vertex="1">
          <mxGeometry x="-120" y="-420" width="50" height="50" as="geometry" />
        </mxCell>
        <mxCell id="toNbNgcDX6MXMbGnY5Hs-29" value="" style="outlineConnect=0;fontColor=#232F3E;gradientColor=#F54749;gradientDirection=north;fillColor=#C7131F;strokeColor=#ffffff;dashed=0;verticalLabelPosition=bottom;verticalAlign=top;align=center;html=1;fontSize=12;fontStyle=0;aspect=fixed;shape=mxgraph.aws4.resourceIcon;resIcon=mxgraph.aws4.shield;" parent="1" vertex="1">
          <mxGeometry x="-114.41" y="-354.81" width="44.81" height="44.81" as="geometry" />
        </mxCell>
        <mxCell id="toNbNgcDX6MXMbGnY5Hs-31" value="AWS Shield&lt;br&gt;" style="text;html=1;align=center;verticalAlign=middle;resizable=0;points=[];autosize=1;" parent="1" vertex="1">
          <mxGeometry x="-129.99" y="-311" width="80" height="20" as="geometry" />
        </mxCell>
        <mxCell id="toNbNgcDX6MXMbGnY5Hs-35" value="CloudFront" style="text;html=1;align=center;verticalAlign=middle;resizable=0;points=[];autosize=1;" parent="1" vertex="1">
          <mxGeometry x="-125" y="-440" width="70" height="20" as="geometry" />
        </mxCell>
        <mxCell id="l0EMNmxLnOdooNni136J-1" value="Route53&lt;br&gt;" style="text;html=1;align=center;verticalAlign=middle;resizable=0;points=[];autosize=1;" vertex="1" parent="1">
          <mxGeometry x="-120" y="-245" width="60" height="20" as="geometry" />
        </mxCell>
        <mxCell id="l0EMNmxLnOdooNni136J-6" value="EKS&#xa;" style="shape=image;verticalLabelPosition=bottom;labelBackgroundColor=#ffffff;verticalAlign=top;aspect=fixed;imageAspect=0;image=data:image/png,iVBORw0KGgoAAAANSUhEUgAAAEoAAABKCAYAAAAc0MJxAAAWO0lEQVR4Ae2cCXBc1ZWGr/ZWa7Vsy0zINpBlmEkms2RIzSSkJplAkkmlpkIWQoXFiyxr36WWZMlazeaFLSTsEBzAYSYktsFJCDEuwgABQmxjW7t639WtpSW11FL3P3Xu7bd0qyV1W/K4ikJV1xK4q/u9z+ec+9//nCdmbsyFpTEHliaxrE05sOqUZWvOhrxasmGXVms27K3ZcOzOkpezLQvyas+Cq10r1h4tXHu0cNPqUNZYpxZjnZlidWXCI63uTHhp9WjkNd6rgXpN7NVgYm8GJm4Ta/K2DEzerqypOzIwdUc6X7470yGvu9IxLa19aZjel4YZWvuVNXsgDbMHUsU6mAr/wVQwArVmWK0KLAIXCSsM7AJgeTgwFayeZWCFga0Ea2qNsJi5QYBaMyxVZL0fYQlQH8DiKbhSGjITQZLWB2m4bM1ipvpcrDus92EaClAfwIJP2gnpe4zdUAH1foQVh3SIdzdkxro88PQjUBcD1qWWDusEi4O66LBWq1mtqXA0MDibmCxKXToGVxPD2J70ZUVp3DprHWDJoC4JrN0a2OsYXF2bMH2iF9MvtcPVlgHX7jRMPb8TvqPlcO/JgFvHMNahiangV4TF1Xv8Cn6lNGTG2jwQJGld1DRURZa9nsHRlISJw7dg0TMC/hUKwt2zGe7uAmAxwP9XwPQnTDzxTVCEuVvZJYPFDATq/xGWvTEZtlqGsQeuwfzQHwQgQQkh/yTcPYVw925BaG5S9XfA3Jnn4L337+BqZHC3J2NMOhfS926xvN1xHHcuMA05qIsPKwd2XQasVQzOvR/HzJsPyxAomqZ+VYbgtBOhgF+A6ilEKDCL4Iwb03/oQsjvFSgX5zFz8naM9W4S9asjPeIgvSQN1QfpNaYhM9TkgUBdNFg6LSzVDPbmbEwea0JwRtw0Fufg+8NtcLRtgEOXjOCsB6GFObh6tnBY9HNwZgzOFoax2z8K/9uPynCDEyb4ni+Cuy0V7mYGT5dGAIsVWesES4C6SLCstQyWGgbP499BwHZGvtHZ08/Bte+zsBFA2u26ChGc9QpQ3Vs4LAIVmvXymkW7obOBYfzBazA/ckJ+n4DhNUw89jUOa2w3AVsmDdcBFtPX5INH1XrB0uXCUp8OczmDc/8/wX/2iHxj8+Z34HnkW7xG2RqY8LOa0+Hs2hwJqnsLh8ZBdW/iu6BrTyZPN1dLEqaeuwmLY4Py+86d+jm8d38a7iYGz54UpWato5/F9NX5WBdYZPw1aGEqY7C1/RV8rxwAQov8ZoI+Jyaer4K1KZNHmL05SxiAZP7pMuDsjA2KoszdvRmu1jRu/HHzrz2DR5e7Ox/TL3cgND/NPyMUmMHMiW54evMxpqPoSl/Z/EuwZglQBKt6DZHVkANTBYO5NgPeX5RgccIq/2v7Xr0fts6PwFLJYGvSwNacA5vkkrZkw6bLgKNTST1n1xbQ4jVq1gtX92Y4W9OjnNIsXp9cDQyeA5+C/92fyZ9Hm4Pvf27FWFsSxloZPLQTxrMbqs0/lVs6dbtwStlolYDEI+sCYJmqUmAsY3A+8HXM6d+QL9h//jdwHvgCzBUMlro0WJtzFUuZ7GUJVtMqoLokULGdUleLUPATj34VAf2r8ucH9Ccx+eiXMUbFvp3JljLZy+MX4JQuARVfGubBWKOBfheDtecqTL91SLlAx3mMPXEDTFVJMFcxrOrBE6iOFSKKQLWkw8k9+Niw3B2ZQpDuToHvl9uwOG6Qr2fuz49j/OCVPB29nckysERhcVDRUbViGtbnQ1+WBFNjAcZf7ERofoZfVNA/ifFju2FuzOMRZmnIWr1h0ZIDa10ST7/gjAehxXk4Oi8Lp948lwyOlnQ4dEnCh18Rlhbu9gxe8D29GzH7Si9CC35+baF5H2ZeboO3Jxee3QzeXiFME4HFRivzQaDihWWoSIfjvusQcPTL/2q+N56AtfOTMJYwmGozOawVPXhKQ9JXVLfaNsL3yj7xXqEQHB1Uoy4L/3cQU8eb4WjV8jOhc3fmKpFFHR6qXylcwXvvuQpzp5+Vr3PR3YfJx/8DnvaUhCOLjVRuQCKwKN1mz/2Wf/ic/k047vkKDKUMxspUxVJexYOnlLTUpcL77DYsevRhKIvw/X4vbI1psOk0mHnrcfkGA/YzGP/Zd+FoZMJlWC2yOqgNpuVnQzpQTz5xHRasb/P3mx88jrEWlnCB56BGKKqWiyy1zqrJw2gJw8x7L/APdf70vzCylcFUF/ayVvSzcmGuTeXF3XX/lzE39IoMwt/3G7ju/kJYwWfB3qyFtZ7B89i3ETCLG6QXz51/AWP3XQ17LYOjORkuqXe4YitMA1cNw+ShbwlQ/UfDuyH1DuM4G4Z3QzZSsQEUVRxWOAVXSsPRXQwzZ47xD3U9+gPoSxh3HpZ3HfJgrsuEqZTB1nUFpt9QjiILrkF4nroRpOCtNUzsitJu2JLF/79dp8Hk8xVYnFQkx8z//hjuvR8Jp2O0dFAarNRs5ZGlY5h6+jsCVN8RHlGJHqQFKDWs5SIrLB0iQD1ygwwqpp9Vn8MLO3V5xn/dxNU3XS1tAJPHO2Bt3gBzJe2MWUJfSV1pCVZrDuzNGlir6ZhzGaZP3gUEF/gNB6fdmDpWz4u8o57B1aZRRGlUR5rSb+qZ6yNBLXfcWUY6sGGCJC0pspaFlQc1KCeB2iUiaomfVZfD65b7kesRsCrnvJl3noF971VcwVvqM2Bt1MLamMnb+HLrXq2zmrWwN2fC1pDEz4buA38P/+nn+E3THwtUv566Hk5KxbbMmLDIy5p65rsyKHdL+FyYACw2XL4BicAaKVZSj0ARuCV+FkGqSMHkiYPyDc0b34bzJ9+AsZzBXJ2sSIfmfFhbNsjzDjIskg6Nqbyw29vy4ej+EBy7c/kh2lbH4H3kGwgY/yS//8xr98Kpo7q1FBZZypNPq0A1s8T8rL0aCFDLwYpRs0aKkzBzWtQoCdQSi6Y2B8ZqDQLOAX4j48c7YapKF5AacsSsQ30mrC0bETC9jYWxEdi7/xqWhnQRWQSphsHR8zHMj76GoM8B38l9sDWlw96SJcsFe1MKpl7U8c9YdA/A0ZImUpCGQ1QFPiYoGg6hiJJWLItGlYYKqOVgqdOwKh9LQBWzpX5WbQ4MVZmYt5zmN2Hd+9kwpDwhIagjXUegNiE0N8VfY+/9pHzUsdQkw95WiIDlL/zv5kf/CPvuAtibMrjjIKZosnl0ue64gr9mwX6ag3JS+kXthuSKyhF1/oiwZToT8+DZUNkG8PQjUHHAGtmpRJTj4RswSqCiLZooUPYD/wZjRXJER9pUp4WlZTOCU04gFIS95xMclKU2hafivEGcG+m7rSUP1oYU2FtyFNeBnIfGJLjv/lwkqBii1Emgfh5OvfNH+HFHHjeKJ7J6NWBDZQVIBNawCpTz4RtANWuJn1UTGVEyKJXOMtUKUIsSqN5PcgfC0pgta6yA7T3Y27fAWpsEW0uk60BRZWtIhvvgPwhQttNwNKeBq3ea05Kiql0LAjUh1agwKEk6yMCkFFymwIdBxQ9rCaidbKlFQ6AqldSz7/+iiCh1k5VANW+GABWCbc+HYapMBbkO9LUwNirqVjUTkKKlA1k0UaDszWlwtGZGzWdpuX81oY4o6h+GB9pWGmZTe/BsqJQgSWv1NBwuYkoxp4gKg4pwHWpyoFeBsu3/IgzlKZEdaRUo8p6s7Zdj5p2nOaTglAOO2z8jNFZz7rLSYTlQ0fNZ1FyVQM1RRKlAxRVZPRqwQQKVAKyhIlWNeugGDEug1E5pdWxQalFqrNHCTBE1aQed7v19vxOR5DHAeeBqnoZWnYAkjUrK0iGss2z1yXAfkFLvDOw6EVHSuKQ0+SdAfY+/P4FSd6TjiSwak+SgEoE1VJSM6bA8cBCoIpF6kvHHI4tAVWRi3ix2Pds+EVERopRA6TZjcdzCb0D6Y+bPh2HcybitTHOlK/lZVhUoal7Ydek89ZaAqqeIUoFqZFw+JDJTygZLCkCg4oU1tGMpqCVnw6rcJaD0ZSlyN5oDk0BNORCa82Hq5P0SK0y9fJdQ7g1aLkyXg0WgXKqIsulIZ2nhiBoMoSPOxKEoUGGtFS8sNkCgEoDFQZ0SgtP+0A8xvIMt9bOqcjFaoZV1FEXUKIFSdaQN1eGIol0vuABz0waM/6pRhjX5my5+kLY0CgMwFixrXTJc+5XUE4JUK7o7Klg036CAOsrtmlgKfqU0ZAMlGwWoOGENUkSpQA0RKLUopVpFoMq1SurdJUCpFbyhOgumpsLwrheEteMK6IsYJl5ok2FNHGleEZYaVMB2GramNG7RkHRQj3bTkWf8qXBEnTvCPa1ER7vZwK6NSATW4HYVqAd/iKEdSdymiYBVGQnKSqBKUyIU/BJQ5JBWpsJQQrDaZVjeX1aHYWUvSUNLXQpc+/+Rv5ZqlKWKcclgJ9dBBWsJqHrGJUS0gl8pDQWoBGANbosCtV2AijD/lgOlUvCGqqiIIlDV6TDVZQlYx5TI8h4uFrCaImGRineGQSG4iOlX74Wj80N8xoF8LBlYdESFQa3csBC+lqSzWH/xRvCoihOWGpSNIopARftZlbkYKVNSz9z1OS4jDJJbWpsHPYFqLETQL856ls5Pw1iVLrSWBEuVhp7Du2CqTFJcB9oRGzSwNmaFm60hHlmLU3ZMPF8Jmy6TH6zpEE3TM+rUo5EjSTrEC4uD6idI0lqlZg1sVSLK9tMfYlACpYZVIUAFnKLtPXnyJ9DXFQopUZUNAqavyoaxcTPmDG9jwT0MS/uVMFRpFFFKsEoZ7+wseI1YcI/Aee+XYa5JAxV4UyUDHXcsNUkwFTM47/4C/OePyykbsPwZnke/zV1SSxmD96nv87+bO3cElIrRonS1NBSgijciXlgDW1MwfUp45hzUtqSYftZwcRo8R7vkC1/wGOE6VIzRMg33sAw1uaJm1RfASCvWMFtdNoxVKXxHtLQUwrL7MtGRrk6G59DNCFhPw3/2GJz7/hnGIsb9eM+T38eC/az8uf4zz8PZ+yl4Hr5WBkW7YLTWWi2yWP/OjaD040uKqhXSMCaoWK5DRR6GdybDuv8rmB04qVz40Guw3f01cfQpS4WhOhtU2NXSQa3gTfU5vG4ZKxhvhznuuQb+/t/L78d/CIXgO7EftrYtMG4na1mLyWM6ecSI5hLmh8QUzNzZI9xrl0DFG1msTw0qjsjqvzUyogYoolawaIaLkjBSkg7nE9sRcI/KN+h78xDMHX+DkR0M+kotDLX5MWBRRzpTdKQ7r4TvdXVjYghjT96IiRda+dAZvTHNPIz/dxkstckw7WBwdH8c068rQ2v0Gn/fcV6zokXpajWL9e3chERgESjfX8Kp98ANGNiqAhUrsqhvWJGDoe0M+tpCeF/cyyfr6KKDcz54j+6Boa4AozvJrslRYNXmcECm+nyMH2lBcHaCQ6bGxMSLHTDrCmAsZVzB22+7CuTFS1/z+jfgfvDrMJcymHcxuO77EuYGRBTOvv2kKPJRj9CtFlmsr4hAxQ+Lgzoliqbtxz9A3w8YhkrzlKiKCYs60Rv4TkjATJ2fhe+tw9J9gYq+67GboC9LxWhpMvSlyTCUpcD1+I0I2Pvk102/9XM+6yA60hq5I00ePE3TuH5yLeb1r8uvn333MJx3XAVTEeOt+7EHr4Wz56Ow6zIjdFY8aagCFR+s/puT4Dv1Ir+YefsgbA/ehIEd6RjYlrI6rLCCH96VxuWC7b7/xJxeaRDMnn8J1juu5mv2nHAT6IPmRt+A4/7rwh3plAinVHneMJvvhOa68OjRuJlfIz9HvtQDW2sBb7DayE6OckrVoJaLLHaeIkqOqtVh9W/PhKH7S/CPvCX/y02f/T2Me69B/y0MQzs1GC4vWN1WrqRiz/hRx/1MORbGlQan9MbkLIw9U8plAzVaTXU5inyQngiLaN/T06xa4T7UZ8LfJ1r/9H4z7xwSyl3dCqP+oUrBq4FF1iwt2Pkdm5AQrNJN6N+ahoGibDieqsTCuE26L4yfeBCjjVdggICV5GC4oiCmdJCGQigdRytzeEE3Nl2OiZfv4f45eegTLx+ESfch6HcyGGuyYazLj78j3X0lfK8+wMex6eKCPhc8h34EUvKypyU1WeOEJUAlCqtkEwaK89D3I4bhmo/C+7t7EQoGObBF3xhchxswVJqLga0Mw+X5sWFFHKQ3YLRcg5EiBsttV8N6+7/w4q6v0CyzG0bNOtRn88LOO9JHFFlAF+R77aewd34M5moGK037SZZygpGlgEoYFrkOGzGwQ4u+mxj0nVfD9+5RObrmTKdg+/H1oEP0YFFaHLDE5N9oaTpoLWlYqCwatc4ylCfBWJEE96PfQ8D6nvz5/vO/hfPgv8JUzmCpTYXaLb0QWOzc9k3g6UegLgiW8LP6t6Whf2sqrPd/H3MmpYXue/fXMHZ9HgO3UjpqMVJRsPRsGGs+SzoXqg7SiijNh6EyA4ZdDLY7P4/Z94Q/RpQC9vNwP3EjTFXJ3HNfr6fv2bntm7EsLLnIq9R7WMWrz4ay+VeyAX23MAyW5MP1iyYsToefOAguwPu7gxip+7BIx7JcjFQWhKdoouazVpwpzYexOov3Ek0tl2PyxD1AOOVJZ40fVSb+zA3ZsKz1VxWozL8wqLXD4i4pN/82YqA4F/03M4w2fgLjrzwkp8OC1wLnoTIeWcJ1yFdGjiJqlmoAV46sXH5GpO7O2LPlWJxQNhHf64/xiT8aGOETfw2qjvQ6wWLnthEkaS2ThurIijryqCNLgUUePNWvTC4ZSDrMnHtZBuYfeROWg9/kan24OF2OrgjzLzzSra/egNHSNN5otd//zQjd5R94BfaD/y4maipTV5EOa/glGK1ZYGcJ1EWDJVphA9tSuSi1PXQz5h3KEwdTbz4LY/tnMEi7Y2lWlFNKO6GWe/Lmzs9EKPkF1zBcT94KQ3ka9DQWGXYelh9mW/svweCgLgiW5DjEqFmRkRXuG5bm8+gartiEsV93Iuj38Qijp6g8x3owWlOIwW0MIxV5GK3IVc6GL/TKh97Q3DS8L3TDWL9p6dnwIsNiZ7duBoFaM6w4LJqhso0Y3JXNgelbr8Lk66r5dNcInI9vw9DOVAwXpfCfA67wA4+kh/70NEwdf8sjjOoUd0sv5lNhUTqLvUeg1gJLXbPigkXt+40YLMrgO6Bl/7WYHfyjXL9mzr4EWtKXf+g1WO++jrujVKukRmu8Omu9HijnoC4NLDEYMrgtCUPFGjie3AVyQaUv+tn51C6MlGjEmbAqT4Z0KWCx924tBIFaMyx1zYo7ssLDIXTcuZVhpO5yeI7fCe/xOzFaf7moWeU5coN1SUf6Ap7dudBfryJAXXJYNEVTgKFdWTwdqagPl9AuKInSOOfgL2LNYmcIkrQuaWStPnIUW2et8RG6OH9xDztzSyHWBRZ3SVf3s2JKhwTmsy4VLAHqA1h8UnmlB50UUO8XWPLZcH2fvmenby4ETz8C9X6BdRF2Q3b65i34AFbuMg0L5SAdBvU+hbWOachO30SQpLWGNJQcUul7gt2di7YbrhMsdopArQEWP0yvk58lO6UJzJQqI0eRTmm0il/r2fD/AFWnzw1Z2ShDAAAAAElFTkSuQmCC;" vertex="1" parent="1">
          <mxGeometry x="166.38" y="-190.93" width="40" height="40" as="geometry" />
        </mxCell>
        <mxCell id="l0EMNmxLnOdooNni136J-11" value="Availability Zone" style="fillColor=none;strokeColor=#147EBA;dashed=1;verticalAlign=top;fontStyle=0;fontColor=#147EBA;" vertex="1" parent="1">
          <mxGeometry x="570" y="-390" width="240" height="100" as="geometry" />
        </mxCell>
        <mxCell id="l0EMNmxLnOdooNni136J-12" value="Availability Zone" style="fillColor=none;strokeColor=#147EBA;dashed=1;verticalAlign=top;fontStyle=0;fontColor=#147EBA;" vertex="1" parent="1">
          <mxGeometry x="570" y="-260" width="240" height="100" as="geometry" />
        </mxCell>
        <mxCell id="l0EMNmxLnOdooNni136J-15" value="" style="rounded=1;arcSize=10;dashed=1;fillColor=none;gradientColor=none;dashPattern=8 3 1 3;strokeWidth=2;" vertex="1" parent="1">
          <mxGeometry x="206.38" y="-391" width="143.62" height="241" as="geometry" />
        </mxCell>
        <mxCell id="l0EMNmxLnOdooNni136J-16" value="" style="rounded=1;arcSize=10;dashed=1;fillColor=none;gradientColor=none;dashPattern=8 3 1 3;strokeWidth=2;" vertex="1" parent="1">
          <mxGeometry x="350" y="-390" width="140" height="240" as="geometry" />
        </mxCell>
        <mxCell id="l0EMNmxLnOdooNni136J-17" value="" style="outlineConnect=0;fontColor=#232F3E;gradientColor=none;fillColor=#D05C17;strokeColor=none;dashed=0;verticalLabelPosition=bottom;verticalAlign=top;align=center;html=1;fontSize=12;fontStyle=0;aspect=fixed;pointerEvents=1;shape=mxgraph.aws4.auto_scaling2;" vertex="1" parent="1">
          <mxGeometry x="245" y="-282.37" width="30" height="30" as="geometry" />
        </mxCell>
        <mxCell id="l0EMNmxLnOdooNni136J-18" value="" style="outlineConnect=0;fontColor=#232F3E;gradientColor=none;fillColor=#D05C17;strokeColor=none;dashed=0;verticalLabelPosition=bottom;verticalAlign=top;align=center;html=1;fontSize=12;fontStyle=0;aspect=fixed;pointerEvents=1;shape=mxgraph.aws4.auto_scaling2;" vertex="1" parent="1">
          <mxGeometry x="405" y="-284.92" width="30" height="30" as="geometry" />
        </mxCell>
        <mxCell id="l0EMNmxLnOdooNni136J-20" value="Auto Scaling" style="text;html=1;strokeColor=none;fillColor=none;align=center;verticalAlign=middle;whiteSpace=wrap;rounded=0;" vertex="1" parent="1">
          <mxGeometry x="227.5" y="-258.85" width="75" height="20" as="geometry" />
        </mxCell>
        <mxCell id="l0EMNmxLnOdooNni136J-23" value="" style="shape=image;verticalLabelPosition=bottom;labelBackgroundColor=#ffffff;verticalAlign=top;aspect=fixed;imageAspect=0;image=data:image/png,iVBORw0KGgoAAAANSUhEUgAAAEoAAABKCAYAAAAc0MJxAAARmUlEQVR4Ae2c+3OU53XHH2lX9zsCbOxQp9iuO0lN3Waw4z8gaab9JW1ju1jCgDAgCQldkNAFSSAwtxiwSSe+Nf3BEzvmOiGpncxkMk46nand2lyM7rfV7mrvEiBphVZaXb6dc559331Xuyu9QovUMN6Z70q8w1jej845z3m+53kQA9WZsFVnwLZfyr4/A/aaoBy16VBVlw6novp0OOvT4TqQpsrdkAZVjWnwNKZKNaXC05SKQdLBoIYOpWLoUIpUcwpuKTqcgtukI8mq7ryWDK2GjyZj+GgSho9JjRxLwsjxoEZPJGH0RCLLezIRqn6ciDFFrydg7PUE3CWdCmr8dALGTxulzhjhO2OEIFBLhlUfhEXgQmEFgN0DrFsMTAPrSBRYAWDzwRpdIiwxUCVBLRmWJrIeRFgS1NewOAXnS0NhJUiKvk7DqDVLWPdlIuawHsA0lKC+hgWvshLS1wirYRDUgwhLR+ugdzUUlsoscPoRqPsBa6VbhxjBYlD3HdZK16wYwFJB/b+ARZ18xA4+0L1TF6907/T1sNTtw/e/KRWWiiwQJEX3NQ2jRlY63HUGuPYJuKulPNUCnv1BDdYIsGoFBmsFhkh1Qd2qF7h1IKjbDQKK7jQKqGoSGDlqjLrdiVazhJlALSesCDXLVZuAwZMbMP7ZTzHRejmy2i5jciG1X8ZkQP72ywjXJfh+XwPaJ44cTVgULAa17LC0kVWfAldtIiZN/4nlevl+X80Rtpi9oTCXZ4FArRQsZ20i3IcfwuzEKGanJzFyaQeGP/hnjPzipVB99BJGAho99xJGz72oynvuRbDOvwivogsvwHvhBYyRLr4A7wc/hO+/T/Hvwt/xSwZFzoNeWBLUSsIiUM0PYWZ8GLP+u3A3psNZLuCqEnCTFqpZVLuUmqWpW1yzqG7VC9ym2lUp4P3wHySotosS1CJcB9Ffng2OqpWCpYK6g1n/OAaPfgNUs9xL9LPYotH4WQRr7OJLAVAXQkAtFFnkZYn+smysKKyaJBlRvmHMTvngIVB1CdLTWiIsrflHkaWAmmy7wCviYsw/CYpgla1MZDlqkuBqfpjrE/26Pa+tlxGluKUMa+nmH4HyBiJKAUWOqQpLm4Yat3T0uHRKhWmvhMSRFQ2Wpn249z4rHY6atFBbuTYNztoUOBuyMPTu93D7ve/D1ZgJV10y28uqU9qQCk9DSqit3JiCwaYU1Vqez1bmxrQuMqiosObYygwqBFa0mrVEWLZ9ibBVGkNg2auNcFQZ4KxNhWOfgKNSwFkdD2eNAa4DqQFLORWumni4ag1BD74xBe66OHjq41VQ5MXPB4uaU++Ff+EaNdl6gZvTiB68NrI0sFRQIbCiRda9dPDVabBVp2H8+gVMmj+H6/i3YK80wFmfDV/7x5g0fwb3kccYmOvQw5js/ZRFK6Gz2gDPsT+D3/IZJto/hvtgFtw18Rg69RT81s8wcfM8BhuTpQJDi2iwwkDVC9xZhAcvTKXZIEiKlBSMWc2qToWtKhXTd2z823Sf+lsM7BVw1GdjZmJUPjv+JOxlAq7mR/jP9OY+vA7OCgHPiSf4GfVZ7qZM3ubcOvsMP5sZGYCnMQmDpAWmO7TlmRtRNOXRC0v0leZg0bB0pqFtfxYGyg2wlgpMuTv5w7lPPg1rieCR2PSInZ+5jnwTtr0Crqa1mJ30slwH18JRLuA5+piEMmrnVCR4Q2e+zc+mPR2yz6oTGDyYNi8sBnVeSb2Lsr8KtA96YDGoPoqqaJF1LzVrXzoG9qXBWpYAe+N63P3iA8xO+/nDTXm64bfdgN/RAszOyGfuDvjtNzDlauM/0xt9z8/cHfLZ7AymnC2Yst/A9GCXfDbth+/azzF47FHeVHNkNSWrwLRpSE2pVwOKUnExroPoK8kBRRXD0qTgkmoWgapMg6VY4O7Vc+qHv1/f+G78gjt5TwOlYRCUtsATqNE5oHTPDY8lQYLSwooWWXoKfGUGLGWJGLt2EVPuLvgp3QJRM/T+y3Adfxru08+q8px5Fu6APG88C88bm6Te3IRBRWc3YfDsJgyRfqLR6W9j+MPNarRRGk57OuG7eV6uhnNaB7JoIoHSC0v0EiRFSmQtFpZSsyoyYClNwKTtRljwOI9vhKVQYKAsHgPlQdkq4qHIXhkHVfvi4FBUFQdHVRyc1dQ+SDnKBIZOy1ql/WFTjuvcOgxSn6Up8GGgaoUc4es0/0TvnhwsCla0mqW0DhUZsB/5Fhwn/gaOYxs5suiDuE49B+tew9LH9wGLhoBRhNGLatbQmb/CrTc34tapp+BpTAlzSskEHD0vI3Ci9SJvpLVnHeaNrKPJkKCiwbqnmpUNc4kR5iKB/kIB/8B1/jBaUEse39encWQpoCiKaDVkx6FGhHbwgYMhBGrkXABUiwS1GFs5CCoarMWmIUVWVS6sVat4qsOrGwCnElExGt87q4IRRashb3eaMrkpjXSKJgxUjYh4iiZaZIme4hxw+hGopcIqz4S5JAnjrZ9getjBQqAtcL7+HCyUejEa31PNogLPrxk/ZkbsmBlxYKLjY7ndmbM3JA8+JKIUUHoGFq8lQ/QUr8KiYZVmwlSSJlWahv7SVJa5LAP9JYmY6P9cfgDNO4MqNcRsfE+gaDWc+6LtDu0N3bSR1pzPIgNQC4oiTD2bpQNWAJROWHtz0FeUjL7iFJirHoG5OijL/nUwV+TAXJ4Ja8MG2JqexEDj4/C7ZMPIoEoMMRuy0oqogJpyd8B97DF4jm/gvSFB4lTU+FmRQGn7LIY2zyhM9BQRJEXzp2FvUQosDU9hvPNTTI8NYebu7RA53/weTEXx6C82wlQoYNol1FbB8ePvwqKAisFEmkG9KSNqyn6dtztOdh8EXA3pAechTXVKyVYe+ShYzCmilPZB28FHLPBHkiG6CZROWD0FAiP/9e8y2mdnMOv3YXZqQpXz7A9gKoyDpeYRWGu/AUvNOvid7fz3CZR5jzFm43s7RZQCytUG2hu6Dz8Md/NatmjmHmajFTEEVHUQ1EKRRU4pg9ILq2dHPMZu/oY/uOf9negvz4W5bgMspPoNMFfkwlScCF/XHzA74cXMhFftzBlUiZEHrfdu/mWoxh81pp4AKOr+lc002TTsZ5H5V2tURQOL4Q9/xP/vEy0XeTO9mDOlortwFQiUHlg9BfEYu/5r/mHOt36Enq2C6xXVLNOeFPSXZsBUnMygZibGGJayhXGclBEVq4k0g3ojUMwJ1IR0HRhUdTw7pZ6j60EaPLYe7sZcjFzeKUG1/pJBRR7fRz6AK7oIlE5Y3VpQ725Gzw4R4jr0s62cBcv+R2GpWQ8q8JOB1LMTqGIZUbGApQVFTgNZNO5D6+A69BA7pbd/9gO1JMjy4FOjmybS7n2Cu3e9sERXYa4EpQNWOKg46TpomtL+shyYihLQt0ug99VgMSdQVORjNb6n/SFtpOnlt19nP8teLtT94a33/g4z47dDdXcIk92/w+CJP4e7LiFiBx+twIuu3bnQBysb3ds1qUcRVUCgpE2j+lmlWbDUPw5r41/AcuAJ+J2yPbCfkKBiNZEmUOQ80IvaAzL/XMceZ1vZSUOLA1lwHaIoWwN3c1BK3aJBq0dpH3Qc7ZagdMKKCEpr0ZRkoq8oCT5TeMPJoIqMMRvfa0ExrcAbefDqwKImCU4ah9Umsmh876pPmdM66BuFic5dueCo0gGra1s8vEoxf2czuimitBZNSRY3pGMtcgszNexQnU3biedhIlAxmkiTVaNEFLmnZCtPjzjga/sYNN3hqKJbFhFuWMxtHfREFoPqJEiK5qlZXdsMoaC2x0W0aPrLV3PrQC7ppL2Vf9cEqq8oIWbjewZ1OlCjnC3swTvqs3howVdSlKsoMYIlQe3KhR5YEUGFbaRXoXdXAnp3CFCDOmmVJh5HVGFCzMb3IaDs13lgQdMdWg313t1ZTGSJzp25oPRjKVEVJQ07txrgvSb7KMfbm9FFERXmOmTD0vQ0rIe/A2vzM/C7umVEHX8eJgIVo7MO5JSSrUyvKU8XXCc3wv36Mzw3DJtIK9G1hDQUHVpQC0RWKKiX0bVNA4qBZaN3dzImrF/xB9C+DTQ/g57tgmERMEpDqln9pOKgaJvDxt8eI+8NaX9oKTWwRUMOqSKylV0nntb+CP6eJjdzJ9IOBdQS0lB07FwNvbDCQcXPsWiy0VOYAu8Xl+B3dbGUztz9s3xYm/8atuPPg9JQ+UqrIevkd0G9FnXwtN1RRK6DqlPPsaVMbil58EPv50lQNMpyd7LGr1+EbV8C7DWa63N0lW6JsETHqwRKD6wcdL6iTT2KKAIVwaLZk4W+4kzus7z/ez7stx7rB3evfsQ1iibSNL6/1/uG89UsDagFYO1ehQ4NKPvbL6NzqwJqDqziLPTuyUTvrmT0V38To59/qLYJfnc3F3heDQOjLL+zE5MDNBQNDkDJdeBnAT+LIpNsZZrw0H+DXtQWjH3xAQ9ZB8qNsNH4nkAt4XJmNFiinSJKjar5Yc0F1UGg5rNoSmkFTELPjjj4nXK6S+lHqyG1DtPDcqROnTxtd2hvODsxBtpQk0VDftZA4waGQn+XXAcaWNiPbuRnlG6WPQLWMiMG9mfF7CZrOKxUiPYdq6EXVscWo7rq2d+SEbWg61CcyWk4fUdCGTiyiVsHsmhmffKQhrXpL9G3U/BGmgkAsNath2m3gO3gU/xoxjfKAwtzkYDjxHckvDs2nkjTVDomN1m1p5Xn3GSVoPTA2pWLMFCvxC9s0XAaZsH75SX4+v6HWwfqs6gpvXvzE97uUETRRppch/GuP8LX9UdYax6FqdjItjJ58OMtn8BalQtziYHnhvSMJtJWHt+ny6FFLO4bRoEVBKUDVntIROWhg0DpcB2o1+opTOXWoW9PNvpKV7HrwP57URJMpVkwleWgvyyL/Swy/0y742AqjGcPvr8kiac70nnIhoUm0nsTYClLipkHz5fK5+mzRFvBanD6EagFYLXlGzF6VTactp/mof0Vg26LpndPNkhz94amkkz1bBYfDCnNgLliNZz/+vdwnv2+HFiUpTOwEIumIgPWyoygtayMwWI0N6Q6pYgGFaKtYA2iwlKLfC6ogw8DtcXAFs1izL/w8f2c81nFKbA2PCnrkn8clup1chSmvTSgnHVYxit0AVD6YEUEFWW7M+9qqDgOWosmYP6RrWypfwKzM35Mj92CWQEVI9dh0a1D4O6OaNtOkBRFSUOOrFy05s1JvXyDLtchYlMaBktGlgpqepJHYuaqdTxojXhpYBkjS7QSKJ2wWvMSMHr1PzgtrGd+iJv/KNCeb5DaYkD7lngu8FTkWVvjuSmlDr5zWzzvDbu2C3QrKhDoLpAuA/Va5MHTwKK/Yg2fO+eICoCKeqZ0mWAxKL2wWl82wnvjtwxq6DdnYH3jn2B7awvL/vYWKHK8nQ/WO/lwKHo3Hw5WHpzvBvReHpzv5cGl6N/y4XznRXh+XoTZmSlM373DE2ka3yuHcFcqskTrtjUgUHpgtW42wnOpmUEtx9t4x6fsmJpKM1VQK3UdRbQQKL2wCnJ4u+O+eAijX/4Ko19eia6rVzB69Qq88+naFXg1Grt2BYqG//AWLPVPoq8oRW0flKhaiTRkULphvboG7QU5oMiiNKTi3ppnQBspX4prFtcrA/dZVKs6qWZtlaKNNNUsqTg2/7q3x4FVEMeOg1Kv6KyDaW+OCkrXAdz7VLNEy9a1IFC6YWmbUm2fpbikga+qB79b/9xQz/ksOWQN3t9ZrpolQd0PWAvYyvfaZ1FUhUTWQmdKY9SUipsESVGsI2u5YOk52q38Axj3eORI3HxlLWICi13S+f0sfRNpzRmtsKZ0nhsW9xmWBPUnDEtXzVKOdi8hDYOg/oRhLUfNEl9tWQtOPwL1oMC6D2kovtryEL6GtfA/NhYA9eDACqlZMWwdxFf5BEnREtJQcUiVr9SMqg3pCq6GMYIlbhCoJcDizbQuPysAa84IX+3gC+lAm/5jkgs6pXpu3y9iNfw/Xj1/TynrrO4AAAAASUVORK5CYII=;" vertex="1" parent="1">
          <mxGeometry x="222.5" y="-370" width="40" height="40" as="geometry" />
        </mxCell>
        <mxCell id="l0EMNmxLnOdooNni136J-37" value="Auto Scaling" style="text;html=1;strokeColor=none;fillColor=none;align=center;verticalAlign=middle;whiteSpace=wrap;rounded=0;" vertex="1" parent="1">
          <mxGeometry x="390" y="-260" width="75" height="20" as="geometry" />
        </mxCell>
        <mxCell id="l0EMNmxLnOdooNni136J-44" value="Master" style="outlineConnect=0;fontColor=#232F3E;gradientColor=#4D72F3;gradientDirection=north;fillColor=#3334B9;strokeColor=#ffffff;dashed=0;verticalLabelPosition=bottom;verticalAlign=top;align=center;html=1;fontSize=12;fontStyle=0;aspect=fixed;shape=mxgraph.aws4.resourceIcon;resIcon=mxgraph.aws4.aurora;" vertex="1" parent="1">
          <mxGeometry x="680" y="-360" width="44" height="44" as="geometry" />
        </mxCell>
        <mxCell id="l0EMNmxLnOdooNni136J-45" value="" style="outlineConnect=0;fontColor=#232F3E;gradientColor=none;fillColor=#3334B9;strokeColor=none;dashed=0;verticalLabelPosition=bottom;verticalAlign=top;align=center;html=1;fontSize=12;fontStyle=0;aspect=fixed;pointerEvents=1;shape=mxgraph.aws4.aurora_instance;" vertex="1" parent="1">
          <mxGeometry x="680" y="-235.55" width="44.62" height="44.62" as="geometry" />
        </mxCell>
        <mxCell id="l0EMNmxLnOdooNni136J-46" value="" style="outlineConnect=0;fontColor=#232F3E;gradientColor=none;fillColor=#3334B9;strokeColor=none;dashed=0;verticalLabelPosition=bottom;verticalAlign=top;align=center;html=1;fontSize=12;fontStyle=0;aspect=fixed;pointerEvents=1;shape=mxgraph.aws4.aurora_instance;" vertex="1" parent="1">
          <mxGeometry x="740" y="-234.62" width="42.75" height="42.75" as="geometry" />
        </mxCell>
        <mxCell id="l0EMNmxLnOdooNni136J-49" value="Replicas" style="outlineConnect=0;fontColor=#232F3E;gradientColor=none;fillColor=#3334B9;strokeColor=none;dashed=0;verticalLabelPosition=bottom;verticalAlign=top;align=center;html=1;fontSize=12;fontStyle=0;aspect=fixed;pointerEvents=1;shape=mxgraph.aws4.aurora_instance;" vertex="1" parent="1">
          <mxGeometry x="740" y="-361.38" width="42.75" height="42.75" as="geometry" />
        </mxCell>
        <mxCell id="l0EMNmxLnOdooNni136J-54" value="" style="outlineConnect=0;fontColor=#232F3E;gradientColor=none;fillColor=#D05C17;strokeColor=none;dashed=0;verticalLabelPosition=bottom;verticalAlign=top;align=center;html=1;fontSize=12;fontStyle=0;aspect=fixed;pointerEvents=1;shape=mxgraph.aws4.auto_scaling2;" vertex="1" parent="1">
          <mxGeometry x="746.38" y="-290" width="30" height="30" as="geometry" />
        </mxCell>
        <mxCell id="l0EMNmxLnOdooNni136J-59" value="ElastiCache&lt;br&gt;" style="outlineConnect=0;fontColor=#232F3E;gradientColor=none;fillColor=#3334B9;strokeColor=none;dashed=0;verticalLabelPosition=bottom;verticalAlign=top;align=center;html=1;fontSize=12;fontStyle=0;aspect=fixed;pointerEvents=1;shape=mxgraph.aws4.elasticache_for_redis;" vertex="1" parent="1">
          <mxGeometry x="588.48" y="-368.63" width="56.52" height="50" as="geometry" />
        </mxCell>
        <mxCell id="l0EMNmxLnOdooNni136J-60" value="" style="outlineConnect=0;fontColor=#232F3E;gradientColor=none;fillColor=#3334B9;strokeColor=none;dashed=0;verticalLabelPosition=bottom;verticalAlign=top;align=center;html=1;fontSize=12;fontStyle=0;aspect=fixed;pointerEvents=1;shape=mxgraph.aws4.elasticache_for_redis;" vertex="1" parent="1">
          <mxGeometry x="588.48" y="-235" width="56.52" height="50" as="geometry" />
        </mxCell>
        <mxCell id="l0EMNmxLnOdooNni136J-65" value="" style="rounded=1;arcSize=10;dashed=1;fillColor=none;gradientColor=none;dashPattern=8 3 1 3;strokeWidth=2;" vertex="1" parent="1">
          <mxGeometry x="578.37" y="-391" width="76.74" height="229" as="geometry" />
        </mxCell>
        <mxCell id="l0EMNmxLnOdooNni136J-67" value="" style="endArrow=classic;html=1;exitX=1.02;exitY=0.197;exitDx=0;exitDy=0;exitPerimeter=0;" edge="1" parent="1">
          <mxGeometry width="50" height="50" relative="1" as="geometry">
            <mxPoint x="487.42999999999995" y="-280.33000000000004" as="sourcePoint" />
            <mxPoint x="666.38" y="-280.25064301552106" as="targetPoint" />
          </mxGeometry>
        </mxCell>
        <mxCell id="l0EMNmxLnOdooNni136J-68" value="" style="endArrow=classic;html=1;exitX=1.008;exitY=0.353;exitDx=0;exitDy=0;exitPerimeter=0;entryX=-0.002;entryY=0.878;entryDx=0;entryDy=0;entryPerimeter=0;" edge="1" parent="1">
          <mxGeometry width="50" height="50" relative="1" as="geometry">
            <mxPoint x="491.58000000000015" y="-259.99999999999994" as="sourcePoint" />
            <mxPoint x="580.0000000000002" y="-259.86000000000007" as="targetPoint" />
          </mxGeometry>
        </mxCell>
        <mxCell id="l0EMNmxLnOdooNni136J-70" value="CloudWatch" style="outlineConnect=0;fontColor=#232F3E;gradientColor=#F34482;gradientDirection=north;fillColor=#BC1356;strokeColor=#ffffff;dashed=0;verticalLabelPosition=bottom;verticalAlign=top;align=center;html=1;fontSize=12;fontStyle=0;aspect=fixed;shape=mxgraph.aws4.resourceIcon;resIcon=mxgraph.aws4.cloudwatch_2;" vertex="1" parent="1">
          <mxGeometry x="317.75" y="-90" width="44.5" height="44.5" as="geometry" />
        </mxCell>
        <mxCell id="l0EMNmxLnOdooNni136J-76" value="" style="endArrow=classic;html=1;exitX=0.875;exitY=0.498;exitDx=0;exitDy=0;entryX=-0.027;entryY=0.246;entryDx=0;entryDy=0;entryPerimeter=0;exitPerimeter=0;" edge="1" parent="1" source="l0EMNmxLnOdooNni136J-384" target="l0EMNmxLnOdooNni136J-15">
          <mxGeometry width="50" height="50" relative="1" as="geometry">
            <mxPoint x="155.69500000000016" y="-291" as="sourcePoint" />
            <mxPoint x="190" y="-341" as="targetPoint" />
          </mxGeometry>
        </mxCell>
        <mxCell id="l0EMNmxLnOdooNni136J-77" value="" style="endArrow=classic;html=1;entryX=-0.011;entryY=0.715;entryDx=0;entryDy=0;entryPerimeter=0;exitX=1;exitY=0.5;exitDx=0;exitDy=0;" edge="1" parent="1" source="toNbNgcDX6MXMbGnY5Hs-20" target="l0EMNmxLnOdooNni136J-15">
          <mxGeometry width="50" height="50" relative="1" as="geometry">
            <mxPoint x="160" y="-240" as="sourcePoint" />
            <mxPoint x="200" y="-300" as="targetPoint" />
          </mxGeometry>
        </mxCell>
        <mxCell id="l0EMNmxLnOdooNni136J-178" value="" style="endArrow=classic;html=1;entryX=0;entryY=0.5;entryDx=0;entryDy=0;" edge="1" parent="1" target="toNbNgcDX6MXMbGnY5Hs-20">
          <mxGeometry width="50" height="50" relative="1" as="geometry">
            <mxPoint x="-55" y="-266" as="sourcePoint" />
            <mxPoint x="-5" y="-316" as="targetPoint" />
          </mxGeometry>
        </mxCell>
        <mxCell id="l0EMNmxLnOdooNni136J-179" value="S3" style="shape=image;verticalLabelPosition=bottom;labelBackgroundColor=#ffffff;verticalAlign=top;aspect=fixed;imageAspect=0;image=data:image/png,iVBORw0KGgoAAAANSUhEUgAAAEoAAABLCAYAAADXjBHUAAAVNklEQVR4AeWbZ1SU19bH59v75b1qVHovUkV6712xixqvmhgTExPjvSYWRKS3AYYBhiLYsGBvwdhrrBh7xBZLjN2YWGOJ/f+ufR6e4RmZgWeGccX73lnr8EyIa9aZH3vvs/d/7yOJLnJATJEjYmSOiOVXsRPimla83Anxcme2epY4g1+9Sl1AK6GMW73LXNFbwa0+Clf0KXdF3/Lu3Krojn5suaFfpRv686vKDQOqerA1cEYPcMsdg6q5lVjjjsQaD7YGz/QArSFseWLILE8MpTXbEx/O9uLWHC8M49dcb/yzaQ2v9cbwWh+2RszzAb9GzvcFrY9oLfDFxwv8uLXQD6P4VeePT+r8IVGCeo9gDZohAtastmHxoOgpFtZHGmBJogsd8N7DqtbdstqCNXKeD7OqVi2LLCqKQLUDVq8SZ+aC77Mb6gLrbctioNoLi+LWu4pZotxw5rtxQ2HMkkQVdAOBai+sXqV/M6x3HLMkkQTqPYM1QM1pqGJZf0PMYqDeT1hc2kDpg75TB11iliRC2g0E6j8FlopltSPPagsW5VrCPIsDpS9YKgmp7jFLmZBWNiekQssSBUvPMUsSIbUHsyp9wZILs3fdYQkzeJ1jlh5g8XmWJDyfQOkBFit1msodNZZFKUR8iQNi5HaIktkgosgK4UUWCC80Q1jTovfhRWaIkJkjUmaBKLkVYuTWiC+1Q0K5I/pWuKJ/lZt2MUtPsBgoIax2xSwBrNhiR0QW2SA43xTB+SaILLJGH0UPjJgVhnF1/TF15Sjkrv83FNvTMGu3FLX75FjQUIb5+0swZ28hKndmonDTZKTWj8GEpYkYVRuBQTM80bPMHtFyS8SUWKKnwh79Kl0xqLoHqw811oZ6gKUEJYQVqYMbUhEdI3NASL4FAnKNEC2zx6i5schb/w1WHanFscv7cevBNbx89QK6vF6/eY3bf97AiWsHse7EIpTvSMWkFUPx4SxfxJfZIrbUCn0qnZCoKXVoJyxJWJ4dCBK/tHVDUhzCpTbwyzZEVJE9xtcNxuIDM3Dh9mm1PB49e4hf/ziP41ca8MPP67HuxBKsOjIXSw9WY8mPM7D80EysPDIHa4/XYevpNTjwy3acuXkctx5cVQv53uPfse/CFlTsTMenC6IQX2aDXgo7DKpxx+AaTnFQqg46whpR6wMGShdYJM1EFNjCN8sAAyv8ULUjtwWcPx7dQsPFHZi/X4GM+nH4fH4CEqt8mVQTUWSN8EILhBaYIVRqihBaBSYILTBlMSu8iOKUJaJZjLLHgEp3jJwTim+WDYFsyxTUH1+Ac781qvwx/nrxFLvOrUfS6hHoqbBBn0pHDK7xZPJMe2FJQvPsQKA0wVIXs6KLHBGUa4bIQnvU/FCIB0/vKTf8861GzNxViC8XDEDv0h4IlZozVwzON0NEoTViZPaIlzuiJyt5nJHQpGmp07P6MD2L07Z6K5zRq8wRcaV2iCq2RGSxOQvwYxbEQrEjFUcv71Hugd7sOreOszCFjV5gSUJzm0FpgqUSswodEJhjjkEVATh1/ahyc3vPbcWExcMQXkBuaMBiVXSRPSioK8U/NaehLqoDn2f1q3BFL4UDouSWiC+zw7+W9seGk0vw6vVLtq8HT+8gtX404hW27YbFQGkDKzTfBrEyZ/zy+zm2mYu3z+LbpSPgn22MgBwTRBd1UyqlvEoaJzgNSS1tVkn1l2cRPIIVXWKBrxYl4OClnWx/z148xddL+jA3JLVURSnVImZJQnJtQaDEwvLOMED51iy2iaOXG5jq4JNpgKiibkpJWSgrq4WlJ8tSTUqba0PuFLTGhsYlbJ87ztYjvswafPqgCyxJSI4ttIFFoDY1rmYbkK6fAsfk/wHFLBXxj9fe6VnsqNTfVSzrHcIaOMMd4TITfLMske3zlz/OoF+lCwZWu6nX4EVYFgdKC1he6V2x7Mc5bANX7lzEx7Ni4ZHeGUG5Fpphyd4tLD5m0bN3uRMiZGZIrPbE0St72T4brx9C7woHltHzVqWtG0qCCRK/RLihZ3oXlG7JYBugHy9ePceSAzUYVh0Bvyxj+GYZIkxqzaAJXZDyLbVu2M6YRWVNrzInRMut2Ek4tMYXZdun49bDa8o9bjuzBrGl1m13d1qxLElwtg20geWdbojkFWPYJh4/+1O5mVevX+GHsxuRvuZrDFD4IjDXDL6ZBvDPMUZwnjkipDYsIRUC0+Y0pLYYAYkv6YZoOdWKXJ0YU2KLYTMDkbF2LDadXI77T/5Q7omSW3ot+rEc0XILJShqh2lrWZIgAqUFLL9ME3w6pw/bQOPVw/hkdgK2nVqrPJLpfzx5/giHLu3B/H0KpK8Zhy/m98eQqiDEFzsjVGqJwDxTBOQYwz/HEIG5RgjKM0EQqwmpLuSSz2CpKYLyTRAiNUFYoTkrpKlvOGxmEMYvHgjpxm+x4vAsHLuyHzwQtikADRe34t9LB+LgpR/Yr+Rbk1iJQwIg3zPUFhYDpQ2swGwLDFQE4OXrl7j76HeE5FrDI60L/lkdgcrteTh++QCev3zG71n5pBrvxv0rOHH1IHacWYdVh2sxb28pKnfkQL45BQUbpkC6YRIKNk6GfPM0VO7IRu3eEqw8PAfbz9Szkufq3V/w7OVfys/k37x58xpnbx5nBfXYhQksISXV4crdi+yfTF39EVMgeKVUF1iSoCwbECgOlm2bbhicY43oAifcfngTb968wdCqUATmWLAk1CujK4JyLJBYEYiJSz9G5fZcbGpciTM3f8K9J3f479Wu58On93H+t5MM3rx9cmR+/xVG18agZ6kDk2jiSuxYBj9idjCevngMgvj5wngkKBwF8oz2liUJJFBawArJtUFAljkarx1hX/ir+YnwyzRWin9UVAfnWsI/ywTemQbwzTJCaL4VEkp7YHhNJMbXDcH01V+gaONUVO/Mx4L9FVh+aDbWHF2AtccXof7YQmZtVCDP3VOMsm1pyPp+PCYuG45Pa+MwqMoH8XKHpjrRlMWquBJ79Fa4KNv3BGvcov5sfxSzhsz0RZ8Kl7da99rBkgRmWaMlLM0BnmpDz7Su2Hqynm0kfc14eKUbqBf/mtpgkQX2CJfaIiTfktWIlMFTkPfPNmSqg3+OEYtZgbnGCMwzBj1JqqH3pGWFSs0QXmiJKJkt4kq6oVepE9TVhvysAwl+afWfs/1R4dxb4cREv5ZzDuJhSQIyCZR2sHpM74wFeyvYRmp2FsIjtQsiNCmlTbBa9A2FSanMCZGFdqw+jCqyU9aGfKkjbLCKqQ0jisxRsTOT7W/vhc1MgWC5lpo2mLgA7wkOlEZY6mMWgZKum8o2svboYmZhTPjTBKuAa7CqhVXshNB8S/Qt88TXdYPRv9wb4QVWrB4U1oXawCJJecXh2Wx/q47MYdKystzREZYkIMMazKq0gOWZZogJdSPYRg7+shs+GcYIy+cEQI2WpQEWxa9Rs+Nw7e4l9nk37l/Gx7NjECa11NGyXBAhs8TucxvZ51XuzOBAVbQ1btS6G0r8M6wYqNZhqcYsAjN8RgzbyOU7FxGWR9m9TbNKqsmy1LihX7YRtp/+nn3Wn389YM+dZ9bBI70jQqUWWsNKKKMmRjecvXWcfVbqd2MQVWylnM9SljtaWBYppQyUf5NViYXln2mOeJk7njx7BFIVe8u9QPlVWJ5AUhYJi0Dt/nkz+1IPnt5lT/qxsXElPqvthcBcE4Tkm7PyR0zM6lnqiIGVnrjz6Df2WV/V9UVsiS36CobZdIEl8Uu3AlmVOMviYlZQthWCsq1x6TanSX1UEw/fTNMmpVQELIEbBuWaMzX03mMuz3ry/DFLZnli20+vxfhFg5l1BeWZIrbYQaBncVN/wgAfW0xNjWi8fvMKf/51H4kzvFlexU7EdsBSASXOsmwRnG0Lz1QD7D+/g32fSUs+Yf/NS8qiLKsJVnQhycrmGDojBMkrP8OHM8Lw0axo1B+tU8nwD13ajbQ1Y5llUeoQVWTLgPHjRjysyCIrTFw2jO3rt4fXMbDKk+nwNC6pKyzq7DBQQqsSZ1k26D6tM1YcnMc2JNs4HXQSqop/IixLOW7kyJJSyq3C8q1ZmkBdneE14VhyoFpFk//1znmWqA6rCWE5VojUDHFyB+V8VliBGfI3fMsbJK7cuYCc9f9ChMyCZe/9Ktx0ckOJb5olCJQqLO4kbC1muSZ3QulmTulctL8G3VM6qVFKxcNSlzpQ2uCXZYAB5T6sy3P5j/NKAE9fPMG2098hacUo9CxxQlC+MaizE5hnhLl7i9m/o+Kcf205tYoN4FKg1wUWA+Wbrg5W66ehW0pnJC3j5JadZzbCI7UrqLxpKSuLgCWIWeqU0gjWsDBkamnqmrHYf2Eb//3Zk4rlhQ0V+HJhX/jldEX9sTr2+5m7pEhZ/Sn4Q+Lo5X1IUDiDTkbt3NAdHKg0S6iHpdmyPFINMWpmb7ahszcb4Z9pwQK8ellZS1hFggFcQQZPDVY6BYPzzDB6bhwW7Ffg+r1fVaBRJ/nmg6vsd9Syt0uWoF+5O879drIJXj4oc+fLHbGnocQn1RLkfpwLircsnzQz9Jb7sO7t/Sd3ESV1QUCmBaeWqlVKRcBSxiwOlHJaWQArttiJWVaY1IrpWT1LXDB15WhsPrlaaTk8uTuPb2PP+c0gyyJroteBizsQXmiucQ5eU+og8Um1gE8TKAZMrRu2tCy/DEuE5Njj5n1Ock1UhMIn3bQNWVl/sHhZOVrWjYl9JP4NqPBC4cYpeK5GsyJIlDIUbUpimTt3aaDpwgA1WttIHThQBEtgWerdUDVmBWRawTPVGMcu/8j+Ul/OGwz36QZt6lmiUgeRlsXD4rs7lJgOrPDBy9cvcPvhDYxd2Bdp342FYls65FumYVzdAMQU2711w0IcLIn3dILUtLSwLDoRXZM/wPrjKxmojDUT0H3aByzHaluDb92y1A3fanJDISwqeb5ZwuVQP105gIBcQ1D6QHMNJNVEyazZlZSWEk3bsBgoTbD81Lphs2U5J3XAzJ3cUUxPl+SOnP6erV510CbP0gVWYJ4J8tdPZH84UlZJfxeqDvycAzUqtIUl8ZpuAQKlCZZ6N+RilsvUTshYPYFtbN2x5eie3FkrWVmjG7YyfNuaZZEAOHePnO2H9HYS/vj6kM/gdYUl8Uoxh1pYImKWW3JXjK0dwjZ29NcGeKQaITDT+m+C5YiAXBNsOLGc7Ycsi2pDHlS7LKvSDRwoTbDaiFkeKUYYVBbGNnbj3hUEZ9vBL8NCKw2eqw81xCwtLCumiJv2o8k+elGsopEjTeKfdpblBoknQWKgNFiWANbbMcs7zRQRec548OQe6xgnyLxBvxNq8KxnqG3MYsO3TQO4ImFFFdojTuaEG/cuM1AjZ0UiotCmVT1LG1gSz2nm0AaWMGb5plnAO80MP9/kst6R1T3hnmKgQYPXMsBrCYvmshIr/fHi5XPcf3IHfcrcWWea60Zz08o6u2FFd0g8pplBBZYmN1QTs3zTreAy9QPsOsMJbxMXj4ZrcmcWp9Q3LN4drJA8C4yp5UoqmvoLL7BFrMyByTL6gMVAiYYlcEPeshwmd8DiBk7Il61Pg1NSR601+LcLaX7wljUsRFoWSTTJK7kifffPmxCYa8oG2vg8q72wJB7JZiBQLWBNFxezHCb/A7IN6Swu1O2rgdOUDq1q8KJjVotJ5dZjlk+WAcq2cvtYfmgOfLMNucm/FvejdXDDcldI3AlUO2A5TemEbxeNZqC2n1rPXFGc+CfCDbWARVN/y37kLFuxNQOkxWu+TK4dLKoLGahWYbURs1yndsHwqngG6tT14/CcbgLfdAvwbbDWxD+SlNsqd0S5YYED/LKNQS5Hr2krxyAg26SNm/fawZL0mGoKAqUTrDRLuE8zQnyBF2sI3Hn0O4Ky7OGdasY1K0R1d9oPK0Jqh9B8a1AQp9eY2j4IyjNXzpTqw7I4UGJgaYhZnilm8E+3wa3719nkSILMF05TOjZ3dtqApY+YRc0Jum9Iky40Oj2oPABh+VbNt+/f0rO0DfBUFzJQzKraActxckdsbuSGNrY01iMk2wHdJv0vqMTRyQ1zBQO4ggsDYYKYFZZvi4BsczabRXPv8/YqmDWdvXkCIXnWoMEQqgtbqw0JmNjTUOKWZAoCJRqWmpjlmtQFiWWRePr8KdssuWDt7nJ8WBEDr+kmcJzyD7gkdYJ7iiHL3H3TzUF6FuVaqiNHqh1pkpVpvpRmsgKzLUHTfp5pBnBP7cwgfVgVDvmmNGXCC7zBN4uHwz/bROUyuT5gSdySTNBuWGmWIKsaVdMXp6+fYLD4H6ev/4SF+6oxZennGFYZg7hCDwRn28Mr1Rhu07owxYE6OiTR0KL3pGv1SOnMGhbe6cYMVk+ZB0bWxCFl5ZdY1FCNk9eOgG5c8S+qNScv+wQ+mYZqL5O3F1YzKG0t662Y5ZtqCafJneA13RzJy75Ew/ldKh1f/gtRJ/ja3cv46coh7Dq7GWuPLsXShjmYv6cStbsVmLenAov2z8Saw3XYdup7HL60j92SePQXN7jKfw49acD2pysHUbI5DfGy7vDOMGz1fnR7YEm6TyGLarKq9sBqUkk9U0zhMKkDuk/tin7yIKSvmoDVh+pw8uox3H3cPLEr/MJi3tPM6LW7v6Lhwk7U7a9G6qpxGFoZxmYeaIY0ONcKdGdH3SUnYc9QV1gMlBBWu9yQl5RTLeGdagG3ZEMGzXFyB3ikmCA81xkDy0Lx+ZxEJC39AgXrUlC1rYDFM2qiLm6Yhbp91Zi7W4GKrfnI/z4Jk5d+is9m90P/Un82BOKdZsS60jT1559phtA82+YpGpHlji6wlKDeBSxhd8cnjUoiU/SYZsgKZ1JHnZM6wimpA1v03mWqYCV3bIpVXeGZZgS/DDMEZlupbbKKSkq1bFi8fRpKXCcbgyDxS59uSJ0dIay39SxW6mibZwlTh1zBFTpB6sDdYm29NiSr0sayGKj3ERZLG5qmlVskpUJYGvIs/sqvfmKWMyQuk41BoDTB0jpmCU9DQczSxbJEwxJYVks31E+Al7hMMoZeYKVoUEr/n8CSOE8yghhYPdpIHXiVVK2s/DfAEpY7+nDDZlAiLOs/ApYgZunTDSXOE43AWZU4y2orZr1vlqUvWBInAqWEZSzKDf8bYTFQqrDEWdZ/mxtKnL41BIFShSXOslRgJXNKKdPfmzT498IN9RSzJI4ESg0scaehHiQa/kQUtML0ksFruFDeMmaJy+D/D0n8uOPgQ7VVAAAAAElFTkSuQmCC;" vertex="1" parent="1">
          <mxGeometry x="860" y="-420" width="49.33" height="50" as="geometry" />
        </mxCell>
        <mxCell id="l0EMNmxLnOdooNni136J-183" value="" style="endArrow=classic;html=1;entryX=0;entryY=0;entryDx=0;entryDy=0;" edge="1" parent="1" target="l0EMNmxLnOdooNni136J-179">
          <mxGeometry width="50" height="50" relative="1" as="geometry">
            <mxPoint x="332.5" y="-390" as="sourcePoint" />
            <mxPoint x="382.5" y="-440" as="targetPoint" />
            <Array as="points">
              <mxPoint x="333" y="-420" />
            </Array>
          </mxGeometry>
        </mxCell>
        <mxCell id="l0EMNmxLnOdooNni136J-185" value="" style="endArrow=classic;html=1;exitX=0.611;exitY=-0.033;exitDx=0;exitDy=0;exitPerimeter=0;" edge="1" parent="1" source="l0EMNmxLnOdooNni136J-179" target="toNbNgcDX6MXMbGnY5Hs-35">
          <mxGeometry width="50" height="50" relative="1" as="geometry">
            <mxPoint x="890" y="-430" as="sourcePoint" />
            <mxPoint x="-98" y="-447" as="targetPoint" />
            <Array as="points">
              <mxPoint x="890" y="-480" />
              <mxPoint x="400" y="-480" />
              <mxPoint x="-90" y="-480" />
            </Array>
          </mxGeometry>
        </mxCell>
        <mxCell id="l0EMNmxLnOdooNni136J-189" value="" style="endArrow=none;dashed=1;html=1;dashPattern=1 3;strokeWidth=2;entryX=-0.023;entryY=0.671;entryDx=0;entryDy=0;entryPerimeter=0;" edge="1" parent="1" target="toNbNgcDX6MXMbGnY5Hs-22">
          <mxGeometry width="50" height="50" relative="1" as="geometry">
            <mxPoint x="-160" y="-386" as="sourcePoint" />
            <mxPoint x="-110" y="-430" as="targetPoint" />
          </mxGeometry>
        </mxCell>
        <mxCell id="l0EMNmxLnOdooNni136J-190" value="" style="shape=image;html=1;verticalAlign=top;verticalLabelPosition=bottom;labelBackgroundColor=#ffffff;imageAspect=0;aspect=fixed;image=https://cdn4.iconfinder.com/data/icons/ionicons/512/icon-ios7-plus-empty-128.png" vertex="1" parent="1">
          <mxGeometry x="-98.81" y="-370" width="17.63" height="17.63" as="geometry" />
        </mxCell>
        <mxCell id="l0EMNmxLnOdooNni136J-191" value="" style="shape=image;html=1;verticalAlign=top;verticalLabelPosition=bottom;labelBackgroundColor=#ffffff;imageAspect=0;aspect=fixed;image=https://cdn4.iconfinder.com/data/icons/ionicons/512/icon-ios7-plus-empty-128.png" vertex="1" parent="1">
          <mxGeometry x="-98.81" y="-300" width="17.63" height="17.63" as="geometry" />
        </mxCell>
        <mxCell id="l0EMNmxLnOdooNni136J-193" value="EMR" style="shape=image;verticalLabelPosition=bottom;labelBackgroundColor=#ffffff;verticalAlign=top;aspect=fixed;imageAspect=0;image=data:image/png,iVBORw0KGgoAAAANSUhEUgAAAEsAAABLCAYAAAA4TnrqAAAVBUlEQVR4Ae2ch1dU1xbG7x/0XmJDepMWBcUaE2OiItJ7h6FjjC1RY4kiGkuMJjEx9o4F6XUKzMDM0GeG3myAwPfWPocZiggDATRvedc6wArFub/Z5zt7f3vfCNHOUkS7yBDDVjliP6NVwVbc8grELZdDxJYCohUKxLNViXjXSiS4VrGV6FaFRDclkthSIWmlCslsqZG8So2UVdVspbrXQL/S3GuRtroWO1fX8bWmDt+uqWdr15oG7FpLqxHf0VrXiN3rNHyt12DPei1be9frsHcDrSbso/V5E/Z/3szXxhZ8P7x+2NiKH76g1YYDtL5sx0HD6sChTbQ68SOtr2h14TCtzd1sHdncjSNf90BgsD4CMwJYD4QoAqVf/6oI49FFUTYfEUbRJUQ5S/DvBTa/W1KIdCJYH4EZo2FCpJMYH4EZJ/rDsP4fgM29hgkRjgRKvz5uycnSCiHCsQwfgRmXhwnhDNZHYMYkrkK4Yyn+P4HNsoZt6oAQ7lAKtj6gCEtyVSPOUY0YezVi7dWId6Jy6f2XRkKYAdaHEWExDkqkuFfjrEiLOxntuJ3ehjOxOqSurEW8czV2rnl/taQQ5lACAzAC9x4jLNquCqejNdCp+zD+alT0Ij1UC5Hj+wMmhC4jWKOAvScNi7avxOmYRgwOcky66j48/a0TT3/vRHMdh9f3egjpIVoeYdN2K/65hgmhy4rxFrB5jrD45bT1VOhs6mekcq50QuSiQqRNFSJtlEj4TI2CG93se001fUhZWfNeNGwY1gTA5jHCIu0UuPitjsHQKHsR51QFkYsSySvJC1Mj/jMVEper0VzLI+ycSMdEf779MCHEnkDp17gtOU8RFm4lx+NL7QzWw/PtCLdSvGUgRtkokXW5k/3MvVPt7KScbwNRCLEvwqTA5iHCwqzkePKbHlYbwi0VSHIb67jSlsz6g8O6f5pgqZjrOnNg09WwVgjBDNYUwOY4wsJtKvD7Hi2Lmsaq14hxrESccxWLLrKoRc5KthX12/CXJB3Lw+bbohaC7QthFLA5jLBYZwVS1lShtYFrUvZfHQwWbccIq0rEf6ZE/vUuBrNN049U92okuVYb/HyCNj7CUlfWIdG5FvGOtUhwrkOqWz3z9f+Jpy8E2xEsI4HNUYSJlisQYlEO6dMeBoQ+0Kn39I8OZF3uQIs+dXg1iFNRGsRS4jpRE2R1LVLdayFyqMGejfX4NbkZN4604/KeVhz21CLRuQ5pqxqwe93MmiBCEMGaDrBZjjDqFoVYluO33RoGqu/VINoa305K6Zsvewaw+8saiJxVE3aNKKUQOVXj2uFWdLW8MYCnL/p7h1BwrQe71jUg1a2BdYzGdo2m1jAhyK4A0wY2WxG2Qo4I23Ls/UaF1y8G2M39dUCHGGcFLqRq8OB8Gx6cbUNGVAOkT5+z7+ff6GL5F6UV49tssQ5qPDzXYYBEiW3ZwxdQl742/Dd1yWvsdK/HTveGabbZmiEE2RKsGQB7V4Q5ShBqW4ZAizIEmJYi0KwMgeZiBJqJEWwpQcQymaE3Ge1UjiiHctTIXrKbkWb1IMK2AjFOCkTYykGnJKUVIWYVOORVi8GBIQy8GcIhrzrEOfI8TA9M5KRCeiiPzqEh4MbRNiQur0HcsmrEO9YgI0xniLbMc11IcKqbdl9SCLTNR+BMgY2KsHCHMgSYlyDIshQ7v5TjbEot7vzchKeXW9m6faoJZ5LqsPOLSoRYSxBqLUWgmQSZF1sZqM6WfqSsrUKUg3zCRm64tRyFd7jISx73INKuckwjN8ZeieK7XPPyrnUjwlKJFLca1shNc69DtE01fklsZv8WbdHv1jew6JpOI3cYVj5mGmERjqUItCpBgEUxTkSpIcvuZu++Ie7HfdH/ehDiJ1046K3Cyahaw3czYuoQYiljoCbqfEc7KPD91hr09w0BQ8Dx4AbEOFQxYEluaiSuUEOn7mV/LyNcY0gt9KckuRbU/dZr2XF/LVJWUHS9q/P9toYJATZ54NE1/Qgj49B3aRES10ohfsITRnq1va8GUZ7bjfvnm3HlRw2uHNHg4a8tqCx6PgZk32teNd8724JgC+mUowK0JbOvcE2qLHwBKr4TXFWIdVQiwqYKjVUc1vHgRoic1IbUgoClruKrXcOFPz1Ih6TldZjOqACDNRqYsRFGToWPSQH2ecrR0cxPrxfdA7h6TIPEtTIEWJTAb2kJ/E1LDSvYSoydX8hx90wz+ns5KPq830OFIHMJRCsmn62IcVRg9yY1Xj/nh8GpqAZEWCmYht041oKedg7i/pl2hFtUIXUVn61Ic69hJuLxIA2GBoFXPYPY+2UDUldOZ7ZCBwOs0cCm1DCHYviaFuDbr2V42c1foLygm0WY1+IiBNuUTtgEiXSSIsxWDD+TUnz3dSXqyrmwtzb2MS0Lt5XhXcMocS4KRNrL4fOJDPfPtrHtRr9XLeZ/w7CfAbx+wfOxSCslou3IvVBh98Y6NMh55BXe7IHIsYZty+kMowj+NrkgUPql35KTRVigdSHzwHS1/Egue9KJQKtiBJgXw1hPP9hSzKZ3VKUv2H3Wlr9ElGM56ITUA4txqkC4TTlCrcqR4KbA8dA6ZF5oQ1MNv2k9oBedA5A+ec6cC/EjLvJ0apLgXz/SiieXOtHTxt/UzqY32LupHsmuwza10dM7Wgj+1rl4F7B3RdiORXm4f4FbKo3KlwixL0GAZREHRSfk8ClJJ6SvSTH8lhazSIsaPSrgIkWItRjx7hVo1/FtfDO9Cf4mYoRYShFqJUXSagVOx9Uj91oH2rRjE1VKUOmi8ufbDWpE2ioQZCLHge21Y3RRD5Q+10pf46BHAzMP09ZM39MX/KxzMBmw8RHmZ1GAhHVlTHMon/nBTw7vJQXDbuuI4xpqX4qYFRLcOqXFrVM6xLpKEO4wrvPtIoW/aRl+Tqhj9/SiawD7tilxLqkexfe70NPBo0F/w1pVLzJ/bcOxoFrs2awGRRS9hvPJGkTYKBBpo0DeNZ5eVItf4daJVhTd6Ub2n134JVnH6sl4FzXSVr9dS5K3P9WWZLCmAjY6wrYvzMXfP9Wz1y991gmvJfmjLJ4RPyzYpgQJa6T6+0TSWhlC7cqGu98jne9IRylCbSSoreDaQ4mn/iIQtE1vHG/CQS81Yp3lCLUsR6RdBYLNynE7o4X9KG1LiqwfhqOKfu9YQD2ClyoQbU+6pUSsgwrJbpMX31MBE/ysckCwpgJGEUbQfM3yoCrjunAqQQXakiEG83DEcQ2yKUG8uwSUHtCJl7hGihBbPayxEUYn5l+HePb9pn8Ikqfd+H2fBrs3VyHcTsbSigj7csS60BQin0AkcEmrqgx506VdWuRd5+lLWWYPIm0r3zIQJyy+pzGBKPhaZcNYYH4W+Yh2LcarFwOs9EjcIAZtS2YgLitmEea1OB87FhXA45N8hNiVgApjAkYdJM9PC+Gz5G0NC7YW44C3kkVJc10vi7QAUzEi7Gl8k49t6kXfMLLpqmBRdvVIE/s9OgEH+odAsA/uqEWMQ+VbBqK+NCJoei9sIntnoggja4fBImAM2hQR5m2ai7SvJOzFUW4V5liEQOsC5ocF2RQiwqUE10404vYZ0iktHvzaxMR28M0QHl5sxu3TOtw9q8ONk9oxGhZuL0bSugr09Q6yhDZ5nRwRy6TDoN4940rRFe+qQFPtyOmY/XcHIqzlczLjKvhYPWOgjIkwr6W52O3BdUhX84q5FRxWIfwtCyFyL2MgjfmQvK7csC0JlmilDC+63mBocAg7v1Ag3J5g6SNrYmBk7wSZyXDjOK/5SO8OeNYgyl6BWR8KXtsAwcfyGYwF5rU0B2mbxTyymvoQ6liIAIosu0IE2hQgwqUY19MbceesFrd/1uLhxeHIGhhC5qVm3PlZh3vndLiZoUXsCgnClnENI+FPWlvOtitFV8q6CoTbS6acoo51qUC0QwWqJSOJ6d3TrcytoEnq2QYm+FhmwVhgPua5iHQtYt4TvYsJ60rha55n8MPIF/NclAfPhXnY+p9cBNsWGTQr1L6E6Zj34kL4mBQhzIEmd/j0TpBVKb73qmRvAmlWoCW3dyKWTQ6MCu8LOxvZ7+mbs5R/fbtRhVgnBR87Z9BmZ+xc8Gaw3gY2kYb5W+XC2zQHagk/DU/GV8FjYc6EfliAVSFiV5UZokXkLkaQTfHIqMAoP8zHpBh/HuQ3/frlIJ793Yb06BrEu8kQaE7emPgtDYt2qgAt3XA2f/1YE2TP+Ot68ns7AkxkIFsnwkbONCx6WSUSXZWGJsh05/QpBxO8LbLwLmATnZJbP83CtXSeZ0myOuCxMJttwfEGor9VIeJWlRrkK361GIHWBGskcaVMn7ZioGUJamS87DH8AoDutn4U3unAuZQ6kOhTiUQFNxmIQWYSll7Qz3c09TPH9adgbvn0vhzE2cRG0JbMu9bJ3NaTkQ2IdapiDVwCNZMHGwQvi6eYDrAdS7ORsKGEHdGU/O33ljFgHNaI46rXsJunNLh1SoOo5aVsW44eFSAvjLZlhqiaMepp78eRICWun9C+BY9SA/GTbvy2pxGpnyvYSdmm4SXQH/s1CLaQIdRKhrJM3uYfDV3/dUXuc+zaqEasIzcOpwuMwZouMIquR5d5bdhQ9RIB1vmgtGI8ML2GUeIabFc0pvMd7lgCf/MixLiKDXXf9RMabP9vIaslKYHd/Y2CbU95fg97c/Q3TXmbVs2L+Jb6XlaAB5hIGDDxYw6LCumCW524ergJtC3JPqJLq+5FsrsK8S5V087DBC/zJyBYUwEbrWFeptkIdcpHm5bnNyWP2kHiv8Mkx2jH1WdpIcKWlaCqhOtMnfwlqJ4Ms+f2Ds25BluXwn9pCYKtypC2UY6L3zWgNLMLzztHakYSdjoNrx3VgQpxul52D+BoYA1LK6g8otJo1xcqBoq+T6MCEbbU9SbhN3JLrq6FsINgGQlMr2H+NjnYtiALu7aJ0fuKv2Pygi7Euhdjy3+fwccsbxja2DYbRRdl/NsX5CH1SylqyrlOdTT1IXUjGYbFCHcaOSUNU9SOEoTZiRFgXgbP/xQj81deE1K0EJjx19WjOgQskRhKI9ZusyjHiTBesHe19CN5lRI0vWMsMDIQGSwOjEfXVBGmB+Znk4Mtn2Rhv68Uzzv5qNDLnje4crQOsauK4bUkFx4LcrB9Ia1ctnxM85G0QYxbpzXslKSbfNM3iL3bK+C1uACkYZP5YdQ1SllfYQCUEVMDkVs5Lu5qYPWkvgj/3lMFqiUNpdEKBasrE9wqDW7qDx41iHWqnFamL3iaPwbBmkmEUfFN+hW/vhjl+aM9+AGU53bi7nkNLv9Yi8s/1jH/S1HUPUZ79Dd3M0PDYE01gehnUoInl3lUkZ9PNnWYnRRUR4bZSEHOKV3UDOGu68jjfzGs8K4E2UB07d9azYR+Oomr4Gn2GDMBptcw2pKei5+BTsmT8ZWoKnn3aUQvkk7QirwuHAyQI0OkYi+cPhwLU8LbpGDEQByVh+n1a+cmucG7PxyoQpBlGaJd+POSlFZIs/i//fBCC3wXiRHjwj39uM/kCDCR4nwKz+UIavyKSoiW82cmjQUmeJo9wkyBGbakdQ58LbmOeZlSSVSG87tUeHBRi7xbLci92YL7F7Q4u1ON1E0S+JrlY8cSnuk//ZPXdVSYx7iWMcd1oggjxzXvBvfexU+7EGBeiiinkcf/gq0koG1JF52El3Y3IsxWhmByXa1l+CmkBt3D1vKt9GaEWVdM+wFTYTuDNRGwaWrYsOPqZ5XLomzbgmfY9ukzbF+UzRbpl+eiHPhQeWTLh1Eoy6eSiKxpusoed4BOScr0fU0L4b2ELJ1CeC4oxO4tcu5gDAxh3/ZKFlXjn2ajbZn1JwdKf69e8QqFdzqhLB5JeKmFRr4YNUAouox9IpcmEIXtpo/wbmDGpRWjI2wyi3q046ofRvE2ycN3W2WG7XVpXx2LrpNxKlZw30jX4FBAFUofcU3Mv9XO8rCJnmaLdJAi1FaCm+k6wyHA3gU6SPqHkH21A6IVclZ8i1yn/wiz4GGaidkAptcwYxzX8aXR9gW5+OMAP9YpFWmqGxnk0N8sfaY0IWm9jOVfhrRidBPEWQqyqamWTNugwC9pDbh+XIdLexqxd4uSbUeqJwmY3nE1/plvNRis2QI20wijbbljcR5kOSMnqrb6FTIvNeHJ5Wa0Dye/1KPc4yFHoEXJhH3J0U/khi+TGmpJNpBiTwMpJPiTN3Ine0he8Fj6EARramAz07B3tdlGd40CrAoQ5lQMAkTXo9+bQHrmuTAfngsLWKZf/IC37SnTD7HjBfi8Ps22UgVhG8EyGtjcaJjnolycTVUzUHXyF/A1K2DOq36K2s+c9yT1/cXDQVUs29f7Ye/akrP9v2FgsOYC2HQ0jDyxhxd5YX79ZAM8FuTyJsiosXNqgmRf5eNJfx5qYAbifD86I2xd+gAEay6AGathlFZk/sZhXTvRAI9Pc4ZhjUxR71iUj6wrPHv/63ADSyn0ne/5iTAlhK0mDzAzYLOnYWQgnt/Ft2G19Dm8TPLgb8m7RtRm8zOndlsxWhu5y3E0rAp+ZkXDYwLz93CWsNXkPmYObHY0zNciD5HLi/C8i1svd89pWZZPEUdbktpsOTf4FqSuEs1WhNiNsqhHTSDOpegLWxisuQc2qYbZ5rEs/1Qib7SS0pOpeO8XLR5e0qG5nuddVMYc9FewcSfywsZY1ONqydkW/QTXSghbltzDfAGbSsOoNMpIUBqG49jxOPyBxpt+DFaw2Qr9KTnaomb6NccRJnxDsGYF2OxoGAGjLXkmVYV757W4e06DkyIl6357mdAQyojoT/j43xxGGIM1e8BmQcNs80AaRtA8FtDKwY4luaDE9X0/CSJ8s+QuCNZ8A5tUw/7BULDB3pntCFuhgPD1YoL1foBNpWH6kc2J3AqjHs6aZQ0Tvl58B3MDbHY0TA9sdC2pt3eMAjaLESZsZrDmCtgsaNhsbMlZijBh86I7+BCAGath7zPChM2LbuNDAfaha5jwFYM1H8D+/RomfLXwFuYP2L9bw4RNBOsDBPYhahiD9aEC+9A0TNi04CY2LaQ1RYSx5HWyTJ+biGMt6swJ2myjxgXGTe/wobpnbGyTIotF1wRz+v4TPGs0krjyGVeei1EdydfbxXcJ98MmSytY52ikkfs/qg5NA6F6BX8AAAAASUVORK5CYII=;" vertex="1" parent="1">
          <mxGeometry x="950" y="-418.23" width="48.63" height="48.63" as="geometry" />
        </mxCell>
        <mxCell id="l0EMNmxLnOdooNni136J-194" value="Redshift&#xa;" style="shape=image;verticalLabelPosition=bottom;labelBackgroundColor=#ffffff;verticalAlign=top;aspect=fixed;imageAspect=0;image=data:image/png,iVBORw0KGgoAAAANSUhEUgAAAEsAAABLCAYAAAA4TnrqAAASxklEQVR4Ae2c+VeT19bHn//k7VrvL/e+yyqIIPMs4KxVa+sAoszzDIIConjV1qnS2761zoraWr3X1gGRGZkJICSQkXmexXn63rXPk8QEAgR4tPYus9YmrCxWQj75nu/ZZ+/9hIt3bwBFAgsxdnpQSFgkLpUgcWkjklg0IWlZE3axkGL3cgoZi+QVMiSvkCOFhQIpKxVIZaFE6iol9qxSsUhb3QxN7F3dgr1rWrBvTSsfa1uRvraNxf617dj/BUUH/kGxrgMH1nXysb4TB9d3sTi0vhuHNlD04BuKL3vw7Ze9fGzsw2F1HNnYjyNfUQzgKMXXgzimjSEc30QxjO8oNlOM4ATFllEWGVtGkbH1Ebh4t3oG6xOw6YA9AhdHsP6SwHh1kco+hMJIXVyc20P8dYF92CXJxS4hWJ+AGeNhXOySOnwCZpzpq2H9NwB7/x7GxbgSKE18WpJTpRVcjGstPgEzLg/johmsT8CMSVy5aNca/HcCE9jDNg2Bi3apAYsPpTB2RJJj11IZktzkSHCRId5JhnhHGeIc5Yh3kCPOQY54RwUSnBTY6axEkqsKu9xUSF3WgrSV/BHpzzgacVFaWO9XYYnuTYh1bEK0XSPinZuQulqBw9uacTK6HZl7u3HzRB+yTg0g58Ig8i4NIffCEO6dHsTvGf24mt6L03HdOO7Tgf3r2pDs3owkl2Yku7dg78pWfKizJBflIoIWGIETVGGNiHGSIMpWjNTVMvwc34acCwOQVjzGcM9LvH2Lmd3eAiO9ryCveoqCzBFc2NWLgxvbscu1Bakere/98M1FORMsHWACeVissxhRdg3ICG5G6c0hjPS9mgBmbOgV2pueobH0MaqzRvHgxjAKrg4h//IQCq8Oo+TGCKqzHqGp7Ak6pM8xNvR6wnOM9r9C1e0x/BzVjWS3VuxZ3saqFBOrFXP3MC7SuRoTgM1FYUsliLStR/pXMoiyR/TeXJfiGYp+HcKltE4c9WlG2lo5Et2kiHeWIs5RilgHddhLEedAPiZHgrMCia4KJC9TYf+GFmT4d7BlWXJ9BN3KF3rPX5//BMe9O5Hs3joJsLmdJRksg8BmozAPMSLt6nEsQImR/pfsjbx6+RYPbgziRFAzEtwaEWkjRrS9BPGujUh0lzKjT17O18P4mpjheljqShVSlquw20OFRBcldjopkbqiBT9FdKH85iPQ69BtbPA1fo7sQYpHK18LE7AexkU4VYNgGQQ2Q4XFutQjeXUjhnt5UHLRYxz0lCPcqh4xDmIkujcKWkBMW9WC3e4q7HRS4YRvB1S1zxiw0f7X+GZTB/auahO0gMhFOFVhSmAzUFioVR2uHelk/3CL+Anil/BK+xAV111LmrFnZQvaJM/Z69/65yB2uU5l+jP1sH5w4QzWNMCMVFjI4lpkX+xj/2zelX74LagBgaIy9fsGtm9tC6ItlSj+dZS9ftGvo0hybhE0reDCnSphFDAjFBa8uAbZ53vZP0s73XfBSgSb1yHOla/rvy9g5GVxdkqcjOzC42F+xyy8OooklxZBa/pcuCPBMhLYNAojWPfUsIjYqxdvcfOHbiStkCDM6iGi7BuQ4CYWpAmSslzJdknK9NPXteDuyUH2euyTAlB4ZQSJzs1GNkGMW5JcGMGaCbApFBa8WKSF9WjwXV5Fhp9zqQ8nQlRIWiZhO2a4dQPLw2Id+Z1xpxvtjk1I9GhCkoeUxS4PGZI8ZEh0k2GniwxxTjKWXiQ4yZG2RomfIjtYPqabw2lyMQbLSYV9RneNpgfGhTlWYMbAJlFYkAXB6mEf7t0zPcgIU4KMXvc22PUCtXkjuHuqF+dT25ERrMLBLQqkrZchZbUUu1fwkbJShj1r5EjfoMA3Xs34IawNmWlduHd2APUFYxjq5ndczXO3Nz7Hqdgu5JwfYg9pYVGrTRBgveDCHAjWLIAZUBjByjrHw6LluP3/qhDj/BA/RKnw4MYA+tr5nUrzBjX3b9+8xdOx1xjpe4mBzhfob3/B7kkx9PibN5q/1L8f6HiJ8j9GcCahC8nLlAgzkyHv0jD7o4IrIyylmHlfcnKFcaEO5QidLbBxCgu0qNbCyr7QC/KwWNd6hNvWgdKKBI8GHPFV4MrBDhReG0Bj2Ri6lM8wNvwKr9VJpT4OsMfJtLtVz9mZ8sH1Yfz2bQ8ygtqQukqBOEdaonKkrlCxikV+pgbWMEtcZ9fINQxMDascQigswHwcLAvRuzabWz1il9QjyuEhwqz5iLKvR4KbBClrmpD+tQzfeitwzE+F4wEqHPdX4fB2FQ5sUiBtHV/SoWpFjH0TYu2bEO8oRaI7dcGp+813vqm8k5/JL8OCK8NIcFRi9p3vicC4EPsy8Oqau8ICFlVplXXvQi+CzAnW5G22BHcx2x0ptYhzEYMO37FOFBLEOksQ79KIhCVNzPh3LeXHBTRnyX3rlUhfr2T1sF3ucuxZpWR1MH1YCjYuIBQwBksX2FwUxsPqZisp+0IPAs1FwrXZVkiR4NqE/RuVEGWPYmz4Ncupau4/woGvVayQSIfvPI2yLg+zAuLcZys0CuuGFpYusNl6mP+iKtw9x8OiXTHQvFrdOZp714jSit0rZOiQTdwkOhXPWTEx2kbKCof0aeVfHmZK08Ci+7kqjAu2LwWB0oRmSc5GYf5mlXqwyMOEarNF20nwyyH+g+htfYGjO5pZ9LbwZRoy/WDTRuRdGmTKppoYladpgkcoYFywXSkmAzZThfkRrLPvlEXLUqg2W4S1GHmXBxiI3EsD8J/XwCLnIv8YFQ2D5ksMwhIKGBdkV4KpgM1EYX5mFVpYWed7wMMSps0WZSfGL4e6GKyeludspzzsrUJPM78sr5GyTPRhxdrLBJ0PY7CmA2aswnhY/Bu6d74b/osqBavp73STYPfyJlaGJmJv3rwr4JNnpayUI9K6Ebk6y5DBUqcVQgzUcUG2JSBY0wEzRmG+C8tx5ywPK4tgmREsgZogyxoRbS/GkR1K7YH58ehrtjPu/0qBBBcp6xxpYNGuGGsvFW4CcV0HuEDbBzAW2HQKGw+LPMxQX5J8LNS6hmX4IZY1CLOpRdyS6ScQI2wbcPkfHWwptjU9RfJKKWIc+FyMRjWjbUlZvIflZw4ixl4q2MgmNUAYLALGoM1RYT66yjrXDVqW2jabWmHRzrUItRbh/+OUKPytH0W/9eOneBXC7WrZ0WjSGVd3CWIcG9Bczx/Mrx/tRphlA5KW0pwrP+MaZdsIjeHnESy7JpbhCzXjygXYFjNQQijMx7QMd86ol+G5LjUsnTabSw1CrN9VJphE1D+yL/ayM6QhhUU51sPfpBZHfBTsr5+OvcHe9TLW9NAdCo6ylSBXvTsSrGgGiz8SzRnYF+3gAmyKMRtghjyMh8XX4LPOdYGWpW6bLcSqGseDZewNv371lpVzKHnVHKKPBcoQYCZCrMtDfs7VrQERtnU46q/AjeNdoAYI3YquDYDqYeOnqCNtJHrKou63kFPUXIBNEWYLbLyH7TAtxe0zPKy7ali6XSPysDuneeUV3eiH19/K4fW3CrYUCUJV9hD2fS1BvEc9Qq1q4W8qwo0TnXo7H/1d9vk+hFvXT6i4UptNswxzMwdBy1LIsXPOn8GaCGw2HrbDRB+Wz8IyvTYbedjNH3mDFuUOw3dhJfxMqyDK4csqTDYAq2VV3x8GlXmgzhAq7g6h4s4QA/fm9Vt8F6hEjFODHrAIBqufPU1e5gCDRbP6QgCjQRTO37oIkwGb6S653aRET1m0LHXbbCE2VUjfKsbzp3w1T1I+CkkZ342hZSkuGdX2HDXg6J4g+S0QsW5RxW2+BJN1phdhVqSudxc2RFg34P5FHhbtiuRhQl7YwPlZF0IIYORh+rA6sYPB0m+z+S6swPUT7bosWDX0fFoL/BZWIWHZQxz2kyJzfxuUdbxHld8egu98EYvyW2pYZwnWQ702G8HKufAOFnmYkFeCMFhCAfNeQMril9ndswSrdEKbjZZi4W98u0xcOoJTSUqkbWxAsGU1YlxqEelUizDbGvjMr8IBzyYtVAKmAUUPHgtQgHZJ3UtnyPTv68ESa9MKIRTG+VkVgGBNB8wYD/Ne8AC3TvOw7hAsE4JVCep6h9lXwse0HEmra/Hi2Rs2brTfUwzveeUIs6s2mOmHWNfgxnedeKtTg6cxpX9/34UI24eg4qHutUZk+hpYOZcGQB4m2LVGa1rA+RIsI4FN52HjYdGyJFj+FmWIdKnCvi31KFCrqq5wGIGLK9WphXr6cFxNn8/0RTjiJ8Otk9249XM3jgbIEW5Thzi3iRdnkYfdv8B3xHMv9YOWpW4eNpcluXd1Mw+LB8arazqFTQVs2/xiPWURLD/zMnzrL0aHQr8ldvVwK3aYlKtnw3QSVwNnyXC7GlDniPqSEfZ1k15rRB6WrYaVo4G1VLir2Tgfq3wQLCEUtm1+EW6d5s37ztkObP17MRJWiTA2wjdc+zqeo7eNn3QZ7n2B3V/UIdS2Si9xNXSWNLaASLA0yiJYhhJXzdFoNh7G+VjmYzbADHmY1zhYGz4rwC9HW5hJN1aOIsS2AsG2FWis4NOFa8fb4GdWbnjcyYDCprt0JtRSR1kXCdbExHUuHsb5WOZhtsDGL0mv+YX4Q62s22c7sOF/8rW7472LXfjys0Js/KwIWRc0ZZwuUC4m1HxYqGUdy+7p06F8a3weRofuuXgYt4PBMgRs5h7m9Xkh/jjFL0NKITb+bz6+j+G3f1qKp1MVOJ2iYE1VekM/xsngb16ul7jqniX5kXPj62EhlrXaKZ6ci30T8rDxZ8mZLElqtXE7FudhcmDGpRUahXmOg+X1eRH8F5egIotPFNl6VP+oyh5AkHU5whwpadVPXCcAG7dLTuZhNB+mmeK5f7GPdcF187C5XsLMbV+cCyGAkYd5fl6AP061MRy3z7SDDD/QuhSBNqW4eqQZjRUjLMjHQuwqmIcZPe5khIeF6MyHMViWdXp5mO7RaOZLUgkGSyhgW+fpwyIPC3EoQ5BtKbabPoCfRQmLHQtLEGJXjjCaC5vJuNM0CtOdD9PAGp+4zgUYt90iBwRremDTe9jWeflaZZHRk4fpttmC7ag/SWMCwsxWjG+zBetM8RAs8jDBvlVgpQKcN8EyGtjUHrZlXj5uneUNnmBt+ns+QuyF60tqS9SGFOZWB/+F7wZTcjP7QB4m5LcKMFhCASNYvxxTMc9qlz9GiEMJti0oFKwvOdWVIMGWIsS61aFD/pS9/u8/doE8bNKa/iyGgrltFvdBsIQA5mNeiOilZXg0zE/lqeofYc/mGmb8202LEWhToh0TEGK2ItKpBsFW1ayZe8CrEap6vqTzeOQVUteLEeU4+dFo5rukHNw28/uYHTADHmZbBM8F+TjoV4fHo/wRh5qhxb/34JD/Q9Zyoyzf26QYvuYP2E5JPhZKPmZfoZ0RY6bPjL8KEerUItyxGmH2VQi2qkKAeQVr4EY6iXAsSIqS3wdA1VO6PXn0GhnhcoRa1SDOffJxJ91qhbGmz20zz8bsgRnwMNtieH6ej8R1lagt5Ic02LsA0KV6gvxr3TiVIkO6Zx1iPCoRZFsG30Ul8DErwQ7TEmynMKHfS+FrVgp/i3IEWNCGUIWEFbU44C3G2VQVCq/3oVvFnzM1z19fPIL0zRJolqTQ3yrAeTFYQgMrgvfCAmwzLcA3gQ9ReqcXY+qlqXljvApeoU36GOLyYVTnDqLgeg/oWERHJbovvN4LUe4gqPzcJn2CJ2q16j4HLbnKe4PICJexNluojQgx2gvkhf1WAc5r0T28F2A2RfC3LoaXSQE85xcgyqMM38dKkH25E/LaUTwa0p821gUw1e8EXVE3hryrPTiZqEDSqjoEWFQi2JKqFzXgL5AXZhhlfOLKeRIsQYAZ8DBNm82mGL6Li+G1oICZvY9FMSLdypG2uRbHw8U4kybHv35oZeUdKu2Qstj96Q78+8c2nNunREZkE/Z7NSBumQjB1pWsWkHeRVVW/nikuXzZ+LPkzNIKKRgs4YAZ8DANMJ3Od6DNA/hbPYCPeTFol/Q2KcK2BUWg4iEFVVw1QT7mY1YKv0VlCLQqR4gdZf38eVKoaoWxiSvnuSgLBOuDA6OBlDnOVui22SYcvo04S87o252WNYHbakaw/hxgmmrFdONO4zvfRh++DWX6c/juHW6r2V28H2BTeJjOkjQWmKHZCqGuZjNWYdwWBut9ATPOw4wF9mcrjNuy8C4+BmCGavqaCWrdo9GfqTBuy8I7+FiAfewK4zYzWB8C2F/fw7jNprfx4YD9tT2M20SwPkJgH6OHMVgfK7CPzcO4TSa3sMmUYhqFseR1qkyfLyLql6hzDbTZdMYFxk3v8EN1xWxsk5TF1GVgTj/YwLVG79KKCr4JoqmHqb+KQXM0ihz/3TszSFz/A8+x8akE7R+XAAAAAElFTkSuQmCC;" vertex="1" parent="1">
          <mxGeometry x="950" y="-330" width="50" height="50" as="geometry" />
        </mxCell>
        <mxCell id="l0EMNmxLnOdooNni136J-201" value="California&amp;nbsp;" style="text;html=1;strokeColor=none;fillColor=none;align=center;verticalAlign=middle;whiteSpace=wrap;rounded=0;" vertex="1" parent="1">
          <mxGeometry x="19.99999999999997" y="-460" width="40" height="20" as="geometry" />
        </mxCell>
        <mxCell id="l0EMNmxLnOdooNni136J-329" value="" style="endArrow=none;dashed=1;html=1;dashPattern=1 3;strokeWidth=2;" edge="1" parent="1" source="l0EMNmxLnOdooNni136J-70">
          <mxGeometry width="50" height="50" relative="1" as="geometry">
            <mxPoint x="300" y="-101" as="sourcePoint" />
            <mxPoint x="340" y="-153" as="targetPoint" />
          </mxGeometry>
        </mxCell>
        <mxCell id="l0EMNmxLnOdooNni136J-331" value="Alarm" style="outlineConnect=0;dashed=0;verticalLabelPosition=bottom;verticalAlign=top;align=center;html=1;shape=mxgraph.aws3.alarm;fillColor=#759C3E;gradientColor=none;" vertex="1" parent="1">
          <mxGeometry x="269.75" y="-120" width="37.75" height="50" as="geometry" />
        </mxCell>
        <mxCell id="l0EMNmxLnOdooNni136J-332" value="Lambda&#xa;" style="shape=image;verticalLabelPosition=bottom;labelBackgroundColor=#ffffff;verticalAlign=top;aspect=fixed;imageAspect=0;image=data:image/png,iVBORw0KGgoAAAANSUhEUgAAAEoAAABKCAYAAAAc0MJxAAASF0lEQVR4Ae2cCXBU15WGr6SWWiuSIrCTDFWJJ1NJnMlUbGdSNVAeT1WWmUpmJrGnMt5YZBAS2ncJJBAGYzZjwGBsnGAWGzNexmAGghdiMzYTvGECAgm09/J619ra93/qntuv+7XUr6VWt+QKZaqOmhLvtfp+nHPuf885T0wqmwdTWQJM5cLM5Qkwr/GYZW083FYRD6tslfGwVsbDti7Obfb1cXBbVRwcVbHCNsTCsSEWrdwe91jbxli0bYwRtikG7bI9EYMObpuj3db5ZDSU1rUlGl1btOjaKsy5VQvnNo91b9eie3sUWc+OKLjtqSj0yrYzEr07I9HH7WmP9e+KRP8ujbDdGgzs1oBxUEHDqvTA4uC8YbmAzQBWOwFTwNqsAssFzB+s7iBhMalUgAoalsKzbkVYAtRXsCgE/YUhM3JIsn0Vhqo5ixlL5iHksG7BMBSgvoKFHnkn5K8+dkMPqFsR1jSkw3R3Q2YoTgSFHwc1G7C+bOkQIlgEatZhfdk5KwSw3KBmHZaaZ61XKHiu5ANU8H5FKan36St4f2HIDEWJ4JBkCz4ME2AuZjAVMphlK2KwcCv2mLWYwVYizFrKYCtlsHMrE9a6ToPWx+PcRx5/x525gMX0HFQIYZmLNeg4vgwD10567PpJDPiwwesn4baakxisOUE28MURtG1fCEdlpBsUPyPOGNaT3KuC8ywCFTJY5XEwFUdg2HINwf7p/+Q58rhADtKTPEt5kA4yDJm+MBEcVEhgcVAlkRgyXiJOzrOVaD90PzqOPUzWeexhdL6itIfQ+YqwruMPofPl/0D3qVxgfAzjQ71oferbsFdEBFR1mC1YAlSoYJV5g3I8fRek1QymApWcpchbPGeR5TEM1pwk0H0f7oCtmAWf4EPgWUxXmATyqlDA4qCKIzHs8ijHs/fBzGHINS25lsVf5XrWhN2QJ/X2A/cSqPH+DrRu+QbslREzgxXCehbTFSQhZLDK4iAVe0LPse8+2v3coDgwX7C8dFYM7YBDDecIVu+5KrdXBSod/Bb/AsxZAhSHVRACzyqdAOpZAYpXTKeEpfAsawlDx4v/TKDGeqxwbEqBo1JDXhUorEk5azrFP0W1tHubqJSylnwBiTxLDZZCPvjVWaXxkIome5RcWp42rMoYWMvCMaz7E8HqPlMkvMolSOcE1oSyMoHygqWWs6YDqzQexqIoDBnErmffdx+kAhZYDd7lWVycdr70AIEabW+BvWoe7OuiZlyDn5FnKWC5QXnBUvOsqRR8STyMhVFueWDfey+kfAZTWRzM5R6zrImFZU2cCEdfOYvDqoyGdU0Uhs1/JljOExm0KzrkpsUc1+BZS14SOCTZ5BCcUc6SQbk8yrZ7EYw5DFKJFibZSrUwlWphLg6DpTwGlrUJKgk+no49Xa8uJVAj9huwVcbAvk6LLwMWa85LRsCw1MLQBWrYVC0W52jAsPRnDJuvKqwaw6Yr6PviOCxr4l2wVHbDCi1slbEYcdTR+3W9+ih5lb0qfs5hEahm7lVqnhVQzkqAIS8CfVfepIVN9aXjv1JhyvOvsyyFDM4TmfRWw6bLsK2NhH1dNOwUgnPXCmPNucngXkWwFCE445xVFAep4uuw7VosbPdi2HYvhn33Itj3LIJ124/gfLtKLNxcDXNptMerfOmsNVrY1iditMNA93Qe/Q24fKDe4VzB2qqFAKWEpeZZ007wiTAUxsKQFw6jbPnhMOaHQyoIgzGXQSqLw0i7jhbefvRBSORVCq01IcFbChi6z5TS9UMtF0g62NfFzCks1sQhySZ7VqCw1HKW3Aab0DfkCb7zrSKxcP2nMBVFwlweqypKLWuiYHt8AcZ67ALu73/u8Srexp8Dz2JNOckICJZazppKOihhFWthrpyPUaeFFt528N9IRvhT8GbuVec20fWDde8QKNu62Llp32+JhgClBisUOUulYWHMYug6K3LVYMN5mArChdZSOe5YyiJh27wQ4/2dAu7+xbDwCumkwZDZSfAeUGqwAg1DNc8qSYAhh8FYqIVUngipSAtz1Tcx1tdOC2997mdur1LzLHM+Q8+Hu+j6ger/Jp3FvWouZh1YY3YyKPw4qNmCVRwPY3E8Wo88AsvmO2Es0EIqS4Qhi8F5bptYeO0fKKmb18S7jzwTz4aWUg3sW/8G48P9wPgo2vbcDWtZ2OSxo1DnrCejwRqzv4agYE0jZ+kzGVqPCoU92HgBxrwISC5xat54B8YGuwGMk3yQeAj6mc/iXtX38QsEt//SUXCd5XNGi2DNfD5r4tnQBWqasGaSs4rioc+PwZDpKi2Of7E//ysKQ9mruj96lv6t78obJB/8DbOZSyLg2PlDYHQI4yODcDx1J8mF2YbFGrM4JNmCCEMVz9KtZnC8+KAbEv/LQN37MOSGQypJgDE/EpYn78T48AAwNgLbzrthLIiAOqw4Ki33X36F3rP3T/vBd0Sbop41OWcF6Vmbo8EaOKjZglWYAH1OFAZbPqVFdZ3bgZG2Fvq7bd/PYMgJo5Ejnqt6Pj4kFv7pETpI81FJNVjmojA4nvkJMD6O8aEe2LfeAUuZxisEQwmLV0oJ1GzBalnNYHv+3wnAaJcFuuwodJ4VWqi/9h3osxmMpQkw5mlg3X4XxkdHMD4yAOuWOyEVamiu1Dcs4VUD10/Re/ec305eNZszpawh82vgoAKH5afqwMOwYB5aMiMwUHeeFtN5ugotKxikqjswNuCk71n33Ad9TjjNZxmyGfouvyYWfmE/jNnMzwBuAnWhW5/7J7qeSwzbpm/AUh4pBnD9huHMdBar56BCBEunKCs3rw6Hdc/PxUJ622GsWAh9XjR0GQzOD56h7/dVn4I+i8HINVZuOGy7FtHuNzbYA8umv4ZUGOkHVhxMhWEYrP8jvVf32+vBd0S17k6wA7isPjNFgJoxLB8lmvxENGeEoe/aWVpE17s70LyKiUZrbhRMj38P40N91Oi07lwkvKokgUKx//ppusf5/g7SWfJYt6+cxfuFbb//JV0/5rTCWpUCS3mUB5ZXdye4aWVWvzoFwcPyDsPmjAiYnxK9Oe4dxvXfgS5H6+5It6QzdF84QAvsvfwGuM7iTQt9Thhs+34qFt7XAVPVQlLwqnPwvLxcHIEh3cd0T9epQuFVvPog9w1DBEuACgksj2c1pjH0fPGG+PDn96MpjXk1WXU5kTA98UPSQRgbhWXbj6HPjaAQ5DlroP59ce/ZDcKr/Dw0wEs07Ud/S9ePtDXDUpEAS7lWPDgQQlisLiMF5FUhgZWMpoxISE/+PcbHRkgbGTf+LVqyoiY1WVsyGHo+OUoL7PnsZXC9RV6VzWB//l/p+6NOK0wVC2AsilZ/aKA8FqaSaAybRfm58/VVMPFcVZEQUlgEqo5Dki3InNW4gqH74ku00O6LR8mb3A0LhSjVZWtg2nqPADo6DPOWH0Gfq6EzoSFPg8EWEU6db5XCkMmLfYmqsMirjj8mvMpWCzNvWqyJ8fs4ymSd5X83FKAyUhAKWE0ZWhg2/J0rpEYgbf4xmldHQrkbKtv35FWXXhVedfFF6DIZDbTxndDxoiuc2vWQypIgFcUQKJ9PWJTFwFwejxFHA71Xx7FHyKumbt9PP8GzuvQU8PAjk72Kv87AsxoeY+g6/7xY+KU3wHOV3AbzqsG7PEuXFQHztp/Q0YWHqmnj96DP08JQGA9DQTSGpCv0Xu2vZQmvKhVeNRnWPEi5DJ1v5tD1fEjEXBJJXhUqWOymElQQntWYEQ1dxXfBdzleCZC2/yMa0zXeoBQ6i3tWy+owWPf9kmTCSIcRxvKvw1AQC0NxEuWs1pdSxcJtdRSSUnGseMrCxxMWPE9ZKpIx2mkUcA/92u1VoYDFbqbPRyhg1S9n6HjnafqQvdVn0ZgWRp0d1e4O11qZGgzUfygW9mYpuGxwj0kWxpFnDdtET6/t5VQSp/4eR+Fqvuv0Gnq/waaPCBTNkRYzmEsYVUSta2NgrUwQCj4A6cBuruKggoPVkBGLltJvYbRPlGlNT/8CjWnhrjaYqxWmqJTy5N6cEQ7Lnl/QokadNhjKbocuL8Zr8o/vhG2vZtE1PAwNBVoYi+NUn92ReC1+/e0Y63HQPR2vrYRj511o3fsPbrOuT4Z1bWzAOksBauaw6pYxtP3PE/Th+us+REOaBk05SX66O4loSufK/Q9iQWc2CeU+YZhNz8OwJBkjbXq6jid4OvKodHdM5fPojOh8bzNd7+tL7//tpXMiPaAZgM5iN7hHub0qcFgN6fFoKvgrjDhFK8m87340rAijzo5ad6c5QwPTtsXiXNffBcPab6ElJ8ZLlMozpfxs2H5C9PQGWz6BITeS8pXag07kVVXfxEDt2xg28VZ+NbX1R119xMG6dz2gpq3gY8FupM3HzGGl4OZSBsfra+k/b6D5M9SvikZTdqKnDi/3DBVN1qaVDD2fC1nQ9cc9aE5jNMimlA7yAK4+LwbG8tvBxSf/w8UolWdUujvcq6SSaEiF4WIwpFRLXtZ+WIwQDdScFlOAE5qsE0s0E3WWADVTWOkJaMhZgOF2sdOYDzyKutQwqpiqNSwaM6Jg3HS3qD0N98NQ9X00Z2kFKJ9jkknQpTN0ntkg/jPqPnAfommoTS0My+LFuBEfl+THnCNClxGoAte8QwCwPKBmAIt7k+1YPi1gULoGHoaNmYmu0rLvsjLXWs6PDtI9zgsH0bjSo7V8KXjuWbq8aEgVCzHWK1pb1md+Cn12mOdhJzVYrgfKxXnwPwVo7lEyKF+zDhMeKJc9i9WunA8KPw4qEFjpiajPSMaQTahh66E03FzG/JaVudbSV36fSiy8mml84h46G8qiVE3Bc1hcOnS9t4MW23ftDKl4Xsdyj0r6gWUkj/KA4lOAE1thUz19z2pXLoAqLHeSV6h3EqXzcWNJGCwHV9EHH7I1on51Euoz5vmtlNanMnS8t5vu6fn8dTSsZGKKRiEdvBS8YjBEl6uFVPUdIWjHx2HhdazscA8otZxVxkvNDG1HFKDyxbjklLAUlVIXqMBg3VyVhJtpCRiUrtOibccKcHMJQwM/9qiUlRtJa30bYy6tJW27F42rNJ6RIzVYioM09yrn/+6nn9l76TVS74Zi13OGHJQKLD5B4wZ1/fSUHWkv6eCCxWpXcEiyqYThBM+qXRIG03NL6AOPtBlRn3Ub6lbN81MpTQFprVOisdBb/TYaVoahOdeltWiKxrv458uzdNmRkDb9gBoQ47zisPVu6HM0dJB2h6APWAYO6rDwKF5B5TnLX5N1UhhWxoHVcFCBwFqVjBupMehv/pxAWQ5n4vpvGG4si8CNZeG4uVxhqeGo47aEoTEnBSNdNrrHtOtf0LAywscUzdSwqDp68Qi9T8/FQ2hOZZSveOWBi1G3ZTPwhgU33QoGx4Ff0T0cFA9F390d128N8bEbEqhAYNUujYLxGdHQHB/qh+VwFqRnH4L5wDK3WQ4sBdkLS2F5YSlMex9A5wei9NtffwENaZFoyk5SmXXwhjUxwbdkaWDeco+oOAwPoO2VDDgOPgjH4UfJ+HyDbG1HHgE3x+/uh/P9nQJUzRkC5asG7y9nsZrHFoCDmi6smkci0HP1HfqhM/li3vcA6lPDPIJ0BoMhzekMva5Sc6CfYeDmu+4GayCw2HUOKgBYtctjYdz7MJyXTqGb2xcqdvkUui+fQo/C2s5sQ0NGAhqzkoIaDGnJjoa08Qfo+ew4+q68hb6rU1j1W+iv5tecQOvvfg1jQWTAv7iHQAUEK30BapfFouZRDWqWcItALbelwm4s5bnKZcsjKGfV8bzlylcNmRxSil9R6jWA62s3LEyms2FzBgOvkvKONDdebeC5SpclXilfZTM68vDZLJrPyteI+Sw/DQtf81nseupt4KACgiUfpCfshu5KqbJhsTq0fUOvnKXQWfIDmlTPcs+UTi0dVFthEyb/BKjZgBVkWXnaA7gKnSUfpN3FP9f0nz/pMLms7PndWUrPYtc4JNlC7VlzBUvpWaF67HfCMBu7tvw2hAQWVUkDr2eFbORolmEJUH/BsFRzVog9ywPqLxiW13FnlnIWq152Gyj8OKhbBdYshCGrXnY7voI19S8bc4G6dWB55awQhiGrXsohyRZEGMoVUvlVFqVf9m4YIljsKgcVBCw6TAdSz5rQwldO0YRyTNIrwYcgZ/0/ZQHFenuBQ5wAAAAASUVORK5CYII=;" vertex="1" parent="1">
          <mxGeometry x="450" y="-130" width="40" height="40" as="geometry" />
        </mxCell>
        <mxCell id="l0EMNmxLnOdooNni136J-333" value="" style="endArrow=classic;html=1;" edge="1" parent="1">
          <mxGeometry width="50" height="50" relative="1" as="geometry">
            <mxPoint x="340" y="-90" as="sourcePoint" />
            <mxPoint x="450" y="-110" as="targetPoint" />
            <Array as="points">
              <mxPoint x="340" y="-110" />
            </Array>
          </mxGeometry>
        </mxCell>
        <mxCell id="l0EMNmxLnOdooNni136J-335" value="SNS&#xa;" style="shape=image;verticalLabelPosition=bottom;labelBackgroundColor=#ffffff;verticalAlign=top;aspect=fixed;imageAspect=0;image=data:image/png,iVBORw0KGgoAAAANSUhEUgAAAEsAAABLCAYAAAA4TnrqAAAWgklEQVR4Ae2cCVTTd7bH/+e8d86c86ZTW3cB2UFBFC1qx+nYvtrO0jczb/raUUH2hC2A7OKC+1Rbta3aqbWLtVq1tUdtq61dbK3WquwggQRCWLJBIGEHURH8vnN//yQECCQBdXrGyTk3AUKSfz65v/u793vvP1z5rERU+JGthIxsNm+Vc5JgNPmcZMj9k1FFNjeFWfXcFDCbl4oassdSUftYmskUAWlQBKRDMT8dSmYZUC3oN/WCVVAv5E3zeCaMVvfr1SCrJ1tEtgZast+QrUUD2RNr0chsHRp/uw46ZlnQLc6Cntl6ND3Zb81PbYDRWv57I8hayZ4m24Q2siVkm9FO9sxmdDDbgo5nt6CT2VZwBGsAMAMsgmaERbf/KsBantrAYI0GGFc+K4HB+qcBM3gXeZnRu+j2XnqYNWDMuyx4GCdlsEYC1r8cmYf527Ak5/38l+RogHFS3wQMC+zfMcwshm0BD2skYP+OYSZgnMQnHsy7fi7AfsYxjMGyD9iDG8NMsGwC9oDHMK5spggEymg/qyX5T0hcR9olGayfNbCfUQzjSmeKQLBGD+zBiWFc6Yw4mID52LkkxxzDUlHrn4Ia35WomRGPGi8RajzjUEvmJYLCOx4KnwQoZydBNS8N6gUZrJ68X5k+1ZPmtSQPyxzYvY5hVIz7JEDuFoMqrzjULsyA+i8vQRuzD/q1R9C0/SSad32G5ldOoWn9MTQmvIP6F3dA/cRaKH2ToPSOh2p2MjQL+suj+1UacWICxUzU72H3AhgV5m4xkHuJoPzTVuj//gm6zhXjdl0zbLn06trRfUmC1tdOQ7tsF1RzUqCamQh1QDqrKe8HMAarH5jZkhw1sEExbHYSKlyiIJ+dBG3KAVy/JBnCpqe2Ed0/SdFx8iraPjiP1ve+RdvB8+g4cYUB6qluAO7cGfC4mwVVaN7wETSLVkM1IwGa+Rn3vPjmxN6xIFgWgY0xhlV4xEDmFQdt2kHcLFeb3mxvcyc6PstGQ/pBKJ/bwvSwKm8Rqj3jUO0eiyq3GFR7xLIYVjszAcqANGie2wpd6kF0nriC3oZW03PdVurQsvUTqB9Lh9ovGXWL7p0expUQrJGAjcbDZiVC6ihA7Z//jq7LUtMbuyFRoSHrKGoWZaLSNZotS4pf1XOSUTOXFxGHCIiPpUMxLxWK2Umo9Y5HracI6t+shj7zMMi7jJdbJQrohG9CPTdtoIc9non6hZnQPr56zAIiV+IVC8vARhHDZieifIYIUmchGjZ9hDs3e9h76VE3QbvqECp9E1HhLITcN8Gkuo5GcVXOTYXCWwSlXzL0ye+jR65lr9O2+wuofFbyMWxhJtS+Saibm4r6J9aiLiADdbOSoH08E9onRqe4cte8YjA8MDtimF8ipJ6xkHrGoOXYj8YPHC3HLkIekIby6QJUzkpk8rRVidpWPYxka+94aBavQ3PWUahJnqasPyAdav8UtGz8GDdzK3Fbpcet4hq0v3Ya9eRpARmjAsZg2QxshBhGkKQzROj4tpiB6uu+hbrUA5A6RqLCW3TvJOqFGVDOS4WSdsb5GXwu5p+KrtO5pg/M/Ieb2TJe01+4ym5Nn7vmGQOCZTMwCzFM4hUHiXs0Os7xoG7r2lD74ssomxbOmiH3rAmyIANK/xQoKIGllIRi2tRItGw5zvj06tvRlHEIDX9+CS1Zx9DX0sn+3vnBD/yStLMJwhUTLJuADRPDZopQ6hiBlo/4pXdb346qP26GxCECFbMNXaN7JCAq/JOh+cs2tO75Aq17v2A5WMu2E2zZ4Q7QlHwASudotiRVLtFoXnWIh6hrh/bJLGgp8NsBjCv2jIbtwAbFMN94iKeEom7DUXYQfddvouaF7ShziEC538phukaD8rAxaPo17rFoe+cb9tqDr/q6bkDzZBbU89L4Rsi8NNQv2Yg7PbfZvzY+/zLqHku3uc1GLTau2INgjQ6YeHokKv+wCX03brEDUKcegHhy2H3T9Ckna333HHvt9sMXUL90Jxoi9uK2pgno60NDxBtQusVCE5DBbim1oOS2r6Mb2mc2oW5+hl19Sa6IYI0GmHccxM4CdOXI2MG2HP8JJVNCmS42YhPkLi5JBuudb9nrN20+juppkahxFKDNALBHXo+GoNdY8d0YvBusEgDQ/XUhNH7J/M5oRyOXK/KIwmiAXZsSClXKe+xAe+pbIPVPQpl7NCS+w2j6vgko946D1C2a5WHS6QJInQQspaC0otxZiAqXaMjcY1DpLYLcb6XVzjdl+q2GZdj88knUesVB4Z8C1aI1uCU1qxh0bew46eq2thXa57ZCMzfV7s43V+hOsOwDVuIZA7FXDG5W1bOD0Kw+hGuTQyDxTRiquJJW5hQBiUcMKhevgSJoFzTJ76Fh63HoXv0M+j1noN99Brodp1h2XyfaD8Vft6EqIA2VbtGonBHPjwnQuIBxVMCQhzFYb/Mxi9QKkneUC9KhmJUE9eJ1rDTqa+1ix9jXeQPXvymC9k8vQeWXDI1hTMCeUQEGy15gxVNCoVj5DjuIG/J6lHrGoNQzFmWD8jDJjDhQWlG35jC6sivQd4PP6NkDrVz11DWj/ZPLUD6/HZVeIlTPGzpbMRSWiJ+tWJABxZwUKGYmQLNkA+r/tgN1v98M1awkplaMTg9bBxMsm4F5xaDYMRydV8vZ29WsP4riSSFD5R1KKdyiQLHMeOnRtrBaseXoReh2n0bDluPQrj+Kho3H0Lj9JJr2f43207m4UarAHcOmQcmtOnQ35FRoDxpGkbtFo9XkWSeYZw0cRkmH0j+ViYeUj6nnj20YhStwF4JAGc3akix2ikT5s+txp+8Oeju6IVmQhhK3KJTOGJiHlXnGonxeMvrauxkr2ghqnt8GiYsQ4nGBKPnlMogfWgrxL5eh9KHlKP3VcpQ9HAjplDDI56aw2tL42NYPL0A2XTgkhsldo9FihLXtBFMqrE7vjEHT5wrchCAzwrLmYQUTV0Cz5WMGoOXzHBRNDrEs78wUgVKLNrOy405PL25Wa9F5oRStn1xG84FzaNr/FZre/gYth39A+5lcdBfIQZm3uX6lEf4DMs/YIeNOA2Bt52GRamEJmDIgHVSAk7GyyADN1iVJo04mWDYB84hB/sPL0GYoa9TrPkTBw8tQ7BBuERjBqn7hZVA2TZfbTR38D1auaekZFYuuSxK2Q9LI0+D5sEqXKJNn6befQJVHrMX5MNLEWNB/Kgvqp7Kg9EuC0nel3fNhXL6rgHmWLR5WMDEYVcGvoreN32Hotv2CGFUrdqF4auhQYDNEKHGKQOdPvDqqfeUkZL/JhDJmH+qzjqBx16fQ7T3D4lfj9hOoSz8IxdIdzHrbrjOkqpDXUeEWbVGtYLD2f83+T7/tBOTuMSZYRg+r8YpHg/BNdP8kQV/bdWbdl6VojH4LypkJdgFjsAYAGyaG5U9cgdokfgeko2Offm+fyUdodxwIjI9hJdPCoRC+wf7vZmUdSp0FEDuEs3qy1CEcZcwiUOYYCQnd93AgC/T0gK4fy1BBIqFhsG7wQJ2MPGsQLPMJRFJeGw31oOlAzdTppnVHebXCxiVpgjUA2KAYVugUAfHCNPR23WSv2fjetyidn4qyhWnQHeAz6N7OGyidsxKF4wJBqQUlrWQlzgKUesTghlTFHqsS7WewLHW+pR4xkD+1FlRj0kUZ/BooeS2fLjQkr0ImHlY4R0HmLIT0oeVo2n2aP6aso6h4dAXrGlHnSO4ogGLRalB+RZf2Yz9C/exGqH+3Ee1HL7K/0euwlMI/1QYPWwMuz0UAAmU043I0j2F54wOhyvqQf9FLZcgfH4hCh3AUOYSjYEIQ2i+WsvuaPr4EZfK7UK89zEyTdQTy519C8SNBUGd+wP6H8i3yLslM0ZDpHZJ0mg9+z/6v84KYKRfVT6+D/vXT0O8+zd/Sz4bfddtO4Hp2Bf+83xZDt+U4mnZ+yky/9Tg6z+Sx+7qzZWynrPVJRK1vIksxbhge17z9BBMQbZlx5fJcImENWO645dC+dZa9cP3u08j71VIUU77lRQF/Oep3nmL3WbrSH/oeReOWo2xWAqgsokv1C9tROl3QX0dS5u8RPcCrFMt3onRCMFThey09rV1/a9n3Faqco1jCqpifgWqXaLTu+4o9R/v730PhGceGg60B43IZrBGAuQuR+2gglOuPsCfvuCxF3vggFEwLQ6FDGPIfDWRBnu5sO1cE7eufo/GtsyarDn2dLUVKXLU7eKgtJ6+gZGrYgNKodGoYmj7gvarjfAkktPxmiCB/ci1LXhu2fAyyxi3HTdaw+jC6Lpbxx/VVAeh33ebjzBrXfMhaa3Rnd3YFqtxiUeOTwHuWeyy6DUl18zaqKUWmSWrjBLWlGVcu1zkS1oDlOYah5PE0UyxpfP87iOenQjw/BY3v8rUZxSzx7ETk/3IpCicEo3BiMIomBuMaBW0fEUpchZBS3OvsRt/NHlQsXo1St2gGjDJ92ZNr0dfNx6rapTtY8so0MZrwcRKw2CV1plshK7rLXYQoo5j1uiFmbfwI0nFBkLnFsK6RzCESNb/OZHIMAWs/chHKpzdAuWQ92j+8wABTzNL8fhMUs5NNsGj83JKH1T2eCS7XOQK2AMsdH4ia5HfZi9AVaVh3zHbD2pXvoGBSMK55Dy9RF08Khv7gd+w5GvecMRXfJO00fcD/veO7ayijKsHSFPWg2QpSK5re4peTjtISl6gBiavcI5b1Jk0HTY3avv7tUL/uCGq8422e0+dyGCwbgLkKkfNoICpDKM/icyC6pTyrMnAnCiYHW1Vcyctkz2QxyD2NbZDMXsmyfNmSLJNX1ZB2Tx5kdYp6JcqdzGGdYp3vwYmr3D0WdZFvsE54X/t1kHVfLoc2eh9r4g6sJftParDkYVzO9AjYDkyA7P96EW3f8Y2J2pT3kPvQ35A/OcQ2AdE7juViLZ9lsw9bveoDFP3iBTTs+pT93n42H2LHiH5NzAowqVNkv2ftOAVKKSy12eRecaiiLP63a6FYvBbVvomopubGMKXRgDNBjDnYwlXgcqaHwx5gOeOWQ7WVrw0b3j+H3HHL7NLDiqeEQGmQdxr3nUXBfz4P3T++ZLBU8fshnhbeD8vKUDCDZdjVdDsJltBips/UCpre8UtCtV8SauamDMn0bfEwLpvBsh1Y7pQQlD2Txd7cLbWeL8BdBDYDo4TVCKthzxkGq2HvGfZ8SoJFnmUY27SUuJqfCUI9ySYTrE9Z4L9np86QZ2U7hcMuYC4CELDOvEr2BitXvIq8CSsYNGvyDnW+iwiWoWxisP7jr2gwZOHKhLdR4hBugmVtKFjiMAjWdKGpmWssjZg8TRK1v0E8NFdc7To5axW4qwTLTmDZjyxHteENt3xTANopC914TcwaMIKlMDxWu+tT5HC/Q6NxGSa9y2DZOrJJvUn9Pj5Z1u36jGn67OQs/yQ2vSOjApzOYnssFZUesbziOkhANK8lrcUw7qpTGOwFlucUjnw3IW6q9My7JH/ciLxJwSZNbCRghZNDoEjiUxDdgXPQbDoGytHoUkMJrFOEzTOu1J80wXqVYEVCNieJFd80wdN28ipo9qtHpUfnV4VQB72KSveYIYornQJIoIxmSQ+joM9ddSRY9gPLfngZatL47k7bDyXInRCEAjeBVWAMllm+RpAoX9OsPwIxKa7eZo3cQZr+4BhWNi0C+jcNnvXq5wxWuWsUSNYxFtDsUzBe9fVBm/a+ZWA2LEnuCsEaBbC86RHInRqCzqJqdijVifuR/fBSFHqMLFETrFrRW8bDR/v5Esie28yyfZoT40c2zYBZmK0w9iWp8DbCIj2s5BcvosKHalB+9LLt40uofjoL1U+uReuh8+w1KWuvXbIBcp/EoR5mBRh3xTEUowLmKkDOhCCU/WED84zbrV0oWZiG3EkrRgRW5BYFsX8SlKsOovL/tqHIMYI1QIYO1A3U9I07pHnQLyVYhgy+7fMcUPGtN+yO3YVVKHeJQoVHLCqoH+AkQJdBhNS/fBIyVz7bH9wEGS6G0dm43BUHgjV6YFd/tdSUd3UVV6OACvNpocMD84oGASucFIwihzBc84xmw3SWB+pG9rDSqeFMZTW5qdkPpOtLpoazGFY5JxlSAruHT1Faj15ketiwpzAPE8O4ywRrLMCoAhgfiKZTV9ihtp4rQp5D2MjARjlbMaQv6R0L2ROr0bDjFHRvfIHGHafQ/gWvYXVdrWAFeLlHDMo9YlHuGAnS8+nStOcMS2AHl0bMy4yN3CFLMh0M1liB5U4LRa5jONp+5EXA1nPFTNfPnTjykhz19I7xXCPSwSjOTYsALcnS8StQMS/FFNypY1S1eA3kv11jEhWpa6T435cgoxEBe06SD0gD99O0EBCsMQFzjUTO5GDkuQrQZlBNaUmWLMpgQb/A1fouaX2gbpgY5hsPCe2gTgI2IkA6WF0mP4dFXkQ77Z3bvcyj6Er/2uegHXM0mT6DdXeACXhgTuFoOskvSWrCUvJKQT+PAj/FKjZXYd9sxXBj55S8Ui1ZNiMOun1noYrdhzLSuaYLoIp9CxTkaR6LYNGkdH3mIZTT/IRf/zcLkHdZ9TBDDDPBujvAIpEzLRTZE4JMQZ8+zTZSPv9nM8vF8mhp2lFLDt0l49hcBSmt1JdURO5Ft1jBPKdH08Tr+jRjQTIPKa1L1qPq2fWooHFzZyFkfomQzR40UGfj91Zwl6YGg0AZbcxL0iUSuU4RoF1S8qfN6Czqn1VvOZsPWeAOFLgKkfvIcuRT1u8UgSI34YgDdSW0Y7oKUTwtjJ+r8ImHImafqR9JpG6Uq6EQ7AUNo0h9DCfJ0ynNbII6FhU+8fwXfYxhPozBuhfAqAmSPT4QeY7hqM08aCqN2BuT17MGCAmJ4gWpzNMKJoeARgPySd8nmxDEpxdTw3DNPQrSX6ejJnIvU1pvKXXMk+iKhn2120+gzCceYgdesRic6d+NL/qgksgE654AcxWAMn3K7Au8Y1C76iC6Cvs9jd4s6fHdEhVavy2C/sgPaNh3Fto9Z9Dw5pfQHz6Ptm8K0S1Rsv8zESJPkqpQ//fjkASkomRyKBt7okE6Y/JqO7BBS3K4GDYvBdyPU1aAQBnNuBzvSgwza7ORh2WPWwZqflD80uw8hY6r5eht5yVqcxCWfqYypaugCo1vfomqv70CsWcMimkoxT2qf9zJSi05xMMGafpMsRjhq2QYrPsFjBq5edRNmhyMnEeWI29qKK7NXQnpn7eiOnYf1JuOoe61z6B94wzqd38OzdbjqE18G5Uvbmfdb9LwKfNngyg0fWg6/W/kTN9YS1psgtgRw7iLU1aAYDG7Dx42oPNNnXCncORNCWECInW+8x7ljfqR+aRk0CZAgd1FgGse0SOcOjNMHnYXv7eCuzh5BcyBGZfjPYlhNowKWJsPG8uZILZ52PAxjLs4OQj/ssDucgzjLjBY/8LARtDD7Iph/sngLkwKwnDAfrzfMYxGNoeZD7P/xIa7G8Pkc5IIViBGAvbvGNYfw7gfGKwHBNgYYxj3w8RAPFDARh3DksCdJ1g2AnvQYxh3fuJy2APsQY5h3PkJBOsBBWZnDOO+J1gPMjA7Yhj3/YRlGA4YH/hHk4eZ6fpD2mxhptkKfiBluPmwSKbpG2tJGhcwTlIXmuVixlEBds7kCF0jvtU2zDej0Gl+xiYI3ZqdM2meuP4/QPzHdZGKPQAAAAAASUVORK5CYII=;" vertex="1" parent="1">
          <mxGeometry x="262.5" y="-20" width="45" height="45" as="geometry" />
        </mxCell>
        <mxCell id="l0EMNmxLnOdooNni136J-336" value="SQS&#xa;" style="shape=image;verticalLabelPosition=bottom;labelBackgroundColor=#ffffff;verticalAlign=top;aspect=fixed;imageAspect=0;image=data:image/png,iVBORw0KGgoAAAANSUhEUgAAAEsAAABLCAYAAAA4TnrqAAAZBUlEQVR4Ae1cd3iUdbaef++967pKS0J6LxQpdlwU3dUtd91dkRbSy6QnFCGANAVRRJYVRPQCCuy1ISJ7V2FdiiIC6W0yk2QyyUwmvUN6SHjvc84335dvJjOTAqi7z+Z5fkmeKd9M3jnn/N7znvcXhTowEeqgRGh4JaFkmriSUTpdWGXTU1A2Q1jaGanQzhRW+cxUlN+XBp24Zq1ABa3ZK1A5e6Ww5qyEfs4qXoa5q2CYu5pX1f2rQct4/wswPiCs6gfXgFYNrYfW8qp9aC1qH05HnbgeSUf9I+t4NTy6Dg2PrufVOG89GudtQONjG9DE60U0/3xotczfCFqttB7fxKvt8U1oe2Iz2sW1YAuu0XpyC67z2orrT21FB6+XoGCwAofA0gSJYNFP+4CJYEmAzUoTwPoXBUxRHJiAcQFmEV0jAaYfKcJM0UVRNu4I4+i6cxGmKA5IwA8JmJiOnJJ2AON0lKfkI+moM6VjPaejKSVlgAnpSGkpS8efC+k4LCWfkKXkgs1oN0vJrbj+5FYIYI0IWDJK5Skp1a+UYfVrKMJM9csiJaUI4/ol1LAhwGT1y0qE/dCAKVQElLjspuS/AVOo/OMxPsDkO+TwCBu2Q86S7ZCzaYc07ZI/lggz2yHNU5J3yAVbIIA1VsDuCKUwT0kzSvGAQCmYVphRChmtkFEKoYbJKYVQ9K3WMDuUQqIVCzYzpVAUEVDiEtMxYGiH/H452CgBM/EwgYPdPsC46NuMsC1QFPnF4Z8SsHFF2AYmrmKEjZa0ihGmKCSwfnSA3T6WPzwlx8/yh8CyAGx0O+T3yPLtcDBqjey1RbcLMEWhbxyk6PKLN0vJWwZsJJZPPeW0ZOj8EqHzjoPOSwmdp7AqvONQ6ROPSr9EGKaloGrWyh+2j3xiExQFvkrYBCwgftQczGYfaQkYNeI+8Shzj4EuIAn6xzegZvluNLzwPlp2nkTb/i/RduAM2vZ9gZZXPkVj2iHULXodxnnroA9MgsE3AVUz0hg4y7boTpNWBmsYYOLuOFZKYYfllwUlodQtGtrAJBiXvI6WfV+gJ7scgx09GM3XQGM7ui8UofWVT1H7u1dgCExGVUASqu8XeklRqbiTgCkKfJQQwFJyOkopaQbY6CNsqC0SSGspqRiuUSifsxL1Gz9AT36FOTaDN9Gnq0PXxWJcP3EZ7e+fR/uhs7h27Gt0/DUTPZlluFHbav6cgUF0ny9EY8I7MM5IQ1VgsiDtPGRP2hFknXH3kY9vgiLfJxajA2yMbdGMZGg8YlHqF4+6DX9Bv6FR+oMHmq7h2onLqFtxCIant7AeVu4bj3IvJco9Y1FOdctLiQqqWYHJMDy0BrXPvYrmrR9zdN3sH5Cu1ZupRWPMW6jyT4LxvhXmOtjtaLxlpJXBGg9gant9ZGAS1FMjUPm7bejOLBv6w1RVqF9/DOUPvsApWeYRi/KAROimpzBgLBxatkUkIs5cgcqgZFRS0fdPQs1vXkb7/i8x0Hxdunbnp5dR89gGTk1z4fA2kFaTUiGBlW9Kx5FTcijCRB1MYvnTkqDxj0exSwTqNv4vbvb18x9zo64NdeuOojQwESUuUSgLTGK1QhQPh/WR9pRWUl2npULvFQfj/A24dvAfwOCg8Dr6RjSE/RlVvgmS2no7Wb4izzsWFFnCEuqXHDAmrBYcTN54ywFT+8Sh2D0aLYfPSp94+8kr0D64GuqpkaAiT/L0rUvTJnl6ZhqDVrdkF/qKq/g1b94YQMu6Y7cAmG2Wr8jzjoEcMLF+jQmwoEQU+8RB5R6NthPfSUDVb/0Qxc6RKPFRopQ0sDuk5ev9E1E1ZzU6T2ZIr9267bgJsJG1/NGSVhNY9gCTk1bzPlIirRR5zhFo/eCi8On29qNK+RZUDqEoodSTUworgInpOCQcjl7LZ+HwgdUwzEyDwS8R1/7nKwmwlg1/EQAz6yNHGH7IlFbL4Yci14uAEpeYjkM7pBBh9gErmBKC+p0nBKD6B2CIehNFDqEYGn4k33nAaFpEOpl3ggQYpWRj+JswBiSh5uGRI0yaFtkAjMGSA5Yvq2HmKWkFsIAEFDiFoSJ4F3BT+ECrV7+Hwskh0mjthwCMWH7n50JKDtS2omb+BlRb0grZaG20Wr4i1ysaBNZ4ACv0ikFxUCL6TByq+dA/QFGmDkjkiZE4i5QDZklahYI/OqVVPo+0qbSaUtI4e5VU9Lu+yGYeVvOAQFrHy/IVOZ4EliVgsbAWYYXUR/oNRVje5OVoPHCaQ6pHXQWVjxIq79gRpkW3puVLw1t70jQB5p+Euudfx82+G/z+muIPoCogGTUmlj8ewBis8QCW7xqJkvnrMNgrcKmKpa+jwDEMxYGJQvNtSVqnJUPtG49i5whofONROj3FNPEeo5Y/eyV0QcmsTlTMTIV+rjDtpp/ixFucFuk94wQeBqBPZWCGT73kePtIRbZnFAissQKWO2k5mo6c40+t/XQOChxCofKzPfxQ+8ZBu+BF1G/7GNp5a1HsEiXZAwi40doDtJ6xqHpmK5p3nIBhwUYwYKbhhwDWkDRNO2T1vPWg9oq+mlccFppvmUVgLKRVke1BYA0HLE/aJYd2SJHl57tFQj1vDQa7+/hNaP+wHQVTw+1q+bQ7Nu79Gz++t6wGFb97GSqHMGi8lQyaXQ5GMo9fAspco1AdvBs3qpv5Ok3bjnOEVYqTojlidJkAe2A1k9b2vV8Ir5ujg3HmiiGlwoxSjNwWMVhjAYx2yDzHUOgi9oC25s6ccuRPDUeRrzkHs2T5xV6x0D75Im7Ut/Ebv9nbj+YDp1H+xAZo3KOhpvR0j0GJtxIlPnEoJRA9Y1mxKPNWwvDrl9B+9ILU2vRXNrIWVjE9xYYBRQDMMCMVNU9vATXfA3WtqPnFZhhnrRyyCIwBMEWWRxQIrFEB5h2LXJdw5E5ejpyJwSh+cBU0T6xHgUe0oOPba4uCElHkGAZ9+B5IPIN+67uBjnMFaHjtBIwx+2BY+Br0v98Ow/OvoSb+bTTtPoWub9XATRM3oef030D1kl2sTlTMMbl1qOEeFmEmLX/OKtQF74bx4XQYiO0HJkuAifVrJGmaOJgiyz0SIwLmHYsc53BkEy1YsB6VSQdQlX4E2sU7UeAfh7wpISj0UVoFTGL5poJf6BCK9s+ucHQNdvVKuxXfYOcbpTxFI321H7uAMpcoq44diVKIKTlnFSp9E2AISubdsSn1IBqV+1Hz1CZB1pm9Stoh7QImgeUeKUWXEGGygu8dgywCY3YqWk58h5sDQocv/l39ta2o3vIB8p3DUeAVYw5YQDyKfJQonBqBYr94phQqt2iU/2orX2egtQOVC19DzZr30fbJJXTnlKNPV4/+6mb0ldehO0uL9o++Rd3KwzCG7cFgdy8Dpv/FZpT7JUA3a4WghZF+PyOFI4uphRhhs1ai0i8BTWuOoK+0RnzL/HPwWheuH72A6kfSWUAUZR17gCkyKbJMS0xHOWDZTqEonJOGHl2d9GLXL6rQ+vlV9JRWS7c1HzmHPKcwEBeTlAofJYpnJMO46hBUvnFQeSuZVqhco9B5tYSfWxX7FgrvWoxil0ioqV7RzjgrjakF1S6NWzSK716K+nVH+fGd5wu5lnEfSWa66SloSD+KykfWQheYhEqKJBMHq/BJQNtbX0rvsV9Xh87/y0L3Nyqut3RHX6EeNY+t57S0mZImx44i0y0CVgGjHdIjiqPq2vkCfsEulQHqpzYge/JyZE8MRp5bJKrS35eizZD6LvIcQoRpka8SBS4RaD1xmZ/bfOwCRxgBVugYioZdJ4XbD30FlVO40EeS+zAgESX+iax9lU5LYqWCALt28io/vnH7cZS6RrPjsMxLiRbTDtv1tUoQEU2A6XziUZ94gJ9DNZKGH/oZadD7JEDvl4CaX72E3uxyvr/rdC6qglJQTQxfPu22UFoFsNyGoivLYyglM6cEQ/Psy3zBgfYuFD3yAjLvWYI8r2ih+faIRuZ/LUTNq8f5Md0qAwo8oznCcicFI+euRagI2Y0bje18f/PR8wxYwZRQGJRv8W0d5wtR7BYFDbsPRdfhkOOwNCgZpb7x6M4TtPvq6L3QOISh1DUKJXSdZ7ejv6Ker9V1oUgCrCIwGT05Or6dJkU65yjo71sh2TQJMBIPBxoFDla/eBenI/spbACmyKDI4jUcsKt3L4LxlY/5BZs+uoiMuxdZ9JG0O0agaHaqMKUZvInih1ejImIPGvb9jVftto/Rmanla9A3BswxDLrnXuXbugsqUeythCYwgaPLso8kiadsZir6Khv48frfvozqmH1oOXAGre+cQdPOz9B5Toh8eoAImOHJjZxqg509MMxfj8ppKcz25Sy/0lOJa0cu8HXbdp5ElV/iEKWwApgiwzUCtgAjsOreFnK++rVPTWBZ9JEe0cj3ikFvpfDpqn+ejrYvs/kN2PpWOn8dtL/eynf3qI1c/NX+8daVioAElM1egf6aFn687okN6Ph7nq1L8+01oXtgeGYL/05RV0m6/qwVMhOwwMH03nFo2fEpP+7a4bMw+MRzKlqdRz68FooM13AGSwJMVvCv3L0IVS99yBdrPn4JV3+6yKwtIpaf4xzGGwDTgIFBqB5YBV34HtTv+xvq//xX1Gz9EJ2yoUXz0XPIdwiBbuEOvi5FlsorFmr/BKuuaaphpTOGIqvyty/DGLUXLW+fRsv+02jc8Sk6z+bztehbx5lclNMw9qlNXEtpLmmYtw4VFFkWrukKDyWuf/QtP7dt1yke4LKn1YbFSXGVwLIBWMbkYKie2cQXG+joRtH8dFy963nkuEcil/pJlwhk/MdzqNtzih/Tmavjop/rEIqcCcuQ/ZOF0FHNMvVm1EvmO4Uhf3II9LH7+DnXzxei0CUCatHmZGkzp1rmE4fuXKH+GCP3Qj0lFBrnSGgmhUAvq1kdX+VBG5DIE6PyoCT0FFTya7S8cQpapwhUUuNNgM1eiQovJaqf2YrB9i5+TN2yN9gmINnMrQCmuOoSDpuAuUXi6oSlaDkl7EREHzR/2IasqWHInByMPD8lql/5hF+Mvumi3kTO5OXC8MM7FnlTw5mb0X1NR88j3zEUpIHlk7K66zN+XtPBr0BEVSKvfvFQ+8XxlIiKfklQEtMKkcg2bPuEgaLGu8QjBk27PufrUN3SBiYyWMS/tJ5K1KUd5PuIGzZt+YijizwVFbQbLtyJvrJavr/rXCFbA6rm2vflC2DZASzDMQQ5/nHoyBM+Wbp6V7EB179To79B6PPotto9p5BNAHrJGm/PaBQGJcKw4iAT1gLPGO4hC5zDJZ6lj96LvP9ciEKncBR5xkAdlATNjBRopiWC+kmVcwQKf7IItelH+A+j3VPtFi0MP8iBGJCIupWHoHvoBZT5JzClEDhYGrTeSrTJJk395XXoPJOL7oyhWWZfWQ2q5m+AfnoqH2Jg17SNgwyKKy5hEKNLiDB5wY9ApkcUKB2zfWJQ985p3Gjt4DctfutWV6Ei+QCyJgUj1yPKpOebAPONRb5nDHIdQlDgHcP8i5h+6dObJQZf/scdMK4+jNZPvkVXdjl6KwQG30sj/SwtWj+8iOq0gzCE7AbXxd5+6J56kRtulnWmJ3OE0ZhNe18azIYf01Og9YlD4+YP0V/VJL5l/nmzpw/Xj3/H9YwNJ/dbeMKsWJwYrOGACUVfoBQCYJlOobhyz2LkzUpByZKdKAv/E1QL1iPLKRSZE5dxDRtZmo5F7sRgtH4mENXx9oatxy6g2DFsuLRj6dghSxPd5hnL7L566S5m+w2pB1kT0/nGo3I6CYgElEmlmCsck+EIswBMcdk5DATWcMAsIsy0SxJoGROWImPiUhQ9ng7Vkxu4hg2XpmPMpWnfOORMCoYudLf5J9zbj2tf5YH4WGX4HpQ/u51phe4P22GI3ov6106g4+si3DRNnenJJLfoF+2E2jVSmEeO5MufkYLa+Ldh+OVmlHsrUU51i+wA9qRpPlsk9+WvgeKycyiuWAGMd0gbHOzqvUtQHicw8OuX1RxZOR72tfxc1wioH1+P/gaBzQ/29DNp1Ty6Rtghp4SwgFjoFoUi92gUuUWh0DmCZR2VayS0T21Ey3tnpdaqT98I7WPpKPEjiTpZprSaDz+0/gmgxpu+KJJJXSUD3aiGHxaAMVhjBSzDYTkKHn2B5ZWbxNqf3si7oz1pOvvepRLF6CmpRukzm5F77zIUuEXaFQ75qExAIlSkmTmEonLRTvQbBaW0butHUDtHmuRpuTRtAuy+VJS6RKHF1Ex3fVMMrW8CKu4ThrijGn7IAFN8NzUUBNaoATOlIxHWxg++5k+s+cRlXP3ZYrtafp5bFIofWwvjlg+gun8lckn2sZgW2XJNy88WqaaGs+Ja/7Kg5Wv8E2RHZcwBK/NPhO7hNRhoEdw2NTFvQUtWzFEd9TNJ0wyWQCkYrFEB5iarYe6RuDo5GIXz01m1xOBNqP/7Ja5lOcTqZeM1Scv3iWXCmj1pGQi4At+4UZjorDl2kqD2joVqagRzsRLaDW3YAzRTI9B66B/8gZLLsIw0sBmpwvnIcQCm+G5qCBgsKcLCpBp2VUYrrLH8Kz99HvUH/85vpjO3HJmOIch2CR8WYRJgsmm3OPyQG1Csuw6tATZ0PtLqYVIirO4x0D+3Q/gwARhD/oQyMsqJB0np5xgBU1xyIrBGAMzVnOWLlEIgrEr01Qg1pHbPX3HlroWsg1mO175PwEr84kD2zF6NkT/I9o8voYT8rCQWjuv0rZCSDNa4AXOPBNWuUvI6mL60MXsFwEyzSKspKYuwEf0UJm+r1A5ZDm+J8ctO31INU7tG4drnQotG0o529gpm93KwpAgbw+nbIbBsRZhVDmZOWi/f9Tyq3xB6PRosaP64HZSi5tElSDtjc+yMzZfPrsOpEWh5VygNxNL1f9whMPyZ5pSCwBoJMMvhh+Jbx+WgyOLokgNmZ4e0bIsyiKdNWIqmjwW5gxSKkkWvmqWkQFpvETBbvvxpiazfq1wi0fzOGTHIUZ30Ds8jxWk3/bQ8DD9qwOauAoN1y4C5R4Dq11WH5Wg+KbQyNICtSHsXJCCSSkG75Igs38zXOmRAKZKf/LACGBnpyBDcZhqxEVo1qw+j2CnCxMFsk1bzCLN/+lYCywwwU8EfFaUQWb4I2ORg1L8nbNf0phuOnkeOnxIZP1uMbNLBxunYMedggi9f5RnDFifd77ejR2XgiKIyYIx/G8VOYSzv3D6L0yooLjoEg4ASwJKl5HgBMzXc+vVHuIejv6C3sgG6+P3IcgpDxj1LkOMaMUzLH43FiQCjKKOWiAREzdyVaCLLk2la3VtKHoptUDmapkX8PyrkFidz0mqZksNc0/Lz3XNWCmDdVsBo+OESDir6ql9uRIdMUu7I0kKXeAC5fnE8JcqauIwn3XmeUSBqYRUwOtRA97lGIp+ERYqY+etQ/6dTuCHzwdPcUjM9GSqXCGjIYm62S8qmRWaOneE1zBpgYlvEkUVg3XbAiOVPWApSKSrXHEav7IRFX00LGo+eQ3nUn1H00Crkukche4owi8wmOXrCUvZSUEuU5xyOosB4lD69Ccb0I6xQUD0UvzouqqB7/lUUOoaxkY7EQ8mXL6MUtlj+WGzmim9MQDFgjvZT8vI4WD5F2RUadPjGQr/2PZBOL/8iuaVbY0T7V7loOnYB9fu/5GFHw7tn0HL8Eq5fUqPPZDESn0eeh/YvslCx/A0UukayOiHyMLkvX7RpWmX5ZhE2un8Zo/hmyjLcacDIHpA5NQxXfrYIWc5h3EfW7D6JjoxSDIzyVFh/bQvav8yGcf1RaB5bi3zHMLY6qfzioAowN9HdKcAEsIYBJhR8W0XfeoSFS/K0tT5S9FNkUUM+OZhVClJZC2anQvPsNlQk7Idx64eo3XWSpZyanSdQtf4odNFvouTpTSiclohcx1C2O+W7R/EZScvjymJ0yVUKMbrkLH+klBRbIksOpviagBKXLCXFHVIAzApplaekVZYvUyls+SlI7nEOQ+aU5SwgZt67BJn3LEXWPUuQNWEp+ylypixHrnMY8j2iZafX5BzM3EQ3OsBsKxViDRsO2Aoovp68FHcOMPO2yKYBxayPHJ/NXOJhVkgrpeXwCBs7YIoLBNatAGZqi8aq5VNaShYnK57WkYcflseVZRE2BsDGQloZrHEBNh7SasOAwqDZBWx0vnwpum7jcWW5UqG4MGkpJLAmLxsxJS853SLLt6hfcovTeG3m8oMMtw6YbZavOD9pCewBJhLWizIOZlb0xxthMgPKPwtgDNaPA7AxuKbtHCa9bdK0FdKqOD9xCQSw7ESYjFLII8xaSlrnYEMWAbscbCw2cxNg5kqr+dkiWykpkVbZLjkalq84R2DZAcwaB7toUinGRlq/X8AkE7DZv1wYx/BDFmGKcxMX418PsFslrdb/x47i3AQCyxIwYYeUdkmR4Vu0RSOy/NvBwfhskcyXbxIPx6blyzgY/XcA8f+EjTD8MGuLZqRAcZbA+jdgNg6TmkeY4uyERbAN2PCib72GyaUdK33kjzHCxsDyxQj7f8api30l21hTAAAAAElFTkSuQmCC;" vertex="1" parent="1">
          <mxGeometry x="377.5" y="-20" width="45" height="45" as="geometry" />
        </mxCell>
        <mxCell id="l0EMNmxLnOdooNni136J-337" value="" style="endArrow=classic;html=1;entryX=0.403;entryY=0.002;entryDx=0;entryDy=0;entryPerimeter=0;" edge="1" parent="1" target="l0EMNmxLnOdooNni136J-335">
          <mxGeometry width="50" height="50" relative="1" as="geometry">
            <mxPoint x="340" y="-45.5" as="sourcePoint" />
            <mxPoint x="390" y="-95.5" as="targetPoint" />
            <Array as="points">
              <mxPoint x="340" y="-40" />
              <mxPoint x="281" y="-40" />
            </Array>
          </mxGeometry>
        </mxCell>
        <mxCell id="l0EMNmxLnOdooNni136J-338" value="" style="endArrow=classic;html=1;exitX=0.514;exitY=0.984;exitDx=0;exitDy=0;exitPerimeter=0;entryX=0.5;entryY=0;entryDx=0;entryDy=0;" edge="1" parent="1" source="l0EMNmxLnOdooNni136J-70" target="l0EMNmxLnOdooNni136J-336">
          <mxGeometry width="50" height="50" relative="1" as="geometry">
            <mxPoint x="455" y="-20" as="sourcePoint" />
            <mxPoint x="475" y="-40" as="targetPoint" />
            <Array as="points">
              <mxPoint x="341" y="-40" />
              <mxPoint x="400" y="-40" />
            </Array>
          </mxGeometry>
        </mxCell>
        <mxCell id="l0EMNmxLnOdooNni136J-339" value="" style="endArrow=classic;html=1;entryX=0.5;entryY=1;entryDx=0;entryDy=0;" edge="1" parent="1" target="l0EMNmxLnOdooNni136J-332">
          <mxGeometry width="50" height="50" relative="1" as="geometry">
            <mxPoint x="285" y="60" as="sourcePoint" />
            <mxPoint x="500" y="-40" as="targetPoint" />
            <Array as="points">
              <mxPoint x="285" y="60" />
              <mxPoint x="470" y="60" />
            </Array>
          </mxGeometry>
        </mxCell>
        <mxCell id="l0EMNmxLnOdooNni136J-344" value="" style="endArrow=none;dashed=1;html=1;dashPattern=1 3;strokeWidth=2;entryX=0.5;entryY=1;entryDx=0;entryDy=0;" edge="1" parent="1" target="l0EMNmxLnOdooNni136J-335">
          <mxGeometry width="50" height="50" relative="1" as="geometry">
            <mxPoint x="285" y="60" as="sourcePoint" />
            <mxPoint x="500" y="-40" as="targetPoint" />
          </mxGeometry>
        </mxCell>
        <mxCell id="l0EMNmxLnOdooNni136J-345" value="" style="endArrow=none;dashed=1;html=1;dashPattern=1 3;strokeWidth=2;entryX=0.5;entryY=1;entryDx=0;entryDy=0;" edge="1" parent="1">
          <mxGeometry width="50" height="50" relative="1" as="geometry">
            <mxPoint x="400" y="60" as="sourcePoint" />
            <mxPoint x="400" y="25" as="targetPoint" />
          </mxGeometry>
        </mxCell>
        <mxCell id="l0EMNmxLnOdooNni136J-346" value="Kinesis&#xa;" style="shape=image;verticalLabelPosition=bottom;labelBackgroundColor=#ffffff;verticalAlign=top;aspect=fixed;imageAspect=0;image=data:image/png,iVBORw0KGgoAAAANSUhEUgAAAEsAAABLCAYAAAA4TnrqAAAUqElEQVR4Ae2ch1eU19bG37/mfrk3sSBKHRiqBUvUJJqoWOgMZegIAoIaY4sae4yx9xujMWJUEOl9CkxhZigDSO8goNieb+3zMjQHGMyNQlZYa2fQNWjml+fss/ez9xsueqEC0YuU2MpChZjFFGoWsUvUiF1Shm0sNNjmpkEcCy3ilmoRv1THImGZDgnLyrGdRQW2L69AIotKJK6oRNKKKhY7PtfDEDs/r8bOldXYtbKGj1U1+HZVLYvdq55i92qKOnxH8UUd9nxRz8eX9dj7ZQOLfV82Yt9XFE3YT7GmCQfWNPOxtgXfD8bBta04+DVFGw5RfNOOw0PRgR/WUXTiCMV6ii4cpdjQzeLYhm4cc+8Bx2D9A8wEYD3gogiUIWaUwnh1kco+hMJIXVzUwlLMXGAf9khyka4E6x9gpuQwLtK1BP8AMy3pD8L6OwD763MYF+FCoAzxz5GcqKzgIlzk+AeYaXUYF85g/QPMlMKVC3eR4e8J7H+cw9Z1gAt3loGFCQqjlijMoRRBVnKE2SsQs2T81ihuqQYxC8sQaqtGuFD9t2iNuLAhWJMrLExYgqOBlUi52IxzcdUId1CO20tGu5The49KpF1tw93jzayXjHOb2b0kF+YsxRAwAjeBwkQWMjy62Az6yrnThkDLEmxdZLz5DrNT4ULCU/be7taXiHPTYtuSmd18c2FOBGsEsAlyWIClDL//2MAApN9sRZAVwSLH4l1gYfYq/Ly1hr23qfoFcytiF2s+olvx53MYF+okwTvAxlFYoJUMl3fxABRZ3RDbloxr79ARPR6kZ7B6u14jabWO5TBS2Ey1dxgso8CMKExsJ8N+Dy0D0NPxCtuWKhHhbNwPi3JRYceXWvQ/e83efyq8hiX6meyHcSGOEhAso8DGKCzcuQRhjnLUV/QzAOe3V4PUFr3ICLBFKoQIFCjN6GbvlT3uQoiNckYbiFyIYzEmBDZGYSILCW4frWMAasr6ECIsQaRzKe+JjfHDQu0UOBVWzd779i1wOqKaAaOy4uMrbKo5rBWcmMGaBNgIhYU6yLF1SSk6mwcYhNtH6+E/X2bUQKTET+qSpnax93Y0vcS3a3Wgm3J6AJuaH8aJHYtgErARChNZSHEhiU/eL1+8wWH/ctBNyY7jGIs6wkmJ+OVlaK59wYA16l9g9zc6hNjOvCPJiR0IlonADApzlkNkKUHe720MANVR37lrjAKjAUioXSn2bNCBlEVfXS0vcTq8GmJrJaJdywZVNv1vSS6YYE0F2KDCQoUy0JHUFPUwAJ0tL3HAWwvRAhmiXCnhDyd9AhYiKMXudVrU6Z6z99M/0q+3IWGFFiG2qmlQVkyew7hgh0JMGZizDBGucgQLpMwL00l4YC/6XuNCYjUCLGQIdyh9B1iovQKxbmrkJ3cMAWtveIlbBxsQt0yDUFsVol0o+U/HSr8ZXLCQYL0HMJdhYGFOckhShwFk325DjJsSgZbyQZUNziUXqxDhrITYVoFz22rQWDmssta6Adw/3Yw96ysQbq9mEbNQi3g3mklOj7kkFyQsQND7AhtUWIi9DIE2Utw9WY+3VCMAoA9/IbEGIXYlCLaRI2rh8CCX3ZK2CjbIvf1DA1qe8jcr/RxdGKUZPbi2ux7ffVOBKCcNwgVliHbUYNsiHRKW0jD34wxyB2EVwFSFhThKB9sjg7UjA7mtYU4y+M2X4JC/DjXqvqFjppM8w48RVQi1L0WQdQmiXBRDvWS0qwpiawW2LS3D9e/qUC7tHfo5+uZF3xtoi3rx4Ewrfoqoxe61lYhdqEOkUINIey2inXSIdS1H3OIKJCytROKySiQtHz39fv/J97s5jAu0zwevLtMVFmhbjDCXEc234ZZ0kSPAimDKcftIHZ51vBr68OXSZ7iYWIOtS5SsAaf8Fb1QhZglahC0EFsFIhxVOOxbiUfnW1CrGT6ihj/kee8b1KqfoyC5C8mnWnBxez2OiWqxd50eO1ZWId6tArGuFYhxrkCME0UltjpWIobCqRKxTlWDoUfikhrsXl2LqawKMFgjgU2kMD/LQtw8WIMT4Tp4mRW8ozCDvUMtkb+FBPErlXh0oQm9XcPQ2uoHkHKpGYd8ykE1WLB1KTMSCVjMIjUDRjXYVtcyHPSqwq2DjZCmdKO5ZvioGuAZXunodja9Qp32BSokfVBk9KL4QTfyf+tG9i9dyLzRiYzrXSwyr3eB4sr2ZiS68fsVpgFrxBCskcDGy2GeZvlIu9HE8srJyHJ4mxUiSFA8rh8WIpSDCtiEVSrcPdmApurRaqkt68eDc804GlSJbUvVTF2ksHAHFaKc1Yh0VCNUoEI4VfxuWhzYUoVL2+vw4OdWSB52o1rZj47Gl3g1wOdJAzxTXuWpvYhx1E9pGYULsM8DgTKE4UgaU5iXeT5uHa0d+ndJ/28zYpbL4TOvEEF2kkF7+l0DkeoxgkaT75+26lH8qBN93bwbYfjD2hsHWFv06w8NOBZYhaTVWkQ5qRgsAhYmUDGLOsRGhRBrNcLtyhDjokXi5xXYu64KR/1qcCaqDleSGnDrQDPunWjFw5/bkHqxHU8udyD9audQkMouJzRj+5Jq7DJ5e6cBXIBdHsYDNlZhQcIihDgV4+EF3gCkD/qs8xXuna5HwupS+C4ogsiyGCEOUqOOa7hTCYJsZAiylmP7KjUuJtWg6EEHCNTYL4KpV/Yh//cO3DvVzFzXoyI9uyETV+oQu0iLKEcNIuzJ59dAbFmG4PllCDQvQ+C8MgSaaUaEFkFmWgTN0yGYRTnLZd+untq6Eyeyy8VEwEYpzLEIgXaF8JqXj+/91NBKePuFPujzvtfIv9+GE+HliFokh9+CYvhbSiC2kyLcSf7OIDfMkW5HOYvYpSocCajE3RONkKd3sbJjLDzDr+nIdbW8Qn35c1RI+6DI7GH5KfdOJzJvdiD9WgeeXG3HkysdfFwlVdHvjVbX5YQmJCypmtJ+GIM1GbCxCqNe0teiACLrQpyKKoc6fxgafaj2pgHk3WvDhR167FqnQpijDGTtUD8ZZCtDqLAEEc4lrGClDZ5IZwVCBksLaotil6iwb1M5zsfVIvl0Ewrvd6JS3oe2ugEM9L8xcPtTr/LUZ4gWVk5poY4TCXJBsCYDNkphg71ksLAYPvML4G9ViL2eajy61ICmmtFJnGrUuvJ+Bu+/h57imLgcO9ao2TKKWCBn5mGgpYwVrmJBKcKEFAqQFya2obGbYqisoHps1xoduyVPhVbjQnwdbuxtwN2jzbh/ugUp51vx+HI7U1b61XamMlKaITLY953IuNaJSwlNiF9chanUYZy/IAemAjOmMLJ3xA7FDJiPeQFzXA/6aZB8ph7UMz7vHZ3ISQ6vX75llo2msAfZd9pw78dGXN5Zi5NhVTjgVY5dazWIX1HG5pJRzkqECZUIs6M2SYlgKwUCFyggmqeA/1wF/OYo4DebQgm/WUr4z6ZQsRDNUYOPMgTMKUPAXEMu0yJaWIFdq/i1TVOA0bomg0XAGLT3VNhIP0wsLIbIqhA+5oWg4jVuVSmOh5bjt5N1KE7pwFNd3zs34cjz9ObNWzzve4Ou1pegqRB1A1TZK7N7QNZ0wf1O5NxpR+Yv7cy1SLvShseXhyPtchvSrrSzeDL4Sr8em8MuxjcgfnHllHZcOT9BNgP1v1DYWIs6xEGCAOsieMwqgPu/8rH5PwUQ20uxZ1MZru2rRdHDdnS38R7XSGAf4ntZag8i7cuHYNFi8IQKW/0UnJ9tNt4HmLEcRgoLFhaxI+ltThdAEWJXlOCoWIvbx56i8EE7ajV96O0erujHgnn96i36e1+js/klGvXPUa3qA/WXyuxuVoeNUtaNNjy52sam3qQwQ9DvsRuRbsXBGJvDSFlxiyqmtEXN+dlm4X2BGXIYvfpZFsBzXh6Dtd9bjd9O1UFT1M0++FggA8/foL6yH8qcLqTfbMGdY/U4v12PY8EV2LdZg6Sv1IhbrmJ+WLiTgjXhdEsG25Qi0LIUIvMS+JuVwHdOCXxnl8BnFkUpfD6jUMB3liGULJcZy2GRdjrsWDm1tXPOl8F6F5gpOSzQvgBe5nnwWZCHXe6lSD5bh4YqfkxmAER9m17Zi4xfmnF5tx6U/ONXliLUUYYAawn8LYpZHxloLWVlhdhOjhB7MhbpppQzI5HcCnItti5WIemLMuzfUo7jwXqc3VaDa7vrcPtwIytcH55tQcqFVqRemjyHXYhrwLaFFSbv6dOOPudrk4XxgE10S3rNz4H3glz8EKxGSeaw8UeQGvX9rIc8FaVD3MoSBAqKQDel7/xCBFgXI9heglBH6dD2DtVhQbZSVocRtMiFpdi9oQxnYvSsp8z7vR3kWrTUvmC2jeE/xJ95lab0IMJOi8Tlpj/YwPnYZGIqwPwFudg8Ows73eUozR6GRLdXypUG7PNWIci+CF5mpLgCBNoWstJi7CCXEj2vqmJELpLjoK8Wvx6pg/RxBz8JGqc3prKD/i5Wwct6ocjqQdGDTuT+1oGMm214cs20HHYhrp55Y1N5EoTBMhUYgfKzzsUvR6pBVzx9NdX048qeKoS5FmHLnBz4WFBjToDGTI2cJKCyws+ikCksdnkJzsZXIT+5Da31/JhspFL6el5Dr+pD3r12pq5z8dU47FeOnV9rELdMhSgXJcgTo8I10ILPY35z+RzmO5jDfFkeM+Qveh3OYeECDZI+n5rjyvlYZ4BgTQaMctimOZm4vLeSfSaCdftEDYKE+dg8OxsiW95ENHZLBgj4fpKK1+PhOhT80cYa8JFwOpoGIHncgVuHn+KHAB3iVyoQKiQzUYYASykbs9EghKZHogVyZiBSpU/Wzq61Whz0rsCp8GrWcN/cV4/fjjXh/k/NzEhMvUiVPZ/HDHXY+W11iHXVmm5Rr6wG502wTATm/mkGUq/Xo6ttAN9uKoH7Z5nws8l9x94x3JIimwJ4zs1D9DIpbh2pRUPl6ORPZcQf5xpwOEDLmm9yLOhoBtlIIbaXIVggg8hSyloisndoNklLdMk/NTG3Qq/oY7PI9/GzZCndCBNoTH44a+fneh4WD4xX10QK8zDPwk/xWuzaKMem2ZnG3QqHAgQI8uExJwdRSyVI/rkOPR3DhWd7wwvWQ+7zUiPYvphV+iKrImbrUKIPtJUwxyLUQYY9mzS4caAWxY8G89hIKY74nrx6cmBr1P3QFD6DPK0LBcmdyP61Hek3jOcwUhb5YVN5mo3zsk4HwTJFYSK7HPhYZcPbIhsB9sabb895OexI3vhej+72YUjlsh6c216BMBcJvMzyWeEqduC3d8T2EvguoPZIgv0eZfjjbCMrXkfwYN/SmhPdipm3WnHrUB1OR1Vhv4eOlRM0jySbmnZdQ+2UCBVQA65kiyi0vUODXJpL0o5rqECNaGfN4IjN9DEb52WVjqkA87Pl+8ixdZi/bS42zcrCdx6lqFLwQ1f6hDppN46FaeBvVcBuSPLDqNKn1ijIvhhU6Ye7SnFplx466fDP0c8SbFlaJ8itOOirQ+wyBagOo70KWnUS28oRKixFhJOCTY1oADJyC9HwvCT/zOSff16S87J6gqkCI1AMliCXKczHMhseZtn45Yh+6JakG+7nBB18LfPgOS8XQfbDg1yagHub5yPUqRg3D9WgtW74Nuxpf4mcu604GVGBrW4lEFnxhSv5YDQI4R9w+DhPgnCeDJYxYJPnMDqWXvOz4GeTg/wHLUOnJuPXJoS6FGLznGwE2A3fkmKHQlDS9zbPw49bdaOq/SrFM1z6Vo9oNzkrLfzJnhYOF64f+0mQpBWV4Dwtn2B8YOOXFf6CbHjOz2Kmobqwk4F60f8aZ+K1LPn7WuUiUMgPQmgIEuxQAO/5eQhxKkLO78Ngq5TPQJV+gC1f5QfbFZu84/qhn2bjPCzT8D7AvCyy4G2ZBVUBD6qzZQC7Nsnh/lkGRILRQxCCRYk/brUMT7X81PlF/xtcP1CNANtCdiSpYA0ZXNc0urI5Yj/s4zxrVAkGa6rAfGyy4D7rCTLvNDJFUd0Vv0aCjQRq7C0pzIeneQ7iv5SivYnPTdXqXiR+XYItc3IRxBL+FPfDPtLDWZyHxWMQrMmBDeYw20ys/zQNP24rY6BeDrzBbk85NnyWDsphY5tvH6sciJ0LWHNNP0BKJKV5mee+9/aOYfL9QRW2vALcFoJlMrAMeCxIR4BDNjqaeZVc+74C6z5JM24gCnKxZW4W8u7zT2XoVc8QaJfP+kfKYYZK/332wz4GMAZrKsC++Xcqrh+qYKqqUvZgi3k6fKyM+2Ee87Kwz7eUvZeS//a1Mpa7qJ+caPJtqMOmskX9IR4w5TZbpIJgmQLM0zIdnhbpqKvkk/TxKBU7kuP5YdR4G0qKh5fq4P5p5lAfacpuxVhP39QnQf6aW7Ic3OYFqTAVmPvcx0hcX8SU0tU6AJEwC54WGUb9MGqLxM55rC+k2WHSehm8zKlNMn23YropjNu8IAWmAvvmPyk4k8gn9qLHLdjw2eNx7R0P80wkbZAysG0NLxAgzGPF60SrAtM9h3GbGCzTgK395BFunahiAJLP1+Drf6eOa+9snpuBvT4l7L3V6mesAfe3zXmvyfd0UFj8Ui24TfMfwVRgX/3rEZIv8E+FPbxai7WfpIzrVmyam44DIj65tzx9Dm8Lvi0yZVVguiqM20iwTATmPicVu70luHtGj0PiEmw0ezzC3hndS1Iu27qqEPfO1uLy3gr42mSDHIuxddhMymEMlqnAPK3SQMDW/N8j9uptPb69Q/NIL0u+gN04Ox3US450K2aiwriN8x+CYJkKbPJKf/zme+Tke6wfNu0V5qYB525OsD4OMFOP5HTJYZy7+QP8NcBG57DxCldTgRmbGn3oW5LbwGD9VcBMO5KmAvvYCuM2zHuA6QBsJuQwbsO8PzBdgE13hXHrGawPAWzm5zBuvdl9fDhgMzuHcesI1jQENh1zGIM1XYFNtxzGrZubjHVmFJMojBWvE1X6vIk42qJOMzJmG7EuMGZ7h6/FqIecuDUKMPKs0XBZMbjuxFae+Mk3mYiG/bDQsf/vnRGP/03m6f8/bzFW2S9LscwAAAAASUVORK5CYII=;" vertex="1" parent="1">
          <mxGeometry x="860" y="-140" width="45" height="45" as="geometry" />
        </mxCell>
        <mxCell id="l0EMNmxLnOdooNni136J-347" value="" style="endArrow=classic;html=1;entryX=0.06;entryY=0.451;entryDx=0;entryDy=0;entryPerimeter=0;" edge="1" parent="1" target="l0EMNmxLnOdooNni136J-346">
          <mxGeometry width="50" height="50" relative="1" as="geometry">
            <mxPoint x="490" y="-151.91489361702133" as="sourcePoint" />
            <mxPoint x="850" y="-119" as="targetPoint" />
            <Array as="points">
              <mxPoint x="540" y="-120" />
              <mxPoint x="570" y="-120" />
            </Array>
          </mxGeometry>
        </mxCell>
        <mxCell id="l0EMNmxLnOdooNni136J-348" value="User Behavior data" style="edgeLabel;html=1;align=center;verticalAlign=middle;resizable=0;points=[];" vertex="1" connectable="0" parent="l0EMNmxLnOdooNni136J-347">
          <mxGeometry x="-0.2162" relative="1" as="geometry">
            <mxPoint as="offset" />
          </mxGeometry>
        </mxCell>
        <mxCell id="l0EMNmxLnOdooNni136J-352" value="" style="endArrow=classic;html=1;exitX=0.977;exitY=0.592;exitDx=0;exitDy=0;exitPerimeter=0;" edge="1" parent="1" source="l0EMNmxLnOdooNni136J-179">
          <mxGeometry width="50" height="50" relative="1" as="geometry">
            <mxPoint x="900" y="-341" as="sourcePoint" />
            <mxPoint x="950" y="-391" as="targetPoint" />
          </mxGeometry>
        </mxCell>
        <mxCell id="l0EMNmxLnOdooNni136J-358" value="Worker&#xa;Node" style="shape=image;verticalLabelPosition=bottom;labelBackgroundColor=#ffffff;verticalAlign=top;aspect=fixed;imageAspect=0;image=data:image/png,iVBORw0KGgoAAAANSUhEUgAAAEoAAABKCAYAAAAc0MJxAAARmUlEQVR4Ae2c+3OU53XHH2lX9zsCbOxQp9iuO0lN3Waw4z8gaab9JW1ju1jCgDAgCQldkNAFSSAwtxiwSSe+Nf3BEzvmOiGpncxkMk46nand2lyM7rfV7mrvEiBphVZaXb6dc559331Xuyu9QovUMN6Z70q8w1jej845z3m+53kQA9WZsFVnwLZfyr4/A/aaoBy16VBVlw6novp0OOvT4TqQpsrdkAZVjWnwNKZKNaXC05SKQdLBoIYOpWLoUIpUcwpuKTqcgtukI8mq7ryWDK2GjyZj+GgSho9JjRxLwsjxoEZPJGH0RCLLezIRqn6ciDFFrydg7PUE3CWdCmr8dALGTxulzhjhO2OEIFBLhlUfhEXgQmEFgN0DrFsMTAPrSBRYAWDzwRpdIiwxUCVBLRmWJrIeRFgS1NewOAXnS0NhJUiKvk7DqDVLWPdlIuawHsA0lKC+hgWvshLS1wirYRDUgwhLR+ugdzUUlsoscPoRqPsBa6VbhxjBYlD3HdZK16wYwFJB/b+ARZ18xA4+0L1TF6907/T1sNTtw/e/KRWWiiwQJEX3NQ2jRlY63HUGuPYJuKulPNUCnv1BDdYIsGoFBmsFhkh1Qd2qF7h1IKjbDQKK7jQKqGoSGDlqjLrdiVazhJlALSesCDXLVZuAwZMbMP7ZTzHRejmy2i5jciG1X8ZkQP72ywjXJfh+XwPaJ44cTVgULAa17LC0kVWfAldtIiZN/4nlevl+X80Rtpi9oTCXZ4FArRQsZ20i3IcfwuzEKGanJzFyaQeGP/hnjPzipVB99BJGAho99xJGz72oynvuRbDOvwivogsvwHvhBYyRLr4A7wc/hO+/T/Hvwt/xSwZFzoNeWBLUSsIiUM0PYWZ8GLP+u3A3psNZLuCqEnCTFqpZVLuUmqWpW1yzqG7VC9ym2lUp4P3wHySotosS1CJcB9Ffng2OqpWCpYK6g1n/OAaPfgNUs9xL9LPYotH4WQRr7OJLAVAXQkAtFFnkZYn+smysKKyaJBlRvmHMTvngIVB1CdLTWiIsrflHkaWAmmy7wCviYsw/CYpgla1MZDlqkuBqfpjrE/26Pa+tlxGluKUMa+nmH4HyBiJKAUWOqQpLm4Yat3T0uHRKhWmvhMSRFQ2Wpn249z4rHY6atFBbuTYNztoUOBuyMPTu93D7ve/D1ZgJV10y28uqU9qQCk9DSqit3JiCwaYU1Vqez1bmxrQuMqiosObYygwqBFa0mrVEWLZ9ibBVGkNg2auNcFQZ4KxNhWOfgKNSwFkdD2eNAa4DqQFLORWumni4ag1BD74xBe66OHjq41VQ5MXPB4uaU++Ff+EaNdl6gZvTiB68NrI0sFRQIbCiRda9dPDVabBVp2H8+gVMmj+H6/i3YK80wFmfDV/7x5g0fwb3kccYmOvQw5js/ZRFK6Gz2gDPsT+D3/IZJto/hvtgFtw18Rg69RT81s8wcfM8BhuTpQJDi2iwwkDVC9xZhAcvTKXZIEiKlBSMWc2qToWtKhXTd2z823Sf+lsM7BVw1GdjZmJUPjv+JOxlAq7mR/jP9OY+vA7OCgHPiSf4GfVZ7qZM3ubcOvsMP5sZGYCnMQmDpAWmO7TlmRtRNOXRC0v0leZg0bB0pqFtfxYGyg2wlgpMuTv5w7lPPg1rieCR2PSInZ+5jnwTtr0Crqa1mJ30slwH18JRLuA5+piEMmrnVCR4Q2e+zc+mPR2yz6oTGDyYNi8sBnVeSb2Lsr8KtA96YDGoPoqqaJF1LzVrXzoG9qXBWpYAe+N63P3iA8xO+/nDTXm64bfdgN/RAszOyGfuDvjtNzDlauM/0xt9z8/cHfLZ7AymnC2Yst/A9GCXfDbth+/azzF47FHeVHNkNSWrwLRpSE2pVwOKUnExroPoK8kBRRXD0qTgkmoWgapMg6VY4O7Vc+qHv1/f+G78gjt5TwOlYRCUtsATqNE5oHTPDY8lQYLSwooWWXoKfGUGLGWJGLt2EVPuLvgp3QJRM/T+y3Adfxru08+q8px5Fu6APG88C88bm6Te3IRBRWc3YfDsJgyRfqLR6W9j+MPNarRRGk57OuG7eV6uhnNaB7JoIoHSC0v0EiRFSmQtFpZSsyoyYClNwKTtRljwOI9vhKVQYKAsHgPlQdkq4qHIXhkHVfvi4FBUFQdHVRyc1dQ+SDnKBIZOy1ql/WFTjuvcOgxSn6Up8GGgaoUc4es0/0TvnhwsCla0mqW0DhUZsB/5Fhwn/gaOYxs5suiDuE49B+tew9LH9wGLhoBRhNGLatbQmb/CrTc34tapp+BpTAlzSskEHD0vI3Ci9SJvpLVnHeaNrKPJkKCiwbqnmpUNc4kR5iKB/kIB/8B1/jBaUEse39encWQpoCiKaDVkx6FGhHbwgYMhBGrkXABUiwS1GFs5CCoarMWmIUVWVS6sVat4qsOrGwCnElExGt87q4IRRashb3eaMrkpjXSKJgxUjYh4iiZaZIme4hxw+hGopcIqz4S5JAnjrZ9getjBQqAtcL7+HCyUejEa31PNogLPrxk/ZkbsmBlxYKLjY7ndmbM3JA8+JKIUUHoGFq8lQ/QUr8KiYZVmwlSSJlWahv7SVJa5LAP9JYmY6P9cfgDNO4MqNcRsfE+gaDWc+6LtDu0N3bSR1pzPIgNQC4oiTD2bpQNWAJROWHtz0FeUjL7iFJirHoG5OijL/nUwV+TAXJ4Ja8MG2JqexEDj4/C7ZMPIoEoMMRuy0oqogJpyd8B97DF4jm/gvSFB4lTU+FmRQGn7LIY2zyhM9BQRJEXzp2FvUQosDU9hvPNTTI8NYebu7RA53/weTEXx6C82wlQoYNol1FbB8ePvwqKAisFEmkG9KSNqyn6dtztOdh8EXA3pAechTXVKyVYe+ShYzCmilPZB28FHLPBHkiG6CZROWD0FAiP/9e8y2mdnMOv3YXZqQpXz7A9gKoyDpeYRWGu/AUvNOvid7fz3CZR5jzFm43s7RZQCytUG2hu6Dz8Md/NatmjmHmajFTEEVHUQ1EKRRU4pg9ILq2dHPMZu/oY/uOf9negvz4W5bgMspPoNMFfkwlScCF/XHzA74cXMhFftzBlUiZEHrfdu/mWoxh81pp4AKOr+lc002TTsZ5H5V2tURQOL4Q9/xP/vEy0XeTO9mDOlortwFQiUHlg9BfEYu/5r/mHOt36Enq2C6xXVLNOeFPSXZsBUnMygZibGGJayhXGclBEVq4k0g3ojUMwJ1IR0HRhUdTw7pZ6j60EaPLYe7sZcjFzeKUG1/pJBRR7fRz6AK7oIlE5Y3VpQ725Gzw4R4jr0s62cBcv+R2GpWQ8q8JOB1LMTqGIZUbGApQVFTgNZNO5D6+A69BA7pbd/9gO1JMjy4FOjmybS7n2Cu3e9sERXYa4EpQNWOKg46TpomtL+shyYihLQt0ug99VgMSdQVORjNb6n/SFtpOnlt19nP8teLtT94a33/g4z47dDdXcIk92/w+CJP4e7LiFiBx+twIuu3bnQBysb3ds1qUcRVUCgpE2j+lmlWbDUPw5r41/AcuAJ+J2yPbCfkKBiNZEmUOQ80IvaAzL/XMceZ1vZSUOLA1lwHaIoWwN3c1BK3aJBq0dpH3Qc7ZagdMKKCEpr0ZRkoq8oCT5TeMPJoIqMMRvfa0ExrcAbefDqwKImCU4ah9Umsmh876pPmdM66BuFic5dueCo0gGra1s8vEoxf2czuimitBZNSRY3pGMtcgszNexQnU3biedhIlAxmkiTVaNEFLmnZCtPjzjga/sYNN3hqKJbFhFuWMxtHfREFoPqJEiK5qlZXdsMoaC2x0W0aPrLV3PrQC7ppL2Vf9cEqq8oIWbjewZ1OlCjnC3swTvqs3howVdSlKsoMYIlQe3KhR5YEUGFbaRXoXdXAnp3CFCDOmmVJh5HVGFCzMb3IaDs13lgQdMdWg313t1ZTGSJzp25oPRjKVEVJQ07txrgvSb7KMfbm9FFERXmOmTD0vQ0rIe/A2vzM/C7umVEHX8eJgIVo7MO5JSSrUyvKU8XXCc3wv36Mzw3DJtIK9G1hDQUHVpQC0RWKKiX0bVNA4qBZaN3dzImrF/xB9C+DTQ/g57tgmERMEpDqln9pOKgaJvDxt8eI+8NaX9oKTWwRUMOqSKylV0nntb+CP6eJjdzJ9IOBdQS0lB07FwNvbDCQcXPsWiy0VOYAu8Xl+B3dbGUztz9s3xYm/8atuPPg9JQ+UqrIevkd0G9FnXwtN1RRK6DqlPPsaVMbil58EPv50lQNMpyd7LGr1+EbV8C7DWa63N0lW6JsETHqwRKD6wcdL6iTT2KKAIVwaLZk4W+4kzus7z/ez7stx7rB3evfsQ1iibSNL6/1/uG89UsDagFYO1ehQ4NKPvbL6NzqwJqDqziLPTuyUTvrmT0V38To59/qLYJfnc3F3heDQOjLL+zE5MDNBQNDkDJdeBnAT+LIpNsZZrw0H+DXtQWjH3xAQ9ZB8qNsNH4nkAt4XJmNFiinSJKjar5Yc0F1UGg5rNoSmkFTELPjjj4nXK6S+lHqyG1DtPDcqROnTxtd2hvODsxBtpQk0VDftZA4waGQn+XXAcaWNiPbuRnlG6WPQLWMiMG9mfF7CZrOKxUiPYdq6EXVscWo7rq2d+SEbWg61CcyWk4fUdCGTiyiVsHsmhmffKQhrXpL9G3U/BGmgkAsNath2m3gO3gU/xoxjfKAwtzkYDjxHckvDs2nkjTVDomN1m1p5Xn3GSVoPTA2pWLMFCvxC9s0XAaZsH75SX4+v6HWwfqs6gpvXvzE97uUETRRppch/GuP8LX9UdYax6FqdjItjJ58OMtn8BalQtziYHnhvSMJtJWHt+ny6FFLO4bRoEVBKUDVntIROWhg0DpcB2o1+opTOXWoW9PNvpKV7HrwP57URJMpVkwleWgvyyL/Swy/0y742AqjGcPvr8kiac70nnIhoUm0nsTYClLipkHz5fK5+mzRFvBanD6EagFYLXlGzF6VTactp/mof0Vg26LpndPNkhz94amkkz1bBYfDCnNgLliNZz/+vdwnv2+HFiUpTOwEIumIgPWyoygtayMwWI0N6Q6pYgGFaKtYA2iwlKLfC6ogw8DtcXAFs1izL/w8f2c81nFKbA2PCnrkn8clup1chSmvTSgnHVYxit0AVD6YEUEFWW7M+9qqDgOWosmYP6RrWypfwKzM35Mj92CWQEVI9dh0a1D4O6OaNtOkBRFSUOOrFy05s1JvXyDLtchYlMaBktGlgpqepJHYuaqdTxojXhpYBkjS7QSKJ2wWvMSMHr1PzgtrGd+iJv/KNCeb5DaYkD7lngu8FTkWVvjuSmlDr5zWzzvDbu2C3QrKhDoLpAuA/Va5MHTwKK/Yg2fO+eICoCKeqZ0mWAxKL2wWl82wnvjtwxq6DdnYH3jn2B7awvL/vYWKHK8nQ/WO/lwKHo3Hw5WHpzvBvReHpzv5cGl6N/y4XznRXh+XoTZmSlM373DE2ka3yuHcFcqskTrtjUgUHpgtW42wnOpmUEtx9t4x6fsmJpKM1VQK3UdRbQQKL2wCnJ4u+O+eAijX/4Ko19eia6rVzB69Qq88+naFXg1Grt2BYqG//AWLPVPoq8oRW0flKhaiTRkULphvboG7QU5oMiiNKTi3ppnQBspX4prFtcrA/dZVKs6qWZtlaKNNNUsqTg2/7q3x4FVEMeOg1Kv6KyDaW+OCkrXAdz7VLNEy9a1IFC6YWmbUm2fpbikga+qB79b/9xQz/ksOWQN3t9ZrpolQd0PWAvYyvfaZ1FUhUTWQmdKY9SUipsESVGsI2u5YOk52q38Axj3eORI3HxlLWICi13S+f0sfRNpzRmtsKZ0nhsW9xmWBPUnDEtXzVKOdi8hDYOg/oRhLUfNEl9tWQtOPwL1oMC6D2kovtryEL6GtfA/NhYA9eDACqlZMWwdxFf5BEnREtJQcUiVr9SMqg3pCq6GMYIlbhCoJcDizbQuPysAa84IX+3gC+lAm/5jkgs6pXpu3y9iNfw/Xj1/TynrrO4AAAAASUVORK5CYII=;" vertex="1" parent="1">
          <mxGeometry x="250" y="-360" width="40" height="40" as="geometry" />
        </mxCell>
        <mxCell id="l0EMNmxLnOdooNni136J-360" value="" style="shape=image;verticalLabelPosition=bottom;labelBackgroundColor=#ffffff;verticalAlign=top;aspect=fixed;imageAspect=0;image=data:image/png,iVBORw0KGgoAAAANSUhEUgAAAEoAAABKCAYAAAAc0MJxAAARmUlEQVR4Ae2c+3OU53XHH2lX9zsCbOxQp9iuO0lN3Waw4z8gaab9JW1ju1jCgDAgCQldkNAFSSAwtxiwSSe+Nf3BEzvmOiGpncxkMk46nand2lyM7rfV7mrvEiBphVZaXb6dc559331Xuyu9QovUMN6Z70q8w1jej845z3m+53kQA9WZsFVnwLZfyr4/A/aaoBy16VBVlw6novp0OOvT4TqQpsrdkAZVjWnwNKZKNaXC05SKQdLBoIYOpWLoUIpUcwpuKTqcgtukI8mq7ryWDK2GjyZj+GgSho9JjRxLwsjxoEZPJGH0RCLLezIRqn6ciDFFrydg7PUE3CWdCmr8dALGTxulzhjhO2OEIFBLhlUfhEXgQmEFgN0DrFsMTAPrSBRYAWDzwRpdIiwxUCVBLRmWJrIeRFgS1NewOAXnS0NhJUiKvk7DqDVLWPdlIuawHsA0lKC+hgWvshLS1wirYRDUgwhLR+ugdzUUlsoscPoRqPsBa6VbhxjBYlD3HdZK16wYwFJB/b+ARZ18xA4+0L1TF6907/T1sNTtw/e/KRWWiiwQJEX3NQ2jRlY63HUGuPYJuKulPNUCnv1BDdYIsGoFBmsFhkh1Qd2qF7h1IKjbDQKK7jQKqGoSGDlqjLrdiVazhJlALSesCDXLVZuAwZMbMP7ZTzHRejmy2i5jciG1X8ZkQP72ywjXJfh+XwPaJ44cTVgULAa17LC0kVWfAldtIiZN/4nlevl+X80Rtpi9oTCXZ4FArRQsZ20i3IcfwuzEKGanJzFyaQeGP/hnjPzipVB99BJGAho99xJGz72oynvuRbDOvwivogsvwHvhBYyRLr4A7wc/hO+/T/Hvwt/xSwZFzoNeWBLUSsIiUM0PYWZ8GLP+u3A3psNZLuCqEnCTFqpZVLuUmqWpW1yzqG7VC9ym2lUp4P3wHySotosS1CJcB9Ffng2OqpWCpYK6g1n/OAaPfgNUs9xL9LPYotH4WQRr7OJLAVAXQkAtFFnkZYn+smysKKyaJBlRvmHMTvngIVB1CdLTWiIsrflHkaWAmmy7wCviYsw/CYpgla1MZDlqkuBqfpjrE/26Pa+tlxGluKUMa+nmH4HyBiJKAUWOqQpLm4Yat3T0uHRKhWmvhMSRFQ2Wpn249z4rHY6atFBbuTYNztoUOBuyMPTu93D7ve/D1ZgJV10y28uqU9qQCk9DSqit3JiCwaYU1Vqez1bmxrQuMqiosObYygwqBFa0mrVEWLZ9ibBVGkNg2auNcFQZ4KxNhWOfgKNSwFkdD2eNAa4DqQFLORWumni4ag1BD74xBe66OHjq41VQ5MXPB4uaU++Ff+EaNdl6gZvTiB68NrI0sFRQIbCiRda9dPDVabBVp2H8+gVMmj+H6/i3YK80wFmfDV/7x5g0fwb3kccYmOvQw5js/ZRFK6Gz2gDPsT+D3/IZJto/hvtgFtw18Rg69RT81s8wcfM8BhuTpQJDi2iwwkDVC9xZhAcvTKXZIEiKlBSMWc2qToWtKhXTd2z823Sf+lsM7BVw1GdjZmJUPjv+JOxlAq7mR/jP9OY+vA7OCgHPiSf4GfVZ7qZM3ubcOvsMP5sZGYCnMQmDpAWmO7TlmRtRNOXRC0v0leZg0bB0pqFtfxYGyg2wlgpMuTv5w7lPPg1rieCR2PSInZ+5jnwTtr0Crqa1mJ30slwH18JRLuA5+piEMmrnVCR4Q2e+zc+mPR2yz6oTGDyYNi8sBnVeSb2Lsr8KtA96YDGoPoqqaJF1LzVrXzoG9qXBWpYAe+N63P3iA8xO+/nDTXm64bfdgN/RAszOyGfuDvjtNzDlauM/0xt9z8/cHfLZ7AymnC2Yst/A9GCXfDbth+/azzF47FHeVHNkNSWrwLRpSE2pVwOKUnExroPoK8kBRRXD0qTgkmoWgapMg6VY4O7Vc+qHv1/f+G78gjt5TwOlYRCUtsATqNE5oHTPDY8lQYLSwooWWXoKfGUGLGWJGLt2EVPuLvgp3QJRM/T+y3Adfxru08+q8px5Fu6APG88C88bm6Te3IRBRWc3YfDsJgyRfqLR6W9j+MPNarRRGk57OuG7eV6uhnNaB7JoIoHSC0v0EiRFSmQtFpZSsyoyYClNwKTtRljwOI9vhKVQYKAsHgPlQdkq4qHIXhkHVfvi4FBUFQdHVRyc1dQ+SDnKBIZOy1ql/WFTjuvcOgxSn6Up8GGgaoUc4es0/0TvnhwsCla0mqW0DhUZsB/5Fhwn/gaOYxs5suiDuE49B+tew9LH9wGLhoBRhNGLatbQmb/CrTc34tapp+BpTAlzSskEHD0vI3Ci9SJvpLVnHeaNrKPJkKCiwbqnmpUNc4kR5iKB/kIB/8B1/jBaUEse39encWQpoCiKaDVkx6FGhHbwgYMhBGrkXABUiwS1GFs5CCoarMWmIUVWVS6sVat4qsOrGwCnElExGt87q4IRRashb3eaMrkpjXSKJgxUjYh4iiZaZIme4hxw+hGopcIqz4S5JAnjrZ9getjBQqAtcL7+HCyUejEa31PNogLPrxk/ZkbsmBlxYKLjY7ndmbM3JA8+JKIUUHoGFq8lQ/QUr8KiYZVmwlSSJlWahv7SVJa5LAP9JYmY6P9cfgDNO4MqNcRsfE+gaDWc+6LtDu0N3bSR1pzPIgNQC4oiTD2bpQNWAJROWHtz0FeUjL7iFJirHoG5OijL/nUwV+TAXJ4Ja8MG2JqexEDj4/C7ZMPIoEoMMRuy0oqogJpyd8B97DF4jm/gvSFB4lTU+FmRQGn7LIY2zyhM9BQRJEXzp2FvUQosDU9hvPNTTI8NYebu7RA53/weTEXx6C82wlQoYNol1FbB8ePvwqKAisFEmkG9KSNqyn6dtztOdh8EXA3pAechTXVKyVYe+ShYzCmilPZB28FHLPBHkiG6CZROWD0FAiP/9e8y2mdnMOv3YXZqQpXz7A9gKoyDpeYRWGu/AUvNOvid7fz3CZR5jzFm43s7RZQCytUG2hu6Dz8Md/NatmjmHmajFTEEVHUQ1EKRRU4pg9ILq2dHPMZu/oY/uOf9negvz4W5bgMspPoNMFfkwlScCF/XHzA74cXMhFftzBlUiZEHrfdu/mWoxh81pp4AKOr+lc002TTsZ5H5V2tURQOL4Q9/xP/vEy0XeTO9mDOlortwFQiUHlg9BfEYu/5r/mHOt36Enq2C6xXVLNOeFPSXZsBUnMygZibGGJayhXGclBEVq4k0g3ojUMwJ1IR0HRhUdTw7pZ6j60EaPLYe7sZcjFzeKUG1/pJBRR7fRz6AK7oIlE5Y3VpQ725Gzw4R4jr0s62cBcv+R2GpWQ8q8JOB1LMTqGIZUbGApQVFTgNZNO5D6+A69BA7pbd/9gO1JMjy4FOjmybS7n2Cu3e9sERXYa4EpQNWOKg46TpomtL+shyYihLQt0ug99VgMSdQVORjNb6n/SFtpOnlt19nP8teLtT94a33/g4z47dDdXcIk92/w+CJP4e7LiFiBx+twIuu3bnQBysb3ds1qUcRVUCgpE2j+lmlWbDUPw5r41/AcuAJ+J2yPbCfkKBiNZEmUOQ80IvaAzL/XMceZ1vZSUOLA1lwHaIoWwN3c1BK3aJBq0dpH3Qc7ZagdMKKCEpr0ZRkoq8oCT5TeMPJoIqMMRvfa0ExrcAbefDqwKImCU4ah9Umsmh876pPmdM66BuFic5dueCo0gGra1s8vEoxf2czuimitBZNSRY3pGMtcgszNexQnU3biedhIlAxmkiTVaNEFLmnZCtPjzjga/sYNN3hqKJbFhFuWMxtHfREFoPqJEiK5qlZXdsMoaC2x0W0aPrLV3PrQC7ppL2Vf9cEqq8oIWbjewZ1OlCjnC3swTvqs3howVdSlKsoMYIlQe3KhR5YEUGFbaRXoXdXAnp3CFCDOmmVJh5HVGFCzMb3IaDs13lgQdMdWg313t1ZTGSJzp25oPRjKVEVJQ07txrgvSb7KMfbm9FFERXmOmTD0vQ0rIe/A2vzM/C7umVEHX8eJgIVo7MO5JSSrUyvKU8XXCc3wv36Mzw3DJtIK9G1hDQUHVpQC0RWKKiX0bVNA4qBZaN3dzImrF/xB9C+DTQ/g57tgmERMEpDqln9pOKgaJvDxt8eI+8NaX9oKTWwRUMOqSKylV0nntb+CP6eJjdzJ9IOBdQS0lB07FwNvbDCQcXPsWiy0VOYAu8Xl+B3dbGUztz9s3xYm/8atuPPg9JQ+UqrIevkd0G9FnXwtN1RRK6DqlPPsaVMbil58EPv50lQNMpyd7LGr1+EbV8C7DWa63N0lW6JsETHqwRKD6wcdL6iTT2KKAIVwaLZk4W+4kzus7z/ez7stx7rB3evfsQ1iibSNL6/1/uG89UsDagFYO1ehQ4NKPvbL6NzqwJqDqziLPTuyUTvrmT0V38To59/qLYJfnc3F3heDQOjLL+zE5MDNBQNDkDJdeBnAT+LIpNsZZrw0H+DXtQWjH3xAQ9ZB8qNsNH4nkAt4XJmNFiinSJKjar5Yc0F1UGg5rNoSmkFTELPjjj4nXK6S+lHqyG1DtPDcqROnTxtd2hvODsxBtpQk0VDftZA4waGQn+XXAcaWNiPbuRnlG6WPQLWMiMG9mfF7CZrOKxUiPYdq6EXVscWo7rq2d+SEbWg61CcyWk4fUdCGTiyiVsHsmhmffKQhrXpL9G3U/BGmgkAsNath2m3gO3gU/xoxjfKAwtzkYDjxHckvDs2nkjTVDomN1m1p5Xn3GSVoPTA2pWLMFCvxC9s0XAaZsH75SX4+v6HWwfqs6gpvXvzE97uUETRRppch/GuP8LX9UdYax6FqdjItjJ58OMtn8BalQtziYHnhvSMJtJWHt+ny6FFLO4bRoEVBKUDVntIROWhg0DpcB2o1+opTOXWoW9PNvpKV7HrwP57URJMpVkwleWgvyyL/Swy/0y742AqjGcPvr8kiac70nnIhoUm0nsTYClLipkHz5fK5+mzRFvBanD6EagFYLXlGzF6VTactp/mof0Vg26LpndPNkhz94amkkz1bBYfDCnNgLliNZz/+vdwnv2+HFiUpTOwEIumIgPWyoygtayMwWI0N6Q6pYgGFaKtYA2iwlKLfC6ogw8DtcXAFs1izL/w8f2c81nFKbA2PCnrkn8clup1chSmvTSgnHVYxit0AVD6YEUEFWW7M+9qqDgOWosmYP6RrWypfwKzM35Mj92CWQEVI9dh0a1D4O6OaNtOkBRFSUOOrFy05s1JvXyDLtchYlMaBktGlgpqepJHYuaqdTxojXhpYBkjS7QSKJ2wWvMSMHr1PzgtrGd+iJv/KNCeb5DaYkD7lngu8FTkWVvjuSmlDr5zWzzvDbu2C3QrKhDoLpAuA/Va5MHTwKK/Yg2fO+eICoCKeqZ0mWAxKL2wWl82wnvjtwxq6DdnYH3jn2B7awvL/vYWKHK8nQ/WO/lwKHo3Hw5WHpzvBvReHpzv5cGl6N/y4XznRXh+XoTZmSlM373DE2ka3yuHcFcqskTrtjUgUHpgtW42wnOpmUEtx9t4x6fsmJpKM1VQK3UdRbQQKL2wCnJ4u+O+eAijX/4Ko19eia6rVzB69Qq88+naFXg1Grt2BYqG//AWLPVPoq8oRW0flKhaiTRkULphvboG7QU5oMiiNKTi3ppnQBspX4prFtcrA/dZVKs6qWZtlaKNNNUsqTg2/7q3x4FVEMeOg1Kv6KyDaW+OCkrXAdz7VLNEy9a1IFC6YWmbUm2fpbikga+qB79b/9xQz/ksOWQN3t9ZrpolQd0PWAvYyvfaZ1FUhUTWQmdKY9SUipsESVGsI2u5YOk52q38Axj3eORI3HxlLWICi13S+f0sfRNpzRmtsKZ0nhsW9xmWBPUnDEtXzVKOdi8hDYOg/oRhLUfNEl9tWQtOPwL1oMC6D2kovtryEL6GtfA/NhYA9eDACqlZMWwdxFf5BEnREtJQcUiVr9SMqg3pCq6GMYIlbhCoJcDizbQuPysAa84IX+3gC+lAm/5jkgs6pXpu3y9iNfw/Xj1/TynrrO4AAAAASUVORK5CYII=;" vertex="1" parent="1">
          <mxGeometry x="220" y="-238.85" width="35" height="35" as="geometry" />
        </mxCell>
        <mxCell id="l0EMNmxLnOdooNni136J-361" value="Worker&#xa;Node" style="shape=image;verticalLabelPosition=bottom;labelBackgroundColor=#ffffff;verticalAlign=top;aspect=fixed;imageAspect=0;image=data:image/png,iVBORw0KGgoAAAANSUhEUgAAAEoAAABKCAYAAAAc0MJxAAARmUlEQVR4Ae2c+3OU53XHH2lX9zsCbOxQp9iuO0lN3Waw4z8gaab9JW1ju1jCgDAgCQldkNAFSSAwtxiwSSe+Nf3BEzvmOiGpncxkMk46nand2lyM7rfV7mrvEiBphVZaXb6dc559331Xuyu9QovUMN6Z70q8w1jej845z3m+53kQA9WZsFVnwLZfyr4/A/aaoBy16VBVlw6novp0OOvT4TqQpsrdkAZVjWnwNKZKNaXC05SKQdLBoIYOpWLoUIpUcwpuKTqcgtukI8mq7ryWDK2GjyZj+GgSho9JjRxLwsjxoEZPJGH0RCLLezIRqn6ciDFFrydg7PUE3CWdCmr8dALGTxulzhjhO2OEIFBLhlUfhEXgQmEFgN0DrFsMTAPrSBRYAWDzwRpdIiwxUCVBLRmWJrIeRFgS1NewOAXnS0NhJUiKvk7DqDVLWPdlIuawHsA0lKC+hgWvshLS1wirYRDUgwhLR+ugdzUUlsoscPoRqPsBa6VbhxjBYlD3HdZK16wYwFJB/b+ARZ18xA4+0L1TF6907/T1sNTtw/e/KRWWiiwQJEX3NQ2jRlY63HUGuPYJuKulPNUCnv1BDdYIsGoFBmsFhkh1Qd2qF7h1IKjbDQKK7jQKqGoSGDlqjLrdiVazhJlALSesCDXLVZuAwZMbMP7ZTzHRejmy2i5jciG1X8ZkQP72ywjXJfh+XwPaJ44cTVgULAa17LC0kVWfAldtIiZN/4nlevl+X80Rtpi9oTCXZ4FArRQsZ20i3IcfwuzEKGanJzFyaQeGP/hnjPzipVB99BJGAho99xJGz72oynvuRbDOvwivogsvwHvhBYyRLr4A7wc/hO+/T/Hvwt/xSwZFzoNeWBLUSsIiUM0PYWZ8GLP+u3A3psNZLuCqEnCTFqpZVLuUmqWpW1yzqG7VC9ym2lUp4P3wHySotosS1CJcB9Ffng2OqpWCpYK6g1n/OAaPfgNUs9xL9LPYotH4WQRr7OJLAVAXQkAtFFnkZYn+smysKKyaJBlRvmHMTvngIVB1CdLTWiIsrflHkaWAmmy7wCviYsw/CYpgla1MZDlqkuBqfpjrE/26Pa+tlxGluKUMa+nmH4HyBiJKAUWOqQpLm4Yat3T0uHRKhWmvhMSRFQ2Wpn249z4rHY6atFBbuTYNztoUOBuyMPTu93D7ve/D1ZgJV10y28uqU9qQCk9DSqit3JiCwaYU1Vqez1bmxrQuMqiosObYygwqBFa0mrVEWLZ9ibBVGkNg2auNcFQZ4KxNhWOfgKNSwFkdD2eNAa4DqQFLORWumni4ag1BD74xBe66OHjq41VQ5MXPB4uaU++Ff+EaNdl6gZvTiB68NrI0sFRQIbCiRda9dPDVabBVp2H8+gVMmj+H6/i3YK80wFmfDV/7x5g0fwb3kccYmOvQw5js/ZRFK6Gz2gDPsT+D3/IZJto/hvtgFtw18Rg69RT81s8wcfM8BhuTpQJDi2iwwkDVC9xZhAcvTKXZIEiKlBSMWc2qToWtKhXTd2z823Sf+lsM7BVw1GdjZmJUPjv+JOxlAq7mR/jP9OY+vA7OCgHPiSf4GfVZ7qZM3ubcOvsMP5sZGYCnMQmDpAWmO7TlmRtRNOXRC0v0leZg0bB0pqFtfxYGyg2wlgpMuTv5w7lPPg1rieCR2PSInZ+5jnwTtr0Crqa1mJ30slwH18JRLuA5+piEMmrnVCR4Q2e+zc+mPR2yz6oTGDyYNi8sBnVeSb2Lsr8KtA96YDGoPoqqaJF1LzVrXzoG9qXBWpYAe+N63P3iA8xO+/nDTXm64bfdgN/RAszOyGfuDvjtNzDlauM/0xt9z8/cHfLZ7AymnC2Yst/A9GCXfDbth+/azzF47FHeVHNkNSWrwLRpSE2pVwOKUnExroPoK8kBRRXD0qTgkmoWgapMg6VY4O7Vc+qHv1/f+G78gjt5TwOlYRCUtsATqNE5oHTPDY8lQYLSwooWWXoKfGUGLGWJGLt2EVPuLvgp3QJRM/T+y3Adfxru08+q8px5Fu6APG88C88bm6Te3IRBRWc3YfDsJgyRfqLR6W9j+MPNarRRGk57OuG7eV6uhnNaB7JoIoHSC0v0EiRFSmQtFpZSsyoyYClNwKTtRljwOI9vhKVQYKAsHgPlQdkq4qHIXhkHVfvi4FBUFQdHVRyc1dQ+SDnKBIZOy1ql/WFTjuvcOgxSn6Up8GGgaoUc4es0/0TvnhwsCla0mqW0DhUZsB/5Fhwn/gaOYxs5suiDuE49B+tew9LH9wGLhoBRhNGLatbQmb/CrTc34tapp+BpTAlzSskEHD0vI3Ci9SJvpLVnHeaNrKPJkKCiwbqnmpUNc4kR5iKB/kIB/8B1/jBaUEse39encWQpoCiKaDVkx6FGhHbwgYMhBGrkXABUiwS1GFs5CCoarMWmIUVWVS6sVat4qsOrGwCnElExGt87q4IRRashb3eaMrkpjXSKJgxUjYh4iiZaZIme4hxw+hGopcIqz4S5JAnjrZ9getjBQqAtcL7+HCyUejEa31PNogLPrxk/ZkbsmBlxYKLjY7ndmbM3JA8+JKIUUHoGFq8lQ/QUr8KiYZVmwlSSJlWahv7SVJa5LAP9JYmY6P9cfgDNO4MqNcRsfE+gaDWc+6LtDu0N3bSR1pzPIgNQC4oiTD2bpQNWAJROWHtz0FeUjL7iFJirHoG5OijL/nUwV+TAXJ4Ja8MG2JqexEDj4/C7ZMPIoEoMMRuy0oqogJpyd8B97DF4jm/gvSFB4lTU+FmRQGn7LIY2zyhM9BQRJEXzp2FvUQosDU9hvPNTTI8NYebu7RA53/weTEXx6C82wlQoYNol1FbB8ePvwqKAisFEmkG9KSNqyn6dtztOdh8EXA3pAechTXVKyVYe+ShYzCmilPZB28FHLPBHkiG6CZROWD0FAiP/9e8y2mdnMOv3YXZqQpXz7A9gKoyDpeYRWGu/AUvNOvid7fz3CZR5jzFm43s7RZQCytUG2hu6Dz8Md/NatmjmHmajFTEEVHUQ1EKRRU4pg9ILq2dHPMZu/oY/uOf9negvz4W5bgMspPoNMFfkwlScCF/XHzA74cXMhFftzBlUiZEHrfdu/mWoxh81pp4AKOr+lc002TTsZ5H5V2tURQOL4Q9/xP/vEy0XeTO9mDOlortwFQiUHlg9BfEYu/5r/mHOt36Enq2C6xXVLNOeFPSXZsBUnMygZibGGJayhXGclBEVq4k0g3ojUMwJ1IR0HRhUdTw7pZ6j60EaPLYe7sZcjFzeKUG1/pJBRR7fRz6AK7oIlE5Y3VpQ725Gzw4R4jr0s62cBcv+R2GpWQ8q8JOB1LMTqGIZUbGApQVFTgNZNO5D6+A69BA7pbd/9gO1JMjy4FOjmybS7n2Cu3e9sERXYa4EpQNWOKg46TpomtL+shyYihLQt0ug99VgMSdQVORjNb6n/SFtpOnlt19nP8teLtT94a33/g4z47dDdXcIk92/w+CJP4e7LiFiBx+twIuu3bnQBysb3ds1qUcRVUCgpE2j+lmlWbDUPw5r41/AcuAJ+J2yPbCfkKBiNZEmUOQ80IvaAzL/XMceZ1vZSUOLA1lwHaIoWwN3c1BK3aJBq0dpH3Qc7ZagdMKKCEpr0ZRkoq8oCT5TeMPJoIqMMRvfa0ExrcAbefDqwKImCU4ah9Umsmh876pPmdM66BuFic5dueCo0gGra1s8vEoxf2czuimitBZNSRY3pGMtcgszNexQnU3biedhIlAxmkiTVaNEFLmnZCtPjzjga/sYNN3hqKJbFhFuWMxtHfREFoPqJEiK5qlZXdsMoaC2x0W0aPrLV3PrQC7ppL2Vf9cEqq8oIWbjewZ1OlCjnC3swTvqs3howVdSlKsoMYIlQe3KhR5YEUGFbaRXoXdXAnp3CFCDOmmVJh5HVGFCzMb3IaDs13lgQdMdWg313t1ZTGSJzp25oPRjKVEVJQ07txrgvSb7KMfbm9FFERXmOmTD0vQ0rIe/A2vzM/C7umVEHX8eJgIVo7MO5JSSrUyvKU8XXCc3wv36Mzw3DJtIK9G1hDQUHVpQC0RWKKiX0bVNA4qBZaN3dzImrF/xB9C+DTQ/g57tgmERMEpDqln9pOKgaJvDxt8eI+8NaX9oKTWwRUMOqSKylV0nntb+CP6eJjdzJ9IOBdQS0lB07FwNvbDCQcXPsWiy0VOYAu8Xl+B3dbGUztz9s3xYm/8atuPPg9JQ+UqrIevkd0G9FnXwtN1RRK6DqlPPsaVMbil58EPv50lQNMpyd7LGr1+EbV8C7DWa63N0lW6JsETHqwRKD6wcdL6iTT2KKAIVwaLZk4W+4kzus7z/ez7stx7rB3evfsQ1iibSNL6/1/uG89UsDagFYO1ehQ4NKPvbL6NzqwJqDqziLPTuyUTvrmT0V38To59/qLYJfnc3F3heDQOjLL+zE5MDNBQNDkDJdeBnAT+LIpNsZZrw0H+DXtQWjH3xAQ9ZB8qNsNH4nkAt4XJmNFiinSJKjar5Yc0F1UGg5rNoSmkFTELPjjj4nXK6S+lHqyG1DtPDcqROnTxtd2hvODsxBtpQk0VDftZA4waGQn+XXAcaWNiPbuRnlG6WPQLWMiMG9mfF7CZrOKxUiPYdq6EXVscWo7rq2d+SEbWg61CcyWk4fUdCGTiyiVsHsmhmffKQhrXpL9G3U/BGmgkAsNath2m3gO3gU/xoxjfKAwtzkYDjxHckvDs2nkjTVDomN1m1p5Xn3GSVoPTA2pWLMFCvxC9s0XAaZsH75SX4+v6HWwfqs6gpvXvzE97uUETRRppch/GuP8LX9UdYax6FqdjItjJ58OMtn8BalQtziYHnhvSMJtJWHt+ny6FFLO4bRoEVBKUDVntIROWhg0DpcB2o1+opTOXWoW9PNvpKV7HrwP57URJMpVkwleWgvyyL/Swy/0y742AqjGcPvr8kiac70nnIhoUm0nsTYClLipkHz5fK5+mzRFvBanD6EagFYLXlGzF6VTactp/mof0Vg26LpndPNkhz94amkkz1bBYfDCnNgLliNZz/+vdwnv2+HFiUpTOwEIumIgPWyoygtayMwWI0N6Q6pYgGFaKtYA2iwlKLfC6ogw8DtcXAFs1izL/w8f2c81nFKbA2PCnrkn8clup1chSmvTSgnHVYxit0AVD6YEUEFWW7M+9qqDgOWosmYP6RrWypfwKzM35Mj92CWQEVI9dh0a1D4O6OaNtOkBRFSUOOrFy05s1JvXyDLtchYlMaBktGlgpqepJHYuaqdTxojXhpYBkjS7QSKJ2wWvMSMHr1PzgtrGd+iJv/KNCeb5DaYkD7lngu8FTkWVvjuSmlDr5zWzzvDbu2C3QrKhDoLpAuA/Va5MHTwKK/Yg2fO+eICoCKeqZ0mWAxKL2wWl82wnvjtwxq6DdnYH3jn2B7awvL/vYWKHK8nQ/WO/lwKHo3Hw5WHpzvBvReHpzv5cGl6N/y4XznRXh+XoTZmSlM373DE2ka3yuHcFcqskTrtjUgUHpgtW42wnOpmUEtx9t4x6fsmJpKM1VQK3UdRbQQKL2wCnJ4u+O+eAijX/4Ko19eia6rVzB69Qq88+naFXg1Grt2BYqG//AWLPVPoq8oRW0flKhaiTRkULphvboG7QU5oMiiNKTi3ppnQBspX4prFtcrA/dZVKs6qWZtlaKNNNUsqTg2/7q3x4FVEMeOg1Kv6KyDaW+OCkrXAdz7VLNEy9a1IFC6YWmbUm2fpbikga+qB79b/9xQz/ksOWQN3t9ZrpolQd0PWAvYyvfaZ1FUhUTWQmdKY9SUipsESVGsI2u5YOk52q38Axj3eORI3HxlLWICi13S+f0sfRNpzRmtsKZ0nhsW9xmWBPUnDEtXzVKOdi8hDYOg/oRhLUfNEl9tWQtOPwL1oMC6D2kovtryEL6GtfA/NhYA9eDACqlZMWwdxFf5BEnREtJQcUiVr9SMqg3pCq6GMYIlbhCoJcDizbQuPysAa84IX+3gC+lAm/5jkgs6pXpu3y9iNfw/Xj1/TynrrO4AAAAASUVORK5CYII=;" vertex="1" parent="1">
          <mxGeometry x="245" y="-227.63" width="40" height="40" as="geometry" />
        </mxCell>
        <mxCell id="l0EMNmxLnOdooNni136J-363" value="Worker&#xa;Node" style="shape=image;verticalLabelPosition=bottom;labelBackgroundColor=#ffffff;verticalAlign=top;aspect=fixed;imageAspect=0;image=data:image/png,iVBORw0KGgoAAAANSUhEUgAAAEoAAABKCAYAAAAc0MJxAAARmUlEQVR4Ae2c+3OU53XHH2lX9zsCbOxQp9iuO0lN3Waw4z8gaab9JW1ju1jCgDAgCQldkNAFSSAwtxiwSSe+Nf3BEzvmOiGpncxkMk46nand2lyM7rfV7mrvEiBphVZaXb6dc559331Xuyu9QovUMN6Z70q8w1jej845z3m+53kQA9WZsFVnwLZfyr4/A/aaoBy16VBVlw6novp0OOvT4TqQpsrdkAZVjWnwNKZKNaXC05SKQdLBoIYOpWLoUIpUcwpuKTqcgtukI8mq7ryWDK2GjyZj+GgSho9JjRxLwsjxoEZPJGH0RCLLezIRqn6ciDFFrydg7PUE3CWdCmr8dALGTxulzhjhO2OEIFBLhlUfhEXgQmEFgN0DrFsMTAPrSBRYAWDzwRpdIiwxUCVBLRmWJrIeRFgS1NewOAXnS0NhJUiKvk7DqDVLWPdlIuawHsA0lKC+hgWvshLS1wirYRDUgwhLR+ugdzUUlsoscPoRqPsBa6VbhxjBYlD3HdZK16wYwFJB/b+ARZ18xA4+0L1TF6907/T1sNTtw/e/KRWWiiwQJEX3NQ2jRlY63HUGuPYJuKulPNUCnv1BDdYIsGoFBmsFhkh1Qd2qF7h1IKjbDQKK7jQKqGoSGDlqjLrdiVazhJlALSesCDXLVZuAwZMbMP7ZTzHRejmy2i5jciG1X8ZkQP72ywjXJfh+XwPaJ44cTVgULAa17LC0kVWfAldtIiZN/4nlevl+X80Rtpi9oTCXZ4FArRQsZ20i3IcfwuzEKGanJzFyaQeGP/hnjPzipVB99BJGAho99xJGz72oynvuRbDOvwivogsvwHvhBYyRLr4A7wc/hO+/T/Hvwt/xSwZFzoNeWBLUSsIiUM0PYWZ8GLP+u3A3psNZLuCqEnCTFqpZVLuUmqWpW1yzqG7VC9ym2lUp4P3wHySotosS1CJcB9Ffng2OqpWCpYK6g1n/OAaPfgNUs9xL9LPYotH4WQRr7OJLAVAXQkAtFFnkZYn+smysKKyaJBlRvmHMTvngIVB1CdLTWiIsrflHkaWAmmy7wCviYsw/CYpgla1MZDlqkuBqfpjrE/26Pa+tlxGluKUMa+nmH4HyBiJKAUWOqQpLm4Yat3T0uHRKhWmvhMSRFQ2Wpn249z4rHY6atFBbuTYNztoUOBuyMPTu93D7ve/D1ZgJV10y28uqU9qQCk9DSqit3JiCwaYU1Vqez1bmxrQuMqiosObYygwqBFa0mrVEWLZ9ibBVGkNg2auNcFQZ4KxNhWOfgKNSwFkdD2eNAa4DqQFLORWumni4ag1BD74xBe66OHjq41VQ5MXPB4uaU++Ff+EaNdl6gZvTiB68NrI0sFRQIbCiRda9dPDVabBVp2H8+gVMmj+H6/i3YK80wFmfDV/7x5g0fwb3kccYmOvQw5js/ZRFK6Gz2gDPsT+D3/IZJto/hvtgFtw18Rg69RT81s8wcfM8BhuTpQJDi2iwwkDVC9xZhAcvTKXZIEiKlBSMWc2qToWtKhXTd2z823Sf+lsM7BVw1GdjZmJUPjv+JOxlAq7mR/jP9OY+vA7OCgHPiSf4GfVZ7qZM3ubcOvsMP5sZGYCnMQmDpAWmO7TlmRtRNOXRC0v0leZg0bB0pqFtfxYGyg2wlgpMuTv5w7lPPg1rieCR2PSInZ+5jnwTtr0Crqa1mJ30slwH18JRLuA5+piEMmrnVCR4Q2e+zc+mPR2yz6oTGDyYNi8sBnVeSb2Lsr8KtA96YDGoPoqqaJF1LzVrXzoG9qXBWpYAe+N63P3iA8xO+/nDTXm64bfdgN/RAszOyGfuDvjtNzDlauM/0xt9z8/cHfLZ7AymnC2Yst/A9GCXfDbth+/azzF47FHeVHNkNSWrwLRpSE2pVwOKUnExroPoK8kBRRXD0qTgkmoWgapMg6VY4O7Vc+qHv1/f+G78gjt5TwOlYRCUtsATqNE5oHTPDY8lQYLSwooWWXoKfGUGLGWJGLt2EVPuLvgp3QJRM/T+y3Adfxru08+q8px5Fu6APG88C88bm6Te3IRBRWc3YfDsJgyRfqLR6W9j+MPNarRRGk57OuG7eV6uhnNaB7JoIoHSC0v0EiRFSmQtFpZSsyoyYClNwKTtRljwOI9vhKVQYKAsHgPlQdkq4qHIXhkHVfvi4FBUFQdHVRyc1dQ+SDnKBIZOy1ql/WFTjuvcOgxSn6Up8GGgaoUc4es0/0TvnhwsCla0mqW0DhUZsB/5Fhwn/gaOYxs5suiDuE49B+tew9LH9wGLhoBRhNGLatbQmb/CrTc34tapp+BpTAlzSskEHD0vI3Ci9SJvpLVnHeaNrKPJkKCiwbqnmpUNc4kR5iKB/kIB/8B1/jBaUEse39encWQpoCiKaDVkx6FGhHbwgYMhBGrkXABUiwS1GFs5CCoarMWmIUVWVS6sVat4qsOrGwCnElExGt87q4IRRashb3eaMrkpjXSKJgxUjYh4iiZaZIme4hxw+hGopcIqz4S5JAnjrZ9getjBQqAtcL7+HCyUejEa31PNogLPrxk/ZkbsmBlxYKLjY7ndmbM3JA8+JKIUUHoGFq8lQ/QUr8KiYZVmwlSSJlWahv7SVJa5LAP9JYmY6P9cfgDNO4MqNcRsfE+gaDWc+6LtDu0N3bSR1pzPIgNQC4oiTD2bpQNWAJROWHtz0FeUjL7iFJirHoG5OijL/nUwV+TAXJ4Ja8MG2JqexEDj4/C7ZMPIoEoMMRuy0oqogJpyd8B97DF4jm/gvSFB4lTU+FmRQGn7LIY2zyhM9BQRJEXzp2FvUQosDU9hvPNTTI8NYebu7RA53/weTEXx6C82wlQoYNol1FbB8ePvwqKAisFEmkG9KSNqyn6dtztOdh8EXA3pAechTXVKyVYe+ShYzCmilPZB28FHLPBHkiG6CZROWD0FAiP/9e8y2mdnMOv3YXZqQpXz7A9gKoyDpeYRWGu/AUvNOvid7fz3CZR5jzFm43s7RZQCytUG2hu6Dz8Md/NatmjmHmajFTEEVHUQ1EKRRU4pg9ILq2dHPMZu/oY/uOf9negvz4W5bgMspPoNMFfkwlScCF/XHzA74cXMhFftzBlUiZEHrfdu/mWoxh81pp4AKOr+lc002TTsZ5H5V2tURQOL4Q9/xP/vEy0XeTO9mDOlortwFQiUHlg9BfEYu/5r/mHOt36Enq2C6xXVLNOeFPSXZsBUnMygZibGGJayhXGclBEVq4k0g3ojUMwJ1IR0HRhUdTw7pZ6j60EaPLYe7sZcjFzeKUG1/pJBRR7fRz6AK7oIlE5Y3VpQ725Gzw4R4jr0s62cBcv+R2GpWQ8q8JOB1LMTqGIZUbGApQVFTgNZNO5D6+A69BA7pbd/9gO1JMjy4FOjmybS7n2Cu3e9sERXYa4EpQNWOKg46TpomtL+shyYihLQt0ug99VgMSdQVORjNb6n/SFtpOnlt19nP8teLtT94a33/g4z47dDdXcIk92/w+CJP4e7LiFiBx+twIuu3bnQBysb3ds1qUcRVUCgpE2j+lmlWbDUPw5r41/AcuAJ+J2yPbCfkKBiNZEmUOQ80IvaAzL/XMceZ1vZSUOLA1lwHaIoWwN3c1BK3aJBq0dpH3Qc7ZagdMKKCEpr0ZRkoq8oCT5TeMPJoIqMMRvfa0ExrcAbefDqwKImCU4ah9Umsmh876pPmdM66BuFic5dueCo0gGra1s8vEoxf2czuimitBZNSRY3pGMtcgszNexQnU3biedhIlAxmkiTVaNEFLmnZCtPjzjga/sYNN3hqKJbFhFuWMxtHfREFoPqJEiK5qlZXdsMoaC2x0W0aPrLV3PrQC7ppL2Vf9cEqq8oIWbjewZ1OlCjnC3swTvqs3howVdSlKsoMYIlQe3KhR5YEUGFbaRXoXdXAnp3CFCDOmmVJh5HVGFCzMb3IaDs13lgQdMdWg313t1ZTGSJzp25oPRjKVEVJQ07txrgvSb7KMfbm9FFERXmOmTD0vQ0rIe/A2vzM/C7umVEHX8eJgIVo7MO5JSSrUyvKU8XXCc3wv36Mzw3DJtIK9G1hDQUHVpQC0RWKKiX0bVNA4qBZaN3dzImrF/xB9C+DTQ/g57tgmERMEpDqln9pOKgaJvDxt8eI+8NaX9oKTWwRUMOqSKylV0nntb+CP6eJjdzJ9IOBdQS0lB07FwNvbDCQcXPsWiy0VOYAu8Xl+B3dbGUztz9s3xYm/8atuPPg9JQ+UqrIevkd0G9FnXwtN1RRK6DqlPPsaVMbil58EPv50lQNMpyd7LGr1+EbV8C7DWa63N0lW6JsETHqwRKD6wcdL6iTT2KKAIVwaLZk4W+4kzus7z/ez7stx7rB3evfsQ1iibSNL6/1/uG89UsDagFYO1ehQ4NKPvbL6NzqwJqDqziLPTuyUTvrmT0V38To59/qLYJfnc3F3heDQOjLL+zE5MDNBQNDkDJdeBnAT+LIpNsZZrw0H+DXtQWjH3xAQ9ZB8qNsNH4nkAt4XJmNFiinSJKjar5Yc0F1UGg5rNoSmkFTELPjjj4nXK6S+lHqyG1DtPDcqROnTxtd2hvODsxBtpQk0VDftZA4waGQn+XXAcaWNiPbuRnlG6WPQLWMiMG9mfF7CZrOKxUiPYdq6EXVscWo7rq2d+SEbWg61CcyWk4fUdCGTiyiVsHsmhmffKQhrXpL9G3U/BGmgkAsNath2m3gO3gU/xoxjfKAwtzkYDjxHckvDs2nkjTVDomN1m1p5Xn3GSVoPTA2pWLMFCvxC9s0XAaZsH75SX4+v6HWwfqs6gpvXvzE97uUETRRppch/GuP8LX9UdYax6FqdjItjJ58OMtn8BalQtziYHnhvSMJtJWHt+ny6FFLO4bRoEVBKUDVntIROWhg0DpcB2o1+opTOXWoW9PNvpKV7HrwP57URJMpVkwleWgvyyL/Swy/0y742AqjGcPvr8kiac70nnIhoUm0nsTYClLipkHz5fK5+mzRFvBanD6EagFYLXlGzF6VTactp/mof0Vg26LpndPNkhz94amkkz1bBYfDCnNgLliNZz/+vdwnv2+HFiUpTOwEIumIgPWyoygtayMwWI0N6Q6pYgGFaKtYA2iwlKLfC6ogw8DtcXAFs1izL/w8f2c81nFKbA2PCnrkn8clup1chSmvTSgnHVYxit0AVD6YEUEFWW7M+9qqDgOWosmYP6RrWypfwKzM35Mj92CWQEVI9dh0a1D4O6OaNtOkBRFSUOOrFy05s1JvXyDLtchYlMaBktGlgpqepJHYuaqdTxojXhpYBkjS7QSKJ2wWvMSMHr1PzgtrGd+iJv/KNCeb5DaYkD7lngu8FTkWVvjuSmlDr5zWzzvDbu2C3QrKhDoLpAuA/Va5MHTwKK/Yg2fO+eICoCKeqZ0mWAxKL2wWl82wnvjtwxq6DdnYH3jn2B7awvL/vYWKHK8nQ/WO/lwKHo3Hw5WHpzvBvReHpzv5cGl6N/y4XznRXh+XoTZmSlM373DE2ka3yuHcFcqskTrtjUgUHpgtW42wnOpmUEtx9t4x6fsmJpKM1VQK3UdRbQQKL2wCnJ4u+O+eAijX/4Ko19eia6rVzB69Qq88+naFXg1Grt2BYqG//AWLPVPoq8oRW0flKhaiTRkULphvboG7QU5oMiiNKTi3ppnQBspX4prFtcrA/dZVKs6qWZtlaKNNNUsqTg2/7q3x4FVEMeOg1Kv6KyDaW+OCkrXAdz7VLNEy9a1IFC6YWmbUm2fpbikga+qB79b/9xQz/ksOWQN3t9ZrpolQd0PWAvYyvfaZ1FUhUTWQmdKY9SUipsESVGsI2u5YOk52q38Axj3eORI3HxlLWICi13S+f0sfRNpzRmtsKZ0nhsW9xmWBPUnDEtXzVKOdi8hDYOg/oRhLUfNEl9tWQtOPwL1oMC6D2kovtryEL6GtfA/NhYA9eDACqlZMWwdxFf5BEnREtJQcUiVr9SMqg3pCq6GMYIlbhCoJcDizbQuPysAa84IX+3gC+lAm/5jkgs6pXpu3y9iNfw/Xj1/TynrrO4AAAAASUVORK5CYII=;" vertex="1" parent="1">
          <mxGeometry x="417.5" y="-363.91" width="40" height="40" as="geometry" />
        </mxCell>
        <mxCell id="l0EMNmxLnOdooNni136J-364" value="" style="shape=image;verticalLabelPosition=bottom;labelBackgroundColor=#ffffff;verticalAlign=top;aspect=fixed;imageAspect=0;image=data:image/png,iVBORw0KGgoAAAANSUhEUgAAAEoAAABKCAYAAAAc0MJxAAARmUlEQVR4Ae2c+3OU53XHH2lX9zsCbOxQp9iuO0lN3Waw4z8gaab9JW1ju1jCgDAgCQldkNAFSSAwtxiwSSe+Nf3BEzvmOiGpncxkMk46nand2lyM7rfV7mrvEiBphVZaXb6dc559331Xuyu9QovUMN6Z70q8w1jej845z3m+53kQA9WZsFVnwLZfyr4/A/aaoBy16VBVlw6novp0OOvT4TqQpsrdkAZVjWnwNKZKNaXC05SKQdLBoIYOpWLoUIpUcwpuKTqcgtukI8mq7ryWDK2GjyZj+GgSho9JjRxLwsjxoEZPJGH0RCLLezIRqn6ciDFFrydg7PUE3CWdCmr8dALGTxulzhjhO2OEIFBLhlUfhEXgQmEFgN0DrFsMTAPrSBRYAWDzwRpdIiwxUCVBLRmWJrIeRFgS1NewOAXnS0NhJUiKvk7DqDVLWPdlIuawHsA0lKC+hgWvshLS1wirYRDUgwhLR+ugdzUUlsoscPoRqPsBa6VbhxjBYlD3HdZK16wYwFJB/b+ARZ18xA4+0L1TF6907/T1sNTtw/e/KRWWiiwQJEX3NQ2jRlY63HUGuPYJuKulPNUCnv1BDdYIsGoFBmsFhkh1Qd2qF7h1IKjbDQKK7jQKqGoSGDlqjLrdiVazhJlALSesCDXLVZuAwZMbMP7ZTzHRejmy2i5jciG1X8ZkQP72ywjXJfh+XwPaJ44cTVgULAa17LC0kVWfAldtIiZN/4nlevl+X80Rtpi9oTCXZ4FArRQsZ20i3IcfwuzEKGanJzFyaQeGP/hnjPzipVB99BJGAho99xJGz72oynvuRbDOvwivogsvwHvhBYyRLr4A7wc/hO+/T/Hvwt/xSwZFzoNeWBLUSsIiUM0PYWZ8GLP+u3A3psNZLuCqEnCTFqpZVLuUmqWpW1yzqG7VC9ym2lUp4P3wHySotosS1CJcB9Ffng2OqpWCpYK6g1n/OAaPfgNUs9xL9LPYotH4WQRr7OJLAVAXQkAtFFnkZYn+smysKKyaJBlRvmHMTvngIVB1CdLTWiIsrflHkaWAmmy7wCviYsw/CYpgla1MZDlqkuBqfpjrE/26Pa+tlxGluKUMa+nmH4HyBiJKAUWOqQpLm4Yat3T0uHRKhWmvhMSRFQ2Wpn249z4rHY6atFBbuTYNztoUOBuyMPTu93D7ve/D1ZgJV10y28uqU9qQCk9DSqit3JiCwaYU1Vqez1bmxrQuMqiosObYygwqBFa0mrVEWLZ9ibBVGkNg2auNcFQZ4KxNhWOfgKNSwFkdD2eNAa4DqQFLORWumni4ag1BD74xBe66OHjq41VQ5MXPB4uaU++Ff+EaNdl6gZvTiB68NrI0sFRQIbCiRda9dPDVabBVp2H8+gVMmj+H6/i3YK80wFmfDV/7x5g0fwb3kccYmOvQw5js/ZRFK6Gz2gDPsT+D3/IZJto/hvtgFtw18Rg69RT81s8wcfM8BhuTpQJDi2iwwkDVC9xZhAcvTKXZIEiKlBSMWc2qToWtKhXTd2z823Sf+lsM7BVw1GdjZmJUPjv+JOxlAq7mR/jP9OY+vA7OCgHPiSf4GfVZ7qZM3ubcOvsMP5sZGYCnMQmDpAWmO7TlmRtRNOXRC0v0leZg0bB0pqFtfxYGyg2wlgpMuTv5w7lPPg1rieCR2PSInZ+5jnwTtr0Crqa1mJ30slwH18JRLuA5+piEMmrnVCR4Q2e+zc+mPR2yz6oTGDyYNi8sBnVeSb2Lsr8KtA96YDGoPoqqaJF1LzVrXzoG9qXBWpYAe+N63P3iA8xO+/nDTXm64bfdgN/RAszOyGfuDvjtNzDlauM/0xt9z8/cHfLZ7AymnC2Yst/A9GCXfDbth+/azzF47FHeVHNkNSWrwLRpSE2pVwOKUnExroPoK8kBRRXD0qTgkmoWgapMg6VY4O7Vc+qHv1/f+G78gjt5TwOlYRCUtsATqNE5oHTPDY8lQYLSwooWWXoKfGUGLGWJGLt2EVPuLvgp3QJRM/T+y3Adfxru08+q8px5Fu6APG88C88bm6Te3IRBRWc3YfDsJgyRfqLR6W9j+MPNarRRGk57OuG7eV6uhnNaB7JoIoHSC0v0EiRFSmQtFpZSsyoyYClNwKTtRljwOI9vhKVQYKAsHgPlQdkq4qHIXhkHVfvi4FBUFQdHVRyc1dQ+SDnKBIZOy1ql/WFTjuvcOgxSn6Up8GGgaoUc4es0/0TvnhwsCla0mqW0DhUZsB/5Fhwn/gaOYxs5suiDuE49B+tew9LH9wGLhoBRhNGLatbQmb/CrTc34tapp+BpTAlzSskEHD0vI3Ci9SJvpLVnHeaNrKPJkKCiwbqnmpUNc4kR5iKB/kIB/8B1/jBaUEse39encWQpoCiKaDVkx6FGhHbwgYMhBGrkXABUiwS1GFs5CCoarMWmIUVWVS6sVat4qsOrGwCnElExGt87q4IRRashb3eaMrkpjXSKJgxUjYh4iiZaZIme4hxw+hGopcIqz4S5JAnjrZ9getjBQqAtcL7+HCyUejEa31PNogLPrxk/ZkbsmBlxYKLjY7ndmbM3JA8+JKIUUHoGFq8lQ/QUr8KiYZVmwlSSJlWahv7SVJa5LAP9JYmY6P9cfgDNO4MqNcRsfE+gaDWc+6LtDu0N3bSR1pzPIgNQC4oiTD2bpQNWAJROWHtz0FeUjL7iFJirHoG5OijL/nUwV+TAXJ4Ja8MG2JqexEDj4/C7ZMPIoEoMMRuy0oqogJpyd8B97DF4jm/gvSFB4lTU+FmRQGn7LIY2zyhM9BQRJEXzp2FvUQosDU9hvPNTTI8NYebu7RA53/weTEXx6C82wlQoYNol1FbB8ePvwqKAisFEmkG9KSNqyn6dtztOdh8EXA3pAechTXVKyVYe+ShYzCmilPZB28FHLPBHkiG6CZROWD0FAiP/9e8y2mdnMOv3YXZqQpXz7A9gKoyDpeYRWGu/AUvNOvid7fz3CZR5jzFm43s7RZQCytUG2hu6Dz8Md/NatmjmHmajFTEEVHUQ1EKRRU4pg9ILq2dHPMZu/oY/uOf9negvz4W5bgMspPoNMFfkwlScCF/XHzA74cXMhFftzBlUiZEHrfdu/mWoxh81pp4AKOr+lc002TTsZ5H5V2tURQOL4Q9/xP/vEy0XeTO9mDOlortwFQiUHlg9BfEYu/5r/mHOt36Enq2C6xXVLNOeFPSXZsBUnMygZibGGJayhXGclBEVq4k0g3ojUMwJ1IR0HRhUdTw7pZ6j60EaPLYe7sZcjFzeKUG1/pJBRR7fRz6AK7oIlE5Y3VpQ725Gzw4R4jr0s62cBcv+R2GpWQ8q8JOB1LMTqGIZUbGApQVFTgNZNO5D6+A69BA7pbd/9gO1JMjy4FOjmybS7n2Cu3e9sERXYa4EpQNWOKg46TpomtL+shyYihLQt0ug99VgMSdQVORjNb6n/SFtpOnlt19nP8teLtT94a33/g4z47dDdXcIk92/w+CJP4e7LiFiBx+twIuu3bnQBysb3ds1qUcRVUCgpE2j+lmlWbDUPw5r41/AcuAJ+J2yPbCfkKBiNZEmUOQ80IvaAzL/XMceZ1vZSUOLA1lwHaIoWwN3c1BK3aJBq0dpH3Qc7ZagdMKKCEpr0ZRkoq8oCT5TeMPJoIqMMRvfa0ExrcAbefDqwKImCU4ah9Umsmh876pPmdM66BuFic5dueCo0gGra1s8vEoxf2czuimitBZNSRY3pGMtcgszNexQnU3biedhIlAxmkiTVaNEFLmnZCtPjzjga/sYNN3hqKJbFhFuWMxtHfREFoPqJEiK5qlZXdsMoaC2x0W0aPrLV3PrQC7ppL2Vf9cEqq8oIWbjewZ1OlCjnC3swTvqs3howVdSlKsoMYIlQe3KhR5YEUGFbaRXoXdXAnp3CFCDOmmVJh5HVGFCzMb3IaDs13lgQdMdWg313t1ZTGSJzp25oPRjKVEVJQ07txrgvSb7KMfbm9FFERXmOmTD0vQ0rIe/A2vzM/C7umVEHX8eJgIVo7MO5JSSrUyvKU8XXCc3wv36Mzw3DJtIK9G1hDQUHVpQC0RWKKiX0bVNA4qBZaN3dzImrF/xB9C+DTQ/g57tgmERMEpDqln9pOKgaJvDxt8eI+8NaX9oKTWwRUMOqSKylV0nntb+CP6eJjdzJ9IOBdQS0lB07FwNvbDCQcXPsWiy0VOYAu8Xl+B3dbGUztz9s3xYm/8atuPPg9JQ+UqrIevkd0G9FnXwtN1RRK6DqlPPsaVMbil58EPv50lQNMpyd7LGr1+EbV8C7DWa63N0lW6JsETHqwRKD6wcdL6iTT2KKAIVwaLZk4W+4kzus7z/ez7stx7rB3evfsQ1iibSNL6/1/uG89UsDagFYO1ehQ4NKPvbL6NzqwJqDqziLPTuyUTvrmT0V38To59/qLYJfnc3F3heDQOjLL+zE5MDNBQNDkDJdeBnAT+LIpNsZZrw0H+DXtQWjH3xAQ9ZB8qNsNH4nkAt4XJmNFiinSJKjar5Yc0F1UGg5rNoSmkFTELPjjj4nXK6S+lHqyG1DtPDcqROnTxtd2hvODsxBtpQk0VDftZA4waGQn+XXAcaWNiPbuRnlG6WPQLWMiMG9mfF7CZrOKxUiPYdq6EXVscWo7rq2d+SEbWg61CcyWk4fUdCGTiyiVsHsmhmffKQhrXpL9G3U/BGmgkAsNath2m3gO3gU/xoxjfKAwtzkYDjxHckvDs2nkjTVDomN1m1p5Xn3GSVoPTA2pWLMFCvxC9s0XAaZsH75SX4+v6HWwfqs6gpvXvzE97uUETRRppch/GuP8LX9UdYax6FqdjItjJ58OMtn8BalQtziYHnhvSMJtJWHt+ny6FFLO4bRoEVBKUDVntIROWhg0DpcB2o1+opTOXWoW9PNvpKV7HrwP57URJMpVkwleWgvyyL/Swy/0y742AqjGcPvr8kiac70nnIhoUm0nsTYClLipkHz5fK5+mzRFvBanD6EagFYLXlGzF6VTactp/mof0Vg26LpndPNkhz94amkkz1bBYfDCnNgLliNZz/+vdwnv2+HFiUpTOwEIumIgPWyoygtayMwWI0N6Q6pYgGFaKtYA2iwlKLfC6ogw8DtcXAFs1izL/w8f2c81nFKbA2PCnrkn8clup1chSmvTSgnHVYxit0AVD6YEUEFWW7M+9qqDgOWosmYP6RrWypfwKzM35Mj92CWQEVI9dh0a1D4O6OaNtOkBRFSUOOrFy05s1JvXyDLtchYlMaBktGlgpqepJHYuaqdTxojXhpYBkjS7QSKJ2wWvMSMHr1PzgtrGd+iJv/KNCeb5DaYkD7lngu8FTkWVvjuSmlDr5zWzzvDbu2C3QrKhDoLpAuA/Va5MHTwKK/Yg2fO+eICoCKeqZ0mWAxKL2wWl82wnvjtwxq6DdnYH3jn2B7awvL/vYWKHK8nQ/WO/lwKHo3Hw5WHpzvBvReHpzv5cGl6N/y4XznRXh+XoTZmSlM373DE2ka3yuHcFcqskTrtjUgUHpgtW42wnOpmUEtx9t4x6fsmJpKM1VQK3UdRbQQKL2wCnJ4u+O+eAijX/4Ko19eia6rVzB69Qq88+naFXg1Grt2BYqG//AWLPVPoq8oRW0flKhaiTRkULphvboG7QU5oMiiNKTi3ppnQBspX4prFtcrA/dZVKs6qWZtlaKNNNUsqTg2/7q3x4FVEMeOg1Kv6KyDaW+OCkrXAdz7VLNEy9a1IFC6YWmbUm2fpbikga+qB79b/9xQz/ksOWQN3t9ZrpolQd0PWAvYyvfaZ1FUhUTWQmdKY9SUipsESVGsI2u5YOk52q38Axj3eORI3HxlLWICi13S+f0sfRNpzRmtsKZ0nhsW9xmWBPUnDEtXzVKOdi8hDYOg/oRhLUfNEl9tWQtOPwL1oMC6D2kovtryEL6GtfA/NhYA9eDACqlZMWwdxFf5BEnREtJQcUiVr9SMqg3pCq6GMYIlbhCoJcDizbQuPysAa84IX+3gC+lAm/5jkgs6pXpu3y9iNfw/Xj1/TynrrO4AAAAASUVORK5CYII=;" vertex="1" parent="1">
          <mxGeometry x="382.5" y="-241" width="40" height="40" as="geometry" />
        </mxCell>
        <mxCell id="l0EMNmxLnOdooNni136J-365" value="Worker&#xa;Node" style="shape=image;verticalLabelPosition=bottom;labelBackgroundColor=#ffffff;verticalAlign=top;aspect=fixed;imageAspect=0;image=data:image/png,iVBORw0KGgoAAAANSUhEUgAAAEoAAABKCAYAAAAc0MJxAAARmUlEQVR4Ae2c+3OU53XHH2lX9zsCbOxQp9iuO0lN3Waw4z8gaab9JW1ju1jCgDAgCQldkNAFSSAwtxiwSSe+Nf3BEzvmOiGpncxkMk46nand2lyM7rfV7mrvEiBphVZaXb6dc559331Xuyu9QovUMN6Z70q8w1jej845z3m+53kQA9WZsFVnwLZfyr4/A/aaoBy16VBVlw6novp0OOvT4TqQpsrdkAZVjWnwNKZKNaXC05SKQdLBoIYOpWLoUIpUcwpuKTqcgtukI8mq7ryWDK2GjyZj+GgSho9JjRxLwsjxoEZPJGH0RCLLezIRqn6ciDFFrydg7PUE3CWdCmr8dALGTxulzhjhO2OEIFBLhlUfhEXgQmEFgN0DrFsMTAPrSBRYAWDzwRpdIiwxUCVBLRmWJrIeRFgS1NewOAXnS0NhJUiKvk7DqDVLWPdlIuawHsA0lKC+hgWvshLS1wirYRDUgwhLR+ugdzUUlsoscPoRqPsBa6VbhxjBYlD3HdZK16wYwFJB/b+ARZ18xA4+0L1TF6907/T1sNTtw/e/KRWWiiwQJEX3NQ2jRlY63HUGuPYJuKulPNUCnv1BDdYIsGoFBmsFhkh1Qd2qF7h1IKjbDQKK7jQKqGoSGDlqjLrdiVazhJlALSesCDXLVZuAwZMbMP7ZTzHRejmy2i5jciG1X8ZkQP72ywjXJfh+XwPaJ44cTVgULAa17LC0kVWfAldtIiZN/4nlevl+X80Rtpi9oTCXZ4FArRQsZ20i3IcfwuzEKGanJzFyaQeGP/hnjPzipVB99BJGAho99xJGz72oynvuRbDOvwivogsvwHvhBYyRLr4A7wc/hO+/T/Hvwt/xSwZFzoNeWBLUSsIiUM0PYWZ8GLP+u3A3psNZLuCqEnCTFqpZVLuUmqWpW1yzqG7VC9ym2lUp4P3wHySotosS1CJcB9Ffng2OqpWCpYK6g1n/OAaPfgNUs9xL9LPYotH4WQRr7OJLAVAXQkAtFFnkZYn+smysKKyaJBlRvmHMTvngIVB1CdLTWiIsrflHkaWAmmy7wCviYsw/CYpgla1MZDlqkuBqfpjrE/26Pa+tlxGluKUMa+nmH4HyBiJKAUWOqQpLm4Yat3T0uHRKhWmvhMSRFQ2Wpn249z4rHY6atFBbuTYNztoUOBuyMPTu93D7ve/D1ZgJV10y28uqU9qQCk9DSqit3JiCwaYU1Vqez1bmxrQuMqiosObYygwqBFa0mrVEWLZ9ibBVGkNg2auNcFQZ4KxNhWOfgKNSwFkdD2eNAa4DqQFLORWumni4ag1BD74xBe66OHjq41VQ5MXPB4uaU++Ff+EaNdl6gZvTiB68NrI0sFRQIbCiRda9dPDVabBVp2H8+gVMmj+H6/i3YK80wFmfDV/7x5g0fwb3kccYmOvQw5js/ZRFK6Gz2gDPsT+D3/IZJto/hvtgFtw18Rg69RT81s8wcfM8BhuTpQJDi2iwwkDVC9xZhAcvTKXZIEiKlBSMWc2qToWtKhXTd2z823Sf+lsM7BVw1GdjZmJUPjv+JOxlAq7mR/jP9OY+vA7OCgHPiSf4GfVZ7qZM3ubcOvsMP5sZGYCnMQmDpAWmO7TlmRtRNOXRC0v0leZg0bB0pqFtfxYGyg2wlgpMuTv5w7lPPg1rieCR2PSInZ+5jnwTtr0Crqa1mJ30slwH18JRLuA5+piEMmrnVCR4Q2e+zc+mPR2yz6oTGDyYNi8sBnVeSb2Lsr8KtA96YDGoPoqqaJF1LzVrXzoG9qXBWpYAe+N63P3iA8xO+/nDTXm64bfdgN/RAszOyGfuDvjtNzDlauM/0xt9z8/cHfLZ7AymnC2Yst/A9GCXfDbth+/azzF47FHeVHNkNSWrwLRpSE2pVwOKUnExroPoK8kBRRXD0qTgkmoWgapMg6VY4O7Vc+qHv1/f+G78gjt5TwOlYRCUtsATqNE5oHTPDY8lQYLSwooWWXoKfGUGLGWJGLt2EVPuLvgp3QJRM/T+y3Adfxru08+q8px5Fu6APG88C88bm6Te3IRBRWc3YfDsJgyRfqLR6W9j+MPNarRRGk57OuG7eV6uhnNaB7JoIoHSC0v0EiRFSmQtFpZSsyoyYClNwKTtRljwOI9vhKVQYKAsHgPlQdkq4qHIXhkHVfvi4FBUFQdHVRyc1dQ+SDnKBIZOy1ql/WFTjuvcOgxSn6Up8GGgaoUc4es0/0TvnhwsCla0mqW0DhUZsB/5Fhwn/gaOYxs5suiDuE49B+tew9LH9wGLhoBRhNGLatbQmb/CrTc34tapp+BpTAlzSskEHD0vI3Ci9SJvpLVnHeaNrKPJkKCiwbqnmpUNc4kR5iKB/kIB/8B1/jBaUEse39encWQpoCiKaDVkx6FGhHbwgYMhBGrkXABUiwS1GFs5CCoarMWmIUVWVS6sVat4qsOrGwCnElExGt87q4IRRashb3eaMrkpjXSKJgxUjYh4iiZaZIme4hxw+hGopcIqz4S5JAnjrZ9getjBQqAtcL7+HCyUejEa31PNogLPrxk/ZkbsmBlxYKLjY7ndmbM3JA8+JKIUUHoGFq8lQ/QUr8KiYZVmwlSSJlWahv7SVJa5LAP9JYmY6P9cfgDNO4MqNcRsfE+gaDWc+6LtDu0N3bSR1pzPIgNQC4oiTD2bpQNWAJROWHtz0FeUjL7iFJirHoG5OijL/nUwV+TAXJ4Ja8MG2JqexEDj4/C7ZMPIoEoMMRuy0oqogJpyd8B97DF4jm/gvSFB4lTU+FmRQGn7LIY2zyhM9BQRJEXzp2FvUQosDU9hvPNTTI8NYebu7RA53/weTEXx6C82wlQoYNol1FbB8ePvwqKAisFEmkG9KSNqyn6dtztOdh8EXA3pAechTXVKyVYe+ShYzCmilPZB28FHLPBHkiG6CZROWD0FAiP/9e8y2mdnMOv3YXZqQpXz7A9gKoyDpeYRWGu/AUvNOvid7fz3CZR5jzFm43s7RZQCytUG2hu6Dz8Md/NatmjmHmajFTEEVHUQ1EKRRU4pg9ILq2dHPMZu/oY/uOf9negvz4W5bgMspPoNMFfkwlScCF/XHzA74cXMhFftzBlUiZEHrfdu/mWoxh81pp4AKOr+lc002TTsZ5H5V2tURQOL4Q9/xP/vEy0XeTO9mDOlortwFQiUHlg9BfEYu/5r/mHOt36Enq2C6xXVLNOeFPSXZsBUnMygZibGGJayhXGclBEVq4k0g3ojUMwJ1IR0HRhUdTw7pZ6j60EaPLYe7sZcjFzeKUG1/pJBRR7fRz6AK7oIlE5Y3VpQ725Gzw4R4jr0s62cBcv+R2GpWQ8q8JOB1LMTqGIZUbGApQVFTgNZNO5D6+A69BA7pbd/9gO1JMjy4FOjmybS7n2Cu3e9sERXYa4EpQNWOKg46TpomtL+shyYihLQt0ug99VgMSdQVORjNb6n/SFtpOnlt19nP8teLtT94a33/g4z47dDdXcIk92/w+CJP4e7LiFiBx+twIuu3bnQBysb3ds1qUcRVUCgpE2j+lmlWbDUPw5r41/AcuAJ+J2yPbCfkKBiNZEmUOQ80IvaAzL/XMceZ1vZSUOLA1lwHaIoWwN3c1BK3aJBq0dpH3Qc7ZagdMKKCEpr0ZRkoq8oCT5TeMPJoIqMMRvfa0ExrcAbefDqwKImCU4ah9Umsmh876pPmdM66BuFic5dueCo0gGra1s8vEoxf2czuimitBZNSRY3pGMtcgszNexQnU3biedhIlAxmkiTVaNEFLmnZCtPjzjga/sYNN3hqKJbFhFuWMxtHfREFoPqJEiK5qlZXdsMoaC2x0W0aPrLV3PrQC7ppL2Vf9cEqq8oIWbjewZ1OlCjnC3swTvqs3howVdSlKsoMYIlQe3KhR5YEUGFbaRXoXdXAnp3CFCDOmmVJh5HVGFCzMb3IaDs13lgQdMdWg313t1ZTGSJzp25oPRjKVEVJQ07txrgvSb7KMfbm9FFERXmOmTD0vQ0rIe/A2vzM/C7umVEHX8eJgIVo7MO5JSSrUyvKU8XXCc3wv36Mzw3DJtIK9G1hDQUHVpQC0RWKKiX0bVNA4qBZaN3dzImrF/xB9C+DTQ/g57tgmERMEpDqln9pOKgaJvDxt8eI+8NaX9oKTWwRUMOqSKylV0nntb+CP6eJjdzJ9IOBdQS0lB07FwNvbDCQcXPsWiy0VOYAu8Xl+B3dbGUztz9s3xYm/8atuPPg9JQ+UqrIevkd0G9FnXwtN1RRK6DqlPPsaVMbil58EPv50lQNMpyd7LGr1+EbV8C7DWa63N0lW6JsETHqwRKD6wcdL6iTT2KKAIVwaLZk4W+4kzus7z/ez7stx7rB3evfsQ1iibSNL6/1/uG89UsDagFYO1ehQ4NKPvbL6NzqwJqDqziLPTuyUTvrmT0V38To59/qLYJfnc3F3heDQOjLL+zE5MDNBQNDkDJdeBnAT+LIpNsZZrw0H+DXtQWjH3xAQ9ZB8qNsNH4nkAt4XJmNFiinSJKjar5Yc0F1UGg5rNoSmkFTELPjjj4nXK6S+lHqyG1DtPDcqROnTxtd2hvODsxBtpQk0VDftZA4waGQn+XXAcaWNiPbuRnlG6WPQLWMiMG9mfF7CZrOKxUiPYdq6EXVscWo7rq2d+SEbWg61CcyWk4fUdCGTiyiVsHsmhmffKQhrXpL9G3U/BGmgkAsNath2m3gO3gU/xoxjfKAwtzkYDjxHckvDs2nkjTVDomN1m1p5Xn3GSVoPTA2pWLMFCvxC9s0XAaZsH75SX4+v6HWwfqs6gpvXvzE97uUETRRppch/GuP8LX9UdYax6FqdjItjJ58OMtn8BalQtziYHnhvSMJtJWHt+ny6FFLO4bRoEVBKUDVntIROWhg0DpcB2o1+opTOXWoW9PNvpKV7HrwP57URJMpVkwleWgvyyL/Swy/0y742AqjGcPvr8kiac70nnIhoUm0nsTYClLipkHz5fK5+mzRFvBanD6EagFYLXlGzF6VTactp/mof0Vg26LpndPNkhz94amkkz1bBYfDCnNgLliNZz/+vdwnv2+HFiUpTOwEIumIgPWyoygtayMwWI0N6Q6pYgGFaKtYA2iwlKLfC6ogw8DtcXAFs1izL/w8f2c81nFKbA2PCnrkn8clup1chSmvTSgnHVYxit0AVD6YEUEFWW7M+9qqDgOWosmYP6RrWypfwKzM35Mj92CWQEVI9dh0a1D4O6OaNtOkBRFSUOOrFy05s1JvXyDLtchYlMaBktGlgpqepJHYuaqdTxojXhpYBkjS7QSKJ2wWvMSMHr1PzgtrGd+iJv/KNCeb5DaYkD7lngu8FTkWVvjuSmlDr5zWzzvDbu2C3QrKhDoLpAuA/Va5MHTwKK/Yg2fO+eICoCKeqZ0mWAxKL2wWl82wnvjtwxq6DdnYH3jn2B7awvL/vYWKHK8nQ/WO/lwKHo3Hw5WHpzvBvReHpzv5cGl6N/y4XznRXh+XoTZmSlM373DE2ka3yuHcFcqskTrtjUgUHpgtW42wnOpmUEtx9t4x6fsmJpKM1VQK3UdRbQQKL2wCnJ4u+O+eAijX/4Ko19eia6rVzB69Qq88+naFXg1Grt2BYqG//AWLPVPoq8oRW0flKhaiTRkULphvboG7QU5oMiiNKTi3ppnQBspX4prFtcrA/dZVKs6qWZtlaKNNNUsqTg2/7q3x4FVEMeOg1Kv6KyDaW+OCkrXAdz7VLNEy9a1IFC6YWmbUm2fpbikga+qB79b/9xQz/ksOWQN3t9ZrpolQd0PWAvYyvfaZ1FUhUTWQmdKY9SUipsESVGsI2u5YOk52q38Axj3eORI3HxlLWICi13S+f0sfRNpzRmtsKZ0nhsW9xmWBPUnDEtXzVKOdi8hDYOg/oRhLUfNEl9tWQtOPwL1oMC6D2kovtryEL6GtfA/NhYA9eDACqlZMWwdxFf5BEnREtJQcUiVr9SMqg3pCq6GMYIlbhCoJcDizbQuPysAa84IX+3gC+lAm/5jkgs6pXpu3y9iNfw/Xj1/TynrrO4AAAAASUVORK5CYII=;" vertex="1" parent="1">
          <mxGeometry x="410" y="-231" width="40" height="40" as="geometry" />
        </mxCell>
        <mxCell id="l0EMNmxLnOdooNni136J-366" value="" style="shape=image;verticalLabelPosition=bottom;labelBackgroundColor=#ffffff;verticalAlign=top;aspect=fixed;imageAspect=0;image=data:image/png,iVBORw0KGgoAAAANSUhEUgAAAEoAAABKCAYAAAAc0MJxAAARmUlEQVR4Ae2c+3OU53XHH2lX9zsCbOxQp9iuO0lN3Waw4z8gaab9JW1ju1jCgDAgCQldkNAFSSAwtxiwSSe+Nf3BEzvmOiGpncxkMk46nand2lyM7rfV7mrvEiBphVZaXb6dc559331Xuyu9QovUMN6Z70q8w1jej845z3m+53kQA9WZsFVnwLZfyr4/A/aaoBy16VBVlw6novp0OOvT4TqQpsrdkAZVjWnwNKZKNaXC05SKQdLBoIYOpWLoUIpUcwpuKTqcgtukI8mq7ryWDK2GjyZj+GgSho9JjRxLwsjxoEZPJGH0RCLLezIRqn6ciDFFrydg7PUE3CWdCmr8dALGTxulzhjhO2OEIFBLhlUfhEXgQmEFgN0DrFsMTAPrSBRYAWDzwRpdIiwxUCVBLRmWJrIeRFgS1NewOAXnS0NhJUiKvk7DqDVLWPdlIuawHsA0lKC+hgWvshLS1wirYRDUgwhLR+ugdzUUlsoscPoRqPsBa6VbhxjBYlD3HdZK16wYwFJB/b+ARZ18xA4+0L1TF6907/T1sNTtw/e/KRWWiiwQJEX3NQ2jRlY63HUGuPYJuKulPNUCnv1BDdYIsGoFBmsFhkh1Qd2qF7h1IKjbDQKK7jQKqGoSGDlqjLrdiVazhJlALSesCDXLVZuAwZMbMP7ZTzHRejmy2i5jciG1X8ZkQP72ywjXJfh+XwPaJ44cTVgULAa17LC0kVWfAldtIiZN/4nlevl+X80Rtpi9oTCXZ4FArRQsZ20i3IcfwuzEKGanJzFyaQeGP/hnjPzipVB99BJGAho99xJGz72oynvuRbDOvwivogsvwHvhBYyRLr4A7wc/hO+/T/Hvwt/xSwZFzoNeWBLUSsIiUM0PYWZ8GLP+u3A3psNZLuCqEnCTFqpZVLuUmqWpW1yzqG7VC9ym2lUp4P3wHySotosS1CJcB9Ffng2OqpWCpYK6g1n/OAaPfgNUs9xL9LPYotH4WQRr7OJLAVAXQkAtFFnkZYn+smysKKyaJBlRvmHMTvngIVB1CdLTWiIsrflHkaWAmmy7wCviYsw/CYpgla1MZDlqkuBqfpjrE/26Pa+tlxGluKUMa+nmH4HyBiJKAUWOqQpLm4Yat3T0uHRKhWmvhMSRFQ2Wpn249z4rHY6atFBbuTYNztoUOBuyMPTu93D7ve/D1ZgJV10y28uqU9qQCk9DSqit3JiCwaYU1Vqez1bmxrQuMqiosObYygwqBFa0mrVEWLZ9ibBVGkNg2auNcFQZ4KxNhWOfgKNSwFkdD2eNAa4DqQFLORWumni4ag1BD74xBe66OHjq41VQ5MXPB4uaU++Ff+EaNdl6gZvTiB68NrI0sFRQIbCiRda9dPDVabBVp2H8+gVMmj+H6/i3YK80wFmfDV/7x5g0fwb3kccYmOvQw5js/ZRFK6Gz2gDPsT+D3/IZJto/hvtgFtw18Rg69RT81s8wcfM8BhuTpQJDi2iwwkDVC9xZhAcvTKXZIEiKlBSMWc2qToWtKhXTd2z823Sf+lsM7BVw1GdjZmJUPjv+JOxlAq7mR/jP9OY+vA7OCgHPiSf4GfVZ7qZM3ubcOvsMP5sZGYCnMQmDpAWmO7TlmRtRNOXRC0v0leZg0bB0pqFtfxYGyg2wlgpMuTv5w7lPPg1rieCR2PSInZ+5jnwTtr0Crqa1mJ30slwH18JRLuA5+piEMmrnVCR4Q2e+zc+mPR2yz6oTGDyYNi8sBnVeSb2Lsr8KtA96YDGoPoqqaJF1LzVrXzoG9qXBWpYAe+N63P3iA8xO+/nDTXm64bfdgN/RAszOyGfuDvjtNzDlauM/0xt9z8/cHfLZ7AymnC2Yst/A9GCXfDbth+/azzF47FHeVHNkNSWrwLRpSE2pVwOKUnExroPoK8kBRRXD0qTgkmoWgapMg6VY4O7Vc+qHv1/f+G78gjt5TwOlYRCUtsATqNE5oHTPDY8lQYLSwooWWXoKfGUGLGWJGLt2EVPuLvgp3QJRM/T+y3Adfxru08+q8px5Fu6APG88C88bm6Te3IRBRWc3YfDsJgyRfqLR6W9j+MPNarRRGk57OuG7eV6uhnNaB7JoIoHSC0v0EiRFSmQtFpZSsyoyYClNwKTtRljwOI9vhKVQYKAsHgPlQdkq4qHIXhkHVfvi4FBUFQdHVRyc1dQ+SDnKBIZOy1ql/WFTjuvcOgxSn6Up8GGgaoUc4es0/0TvnhwsCla0mqW0DhUZsB/5Fhwn/gaOYxs5suiDuE49B+tew9LH9wGLhoBRhNGLatbQmb/CrTc34tapp+BpTAlzSskEHD0vI3Ci9SJvpLVnHeaNrKPJkKCiwbqnmpUNc4kR5iKB/kIB/8B1/jBaUEse39encWQpoCiKaDVkx6FGhHbwgYMhBGrkXABUiwS1GFs5CCoarMWmIUVWVS6sVat4qsOrGwCnElExGt87q4IRRashb3eaMrkpjXSKJgxUjYh4iiZaZIme4hxw+hGopcIqz4S5JAnjrZ9getjBQqAtcL7+HCyUejEa31PNogLPrxk/ZkbsmBlxYKLjY7ndmbM3JA8+JKIUUHoGFq8lQ/QUr8KiYZVmwlSSJlWahv7SVJa5LAP9JYmY6P9cfgDNO4MqNcRsfE+gaDWc+6LtDu0N3bSR1pzPIgNQC4oiTD2bpQNWAJROWHtz0FeUjL7iFJirHoG5OijL/nUwV+TAXJ4Ja8MG2JqexEDj4/C7ZMPIoEoMMRuy0oqogJpyd8B97DF4jm/gvSFB4lTU+FmRQGn7LIY2zyhM9BQRJEXzp2FvUQosDU9hvPNTTI8NYebu7RA53/weTEXx6C82wlQoYNol1FbB8ePvwqKAisFEmkG9KSNqyn6dtztOdh8EXA3pAechTXVKyVYe+ShYzCmilPZB28FHLPBHkiG6CZROWD0FAiP/9e8y2mdnMOv3YXZqQpXz7A9gKoyDpeYRWGu/AUvNOvid7fz3CZR5jzFm43s7RZQCytUG2hu6Dz8Md/NatmjmHmajFTEEVHUQ1EKRRU4pg9ILq2dHPMZu/oY/uOf9negvz4W5bgMspPoNMFfkwlScCF/XHzA74cXMhFftzBlUiZEHrfdu/mWoxh81pp4AKOr+lc002TTsZ5H5V2tURQOL4Q9/xP/vEy0XeTO9mDOlortwFQiUHlg9BfEYu/5r/mHOt36Enq2C6xXVLNOeFPSXZsBUnMygZibGGJayhXGclBEVq4k0g3ojUMwJ1IR0HRhUdTw7pZ6j60EaPLYe7sZcjFzeKUG1/pJBRR7fRz6AK7oIlE5Y3VpQ725Gzw4R4jr0s62cBcv+R2GpWQ8q8JOB1LMTqGIZUbGApQVFTgNZNO5D6+A69BA7pbd/9gO1JMjy4FOjmybS7n2Cu3e9sERXYa4EpQNWOKg46TpomtL+shyYihLQt0ug99VgMSdQVORjNb6n/SFtpOnlt19nP8teLtT94a33/g4z47dDdXcIk92/w+CJP4e7LiFiBx+twIuu3bnQBysb3ds1qUcRVUCgpE2j+lmlWbDUPw5r41/AcuAJ+J2yPbCfkKBiNZEmUOQ80IvaAzL/XMceZ1vZSUOLA1lwHaIoWwN3c1BK3aJBq0dpH3Qc7ZagdMKKCEpr0ZRkoq8oCT5TeMPJoIqMMRvfa0ExrcAbefDqwKImCU4ah9Umsmh876pPmdM66BuFic5dueCo0gGra1s8vEoxf2czuimitBZNSRY3pGMtcgszNexQnU3biedhIlAxmkiTVaNEFLmnZCtPjzjga/sYNN3hqKJbFhFuWMxtHfREFoPqJEiK5qlZXdsMoaC2x0W0aPrLV3PrQC7ppL2Vf9cEqq8oIWbjewZ1OlCjnC3swTvqs3howVdSlKsoMYIlQe3KhR5YEUGFbaRXoXdXAnp3CFCDOmmVJh5HVGFCzMb3IaDs13lgQdMdWg313t1ZTGSJzp25oPRjKVEVJQ07txrgvSb7KMfbm9FFERXmOmTD0vQ0rIe/A2vzM/C7umVEHX8eJgIVo7MO5JSSrUyvKU8XXCc3wv36Mzw3DJtIK9G1hDQUHVpQC0RWKKiX0bVNA4qBZaN3dzImrF/xB9C+DTQ/g57tgmERMEpDqln9pOKgaJvDxt8eI+8NaX9oKTWwRUMOqSKylV0nntb+CP6eJjdzJ9IOBdQS0lB07FwNvbDCQcXPsWiy0VOYAu8Xl+B3dbGUztz9s3xYm/8atuPPg9JQ+UqrIevkd0G9FnXwtN1RRK6DqlPPsaVMbil58EPv50lQNMpyd7LGr1+EbV8C7DWa63N0lW6JsETHqwRKD6wcdL6iTT2KKAIVwaLZk4W+4kzus7z/ez7stx7rB3evfsQ1iibSNL6/1/uG89UsDagFYO1ehQ4NKPvbL6NzqwJqDqziLPTuyUTvrmT0V38To59/qLYJfnc3F3heDQOjLL+zE5MDNBQNDkDJdeBnAT+LIpNsZZrw0H+DXtQWjH3xAQ9ZB8qNsNH4nkAt4XJmNFiinSJKjar5Yc0F1UGg5rNoSmkFTELPjjj4nXK6S+lHqyG1DtPDcqROnTxtd2hvODsxBtpQk0VDftZA4waGQn+XXAcaWNiPbuRnlG6WPQLWMiMG9mfF7CZrOKxUiPYdq6EXVscWo7rq2d+SEbWg61CcyWk4fUdCGTiyiVsHsmhmffKQhrXpL9G3U/BGmgkAsNath2m3gO3gU/xoxjfKAwtzkYDjxHckvDs2nkjTVDomN1m1p5Xn3GSVoPTA2pWLMFCvxC9s0XAaZsH75SX4+v6HWwfqs6gpvXvzE97uUETRRppch/GuP8LX9UdYax6FqdjItjJ58OMtn8BalQtziYHnhvSMJtJWHt+ny6FFLO4bRoEVBKUDVntIROWhg0DpcB2o1+opTOXWoW9PNvpKV7HrwP57URJMpVkwleWgvyyL/Swy/0y742AqjGcPvr8kiac70nnIhoUm0nsTYClLipkHz5fK5+mzRFvBanD6EagFYLXlGzF6VTactp/mof0Vg26LpndPNkhz94amkkz1bBYfDCnNgLliNZz/+vdwnv2+HFiUpTOwEIumIgPWyoygtayMwWI0N6Q6pYgGFaKtYA2iwlKLfC6ogw8DtcXAFs1izL/w8f2c81nFKbA2PCnrkn8clup1chSmvTSgnHVYxit0AVD6YEUEFWW7M+9qqDgOWosmYP6RrWypfwKzM35Mj92CWQEVI9dh0a1D4O6OaNtOkBRFSUOOrFy05s1JvXyDLtchYlMaBktGlgpqepJHYuaqdTxojXhpYBkjS7QSKJ2wWvMSMHr1PzgtrGd+iJv/KNCeb5DaYkD7lngu8FTkWVvjuSmlDr5zWzzvDbu2C3QrKhDoLpAuA/Va5MHTwKK/Yg2fO+eICoCKeqZ0mWAxKL2wWl82wnvjtwxq6DdnYH3jn2B7awvL/vYWKHK8nQ/WO/lwKHo3Hw5WHpzvBvReHpzv5cGl6N/y4XznRXh+XoTZmSlM373DE2ka3yuHcFcqskTrtjUgUHpgtW42wnOpmUEtx9t4x6fsmJpKM1VQK3UdRbQQKL2wCnJ4u+O+eAijX/4Ko19eia6rVzB69Qq88+naFXg1Grt2BYqG//AWLPVPoq8oRW0flKhaiTRkULphvboG7QU5oMiiNKTi3ppnQBspX4prFtcrA/dZVKs6qWZtlaKNNNUsqTg2/7q3x4FVEMeOg1Kv6KyDaW+OCkrXAdz7VLNEy9a1IFC6YWmbUm2fpbikga+qB79b/9xQz/ksOWQN3t9ZrpolQd0PWAvYyvfaZ1FUhUTWQmdKY9SUipsESVGsI2u5YOk52q38Axj3eORI3HxlLWICi13S+f0sfRNpzRmtsKZ0nhsW9xmWBPUnDEtXzVKOdi8hDYOg/oRhLUfNEl9tWQtOPwL1oMC6D2kovtryEL6GtfA/NhYA9eDACqlZMWwdxFf5BEnREtJQcUiVr9SMqg3pCq6GMYIlbhCoJcDizbQuPysAa84IX+3gC+lAm/5jkgs6pXpu3y9iNfw/Xj1/TynrrO4AAAAASUVORK5CYII=;" vertex="1" parent="1">
          <mxGeometry x="390" y="-376.1" width="40" height="40" as="geometry" />
        </mxCell>
        <mxCell id="l0EMNmxLnOdooNni136J-8" value="Availability Zone" style="fillColor=none;strokeColor=#147EBA;dashed=1;verticalAlign=top;fontStyle=0;fontColor=#147EBA;" vertex="1" parent="1">
          <mxGeometry x="130" y="-392" width="390" height="101" as="geometry" />
        </mxCell>
        <mxCell id="l0EMNmxLnOdooNni136J-9" value="Availability Zone" style="fillColor=none;strokeColor=#147EBA;dashed=1;verticalAlign=top;fontStyle=0;fontColor=#147EBA;" vertex="1" parent="1">
          <mxGeometry x="130" y="-241" width="390" height="91" as="geometry" />
        </mxCell>
        <mxCell id="l0EMNmxLnOdooNni136J-389" value="Athena" style="shape=image;verticalLabelPosition=bottom;labelBackgroundColor=#ffffff;verticalAlign=top;aspect=fixed;imageAspect=0;image=data:image/png,iVBORw0KGgoAAAANSUhEUgAAAEsAAABLCAYAAAA4TnrqAAANG0lEQVR4Ae2ch1cU1x7H77+UHtO7PSq2BLGgok+NsaFoqCoICBawi42I+iJWTiLYUEHE2JBed5e+oDQFJXn6zu+d7x3uMDs7Ozs7u4vv5Ow957qoHGQ+/sr3V1gW8V05RYyuoPX8VtL6MZW0gd8q+mUsbjW/kWOrKXJcDUXxW0tR42spmt86iplQL9/YCQ0UO7GB4iZapPu9hTZ+b+V30yQbibt5UiNtntxI8ZObpDuliRKmNPO7JaiFxE0MaqXEqa2UNLVNutPaKHlaOyVPs9PW6eJ2UMr0DkqZ0Ump8n1C22biPqXtuD/gdtEO3B+7aad8eygtGLeX0nFn4fbRLtyQZ7Rbvs+JcVgBYIaAsXUAJW7AwnQtjK37rowCwIRb6rskW/ctYAWAGYlhbC1gBYAZCvps7belFABmLEuy8G8AKwDMiKxg4d88pgAwYzpsCFYAmBHhytZwywKsADB3wNiar0soAMxYacRWA9YbBJY400r7fm6hfyd00IWdTygvo4u/4veZkXZKD2vh9eT/Qy3JVn/9iEYSWMKMejq8voWKL/aS3fIXDQ78l9wdfE7N3Rd061QfpcxqfmPFN1v9FWD5H9jhiGa6c6HHCQ5AAFp18QC/JdeeU/HFPqq+O0B269+aHAEuJ71rxLsVbBVg+RFYyrwGKjrf7QDJWvaS8k900Z7lTbRlpsVteydtYTNdPtRNjeWDDvA6rH9Txio7xY9Qe4et+uoh+QPYxqm1DpBgQdayF7TnJxtFjTPfD9sa3MTB9Xa+ksGVXh+g1JAWv/fD2MovH5CvgcVNraHKO8/lh3l4tY92LbORrxuIlw/1yP9GX+crylht9yswDsuXwNKWNNBg/2v+EIMDr+n4xha/dlxTgpsd3PN04hO/AZNh+QLYziX1MihL6QtKnls3Yi1qZEpxrhzu8QswtuLL+wRQ4pp1SSWownNdFBdUTetHG+/px8+oJ8iKbaE22j7f5jboo68v+vl4hQ6DVYnjDwtjK764T94Ci51SST0dUpp/cKWXYoOq3A5BNk2rpaxNLVR0oYfaLX+JZ3R4RRCHpDi/o9PwEOTx9X75a/g6hrGfv7hH3gCLmVJBFUXP+DfY1jAogdLp6SNLXst66iAlRKasutPPtdijq8/IVvaS6y/5yYm4/tq5oMnt1Ag6DAdf15dZksPyBtiVzA7+jb3sf02wML0Wdfa2NkLQlx7kNYeGLLl5Wq3LMRt02KWDT0kpFVAS8VGbzpgNGgwH2sxXOoz9/Pk9AiwzwKInlxMg4fyW0uyy4xobVE1wTxzA+n2/nWBhns4lT8a3y9Cg7pN+sFGcC2DIkrAsnONRnT4BxpZ//ieZBVZwVgqoFUV9LhuIiF/CTdsbBil5Tp3Xg1yUQziwNj1gF9O6+OfByvgw10ulz2GZBXYquYnaGl7S9sW1mv2w2KBKGZSldIBgYb6afOcefMpBwHp4HHNhYcJ9kR29BcZ++uwuAZZZYHrtnQeXJYXtEPg1Brlb59bTrmVWrvIzIproUEQTpYRa3K4KCGC28kGXMeximgQV0LxdFeCw/AHsWKyN/89DUiTOrnEY5MLCrh5/QhCuIuDzT9b4RWTI1FCr5m4FpAWOXtAX1pW+qNUrYDIsXwJD4Id74vyW0uIwl8zZ1y6rfPw9SqOejv9Qu2WQ15PW0heEiz9Tn6rifidgyJaAIbsjFlJULnk3R5I2qCW9WUZhyz4rJoAS1xcueXFvG3/Ohsf9DmO2nUvq5OdHDMvZZ6fkObW6Sl8IV5HZ0NpRb++c29HJv+6Nkz2SO6qAoVOBA/3lTceVLfu0mMwA272qlvKOtVPeMbt0M+2Ul2mny5l26h5S80djbA5ZMjO2UYaFD5AlAezgWhulLbHwWnLj1BpKX4r4ZeUKHwIWVicOBKvWupOwLlfrTgI2wJkFxpZ+eofMAMs91i6+f81X6C+4o3JqtCWkRvNzPflDdFu1+mFoU+OcirdrlkZIAjgHVraZ7ulzWGaAwbIADFdpYXA9nPLbfU5TI5RG4mTGNfJ4hqIbLomMiTiFGAZLEjEMloUMiTiGc2a7XTNLQrDi3DjRTVoLdSJuYQgiCnBPLYwt/eQOAZYZYKJToWzvwC1x4JJaskIo/sQQZEjH7Z0Da22UndqqGcMELMQwrQ3EhBkN/N9FdsQmohoY4hn/vjK6ZFiiW2E06LMlnxSRL4HBonCOxFg0p0bC8vaFWxyyZNLsWjlLojRSK32RHdHTd9VxRVzCFWubSmCQFjg3T/aaXtnksDwBlr6imnKPtg3fY22yO8Ilu+1SAXskGrCcp0aiRELGVG7voCxSn9vnuiltqYUQ9MWBS2LPVQtYb6ckNwQspYVhJolTnNNneseV/evj2wRYRoFdOtoqvm/d1z2r6jSnRqJLgVf19g6AZcY1yUW3+AeEVeH3ELHoVGgBE7CixzsvBedmSEoedaVahxmNYRyWJ8DSVlQTgDlYFyxtyMKEZZ1MbtScGkFO4OgV32LHFbJCCUrAQ/AHLDUwIQ/UOgwWJkojWJi79o6rGCbD8gSYnnC9eUYSiOd3N2tOjfaurufPDIWvlBVKl1TvuIr2joB1+3y3U3sHtSQOuq5aOqzkmqTiTyXYNYWrsC69oM8Wf1xIACWuJy6pVXwfipJglN3u5X19dU8/clIZfyhkRQmW++0dASs7tc1lewdZEge1pJYOEzXk0Q1tmjpMq6evtjC2+KNCMgMsaX4Zd0e1S97MHu6cCmmhBibkQ5QsWvWBiX7Yr3FNmrIC7oipN871rC5NHSaKaQxDlFnSE5dkiz4qIDPAjm+RzJ5/hy5+ORzVoDk1EkX2tkU1TsJVHfThkmIYksTrSPw0iOPUCMMPEdt2Y5ir+kmQPculMktoMGWW5LBUtaQrl+SwzADjlnWklS7hHpWuCPplhZIAbK1/IcNSClehtaDJ4oMrXQJDT39/uPSfAmXv6kdnft8vWTOEqzrowyVRfOPkn+iWNZgZYGzRqAICLDPARKdC3d6JmPCQuu3SeAsxTLijAHY42tEqYWnlRX08QyJL4vewJuGueFDELZEllT9rhFUB0RNDaaSVJXuH2j3beE/MWVa4Kr7VFsbCRt0ifwDLSrLy/0088PqJj5yAQYfdy5PiDP9EF7/wVs7edkKLWp0l0aKGcFWejIhGB2BZmyVd6CpLemJhLGzUTfIXMLghDl71BrnxwRV0JMZK6OlDh6GnnzCriqInVzgJVyUw6DAcuKhyEUUJTNSUZ3kBbn57B1bGFn4IWP4BFjF+2B3rS57rAtMqjfR0mOi4ApTIkkJiACCACTkBYOqgryVc3WVJDstbYOFj71P4uPtyt1UZw+JmlsqxBxa28cdSJ5f0ZD8MQb/wnFS6AMrplBaHVQElMJEhUU9q1ZKeAmMLP7xBgGUWWPT0h/S4oJte9r9yCSx5QQV3Re4zRLw0Ugd9I8DQqUDfCwexEP19raCvBAb31Ar6WsIV8UsvhrEFHJZ3wOpKpFICr3otaiEp8LCoIdGlSAmr4pamFq5iKRjCFXFMyA0BHEJV3Q9TZkklMGUM88bC2IIP8slbYGvG3KOuIalQWtCtCywjql6WFeLBYSUoj+7ldfF+/q0zT3inFRJCKR/wccHZYReEO44kMDYfsHwAbEtoqXh2yj9t1wWGvQpAQ2mkhCF/AcUH+HtY1YW9bXJPf9+aYZ02ksA4LF8B27F8uMfuziWVyyhbwyoJpdHJJBt3zfN7WgjCNTWsmiInlWp2XN8EMDb/g+sEWL4CBgtDsMeBik+cX6qZJc0uoyh/dMYsMIzZzAR9Fvo+YPkWGGJYS700Vge0/Gw7xcwokaHp9cOMZkmM2dBtVbqxUZeEpPB03QlZkoW+f438AQxDkPzTjrPFG9l2Wjukx8wCQz8Mg1wlJGWmdAdM1l7rUBZ59r4VbB6H5T9gcMviS8OLsbC00sIe3q2InfnY0PZOalgVIY4BihqSWHcy6pKilsRC3YYxnr3RB5v33jXyNzDMJLWg8cA2VDtCg/2Z+5RnSGRJSAmUSKK+FJ+LV0BDLameSxoBVlkk/TADVjY9fWcUNu+9qzRSwMQg98AvtQSXVFqJEob6Y3we4GEIsjm4QnNqJFrUesAwOUItiYPdCk/fSobN5bBGHphQ+ohhaCRmRNZRVqKFzu5qorO7m7gO27WyhiArNkwsketJV0rfVZZEeYQ4BkUvQGFlwMwGIpv77hV608BEE9Fs0BelkRLY9sV1cjtaaakAFWtgTx/SQl0asTmA9Q8FhncVwAbilV87KWdvO2E/TNkPU9aSRlySw/qnA9Magmh1K9wBY3PevUyAFQDmPDVS6zA2+x3ACgAz4pJs9jt5FAA29B5iGmvnSuHKQjisADAjMYyFvJ1HAWCOG4iuXJKFvJ1LAWDG3nCNzeKwAsCMvOEam/XWJQoAM/b+YSwYsALAdCffIoZxWAFg+vthPFOOriAW/NYfBFgBYO6B/Q97CxPAbQRbWgAAAABJRU5ErkJggg==;" vertex="1" parent="1">
          <mxGeometry x="950" y="-227.7" width="48.63" height="48.63" as="geometry" />
        </mxCell>
        <mxCell id="l0EMNmxLnOdooNni136J-390" value="QuickSight&#xa;" style="shape=image;verticalLabelPosition=bottom;labelBackgroundColor=#ffffff;verticalAlign=top;aspect=fixed;imageAspect=0;image=data:image/png,iVBORw0KGgoAAAANSUhEUgAAAEsAAABKCAYAAADzEqlPAAAMxklEQVR4Ae3cB1dVxxYA4PlLqcb0WGLvXdBo7CUoSBR7QQQEC3ZfVETFmrz3li4VUUEBu0HAS+8dERAE4UV9a7+199yZM+fcduZq8iTes9bmRtYKysc+++zZMxe24vvHsGKQAyIo8iFicD6spCiAVUMwCilWDymE1UOLYA1FMawZVgxrKUpg3fBSGeuHl8H6EWWwYUQ5j5HlsHFkBcWmUZUgInJUFUSOroLNo6t5jKmGqDE1FFvG1oKI6LF1ED2uDmLG1fMYXw+x4xsgdnwjbJ0gogniJjRB3MQnEC+jGbZNwngK2zEmY7TADowprbBTRhskTMV4BrswgjDaYTdGcAfskfEcGGEFwDyDBbVLMLYcoUQEMozQXDLMCcaWf58H7w9Ys+stObnFzS3Z5npLBrUDWz4Qsf6uYE1uapj/YOzngbnw9wFrcFP03x4YYQXAnE9JH7ckCx+QC4gVAPMNxsIH5EAAzNKHecgwJ1YAzKVxdQPGlvV/BDy7AmC+wAgrACaWRt7bChbW/xEgVgDMNxgL658NvsB+tjSuMdOK4erxZsi/9ZzH7eeQb4pOyL/dCQXWuNMJBc4ovNMFHuNuFxTdfeExiu92A8W9bih2Gz1QfK8HSkTc74ESJRJmPIGtuPCmxbf9PoyF9kMsM9gyekKaa5gKdn5/A/TmK+tsp7N51QNjof1+B12wq8eekJXjVgckbaiGYxQ1cGxjDRynqIUTmywRWQfJFPWQHFkPJyka4ORmI05tboRTUY1wOqrJJc5seQIizm5phrPR5jgX/RQwfo1pMUdsC/wW20qRl/6C/t1ZZwQWjni8g9GIxznecWLpgQksfO1N87CT61qg2vEHXE/soJmY6zxMnYkZNUyAsaXfPQSeXfbBUp2ZJbF67TxMHSIaGWYMEc1ghKULlnqsidIZsd7l8U6Uc+J6Ym0zPKl8CT1d/6XCn3nmOcTIiat9MLbkuweAWDpgAgsz7F0a70S6GVGnHn7m9lmEt6MuGFvy7QPQBUtN4pmFaOpT8q+euOJs3zrTl3N950wfswmvzNMdsH1aPRV/oXdkWbMWGMfSBDNj4cTirxkgyo0QZRPEG9gvYY3k0v7klWkjJC+NPxXpdsSNEJu3JAv59j5QdmmAXRGZlYSZJUY8bx9s7TBj50jsGumAxQfVEhZml7pzVO34D33+6pF2Y+fIBhhh6YJdSeI/Mcwwdbyjk2ErB7tus/GtNvM225uAxQXVUFFHmaaKl4D16/6F5xJw3/xGwpJbbT7A2E/f3APE0gETWJhh1nmYJzC+N2nel3QHtmdxJTWt8TMr5L6kP2BxU2touUQylg+YaRd2t9LepNiXtANGWLpgKc7MQjSPSyOqY+ZtNm9gm8YX01pS/b4q8rr9Ats6tVpCIcw/Qhsg9XAb5KZ1QcbpDjgU1miqYXbBJJYOmAkLJxae1pIaYLjwxgu/uYo8XoDxz7pgsVOqzFBLG2jnWzwl44NrYVtwnamG4e63HTC2+Ou7gFAi7NySKUd5zUI0Md55E7BdCyskVNyMMsCjApETSuhz+MHuLRkzpdIEdXBpPbUW4qjAlcNt9MPION0usbDwW48KeLolCcsF7BvvNSzlKJ86IJo63vEXDBffeJXnvjCdrRAZhgtv9WyFuxoWPbmCRj74dTA7Dy6pM52vQLCbp9rp78k41Q6blbMVdsHYoq/vAGLpgJmwaMRjDBD9AYv9wcgizDI8jII1DL9pvA6tqIE1Qz0/JaMnmaEOLKmVh1HUPkxg4SsdSNEEY4u+ugO6YJdlZjXw8c4bgK0fWwgNZT2EIj5ghgmoitwXdHrHU1uxZVK5KaP2h9S6nN4RYDdO8aUPYokappNhHEsTzIzlnFb4AYYT17aml2SEYA9Tzes4hMIME8edrGBRE8to8opfAHERCptWT42rFUsXjC386jZQdmmAXT5aT98gopnGOxpg0QT1B32d+rIeiJleDBGD8mlcjZ/M+lcruOvDBNjmiaUmqH0hNXRGzFunf+Mk/2Egmij6OmBs4Ze3QRfscqKB5TKtsAG2Y34JtDUpUNOK6UAd9mEX9vMn7bXjzYTlDgyflDjfxwszau9P1eCu6FszTMXCBbguGFvw5S3QBTOw6t2Pd7yAWaHWjy0wnQ8778TCDRFxAlEFi1SaVw5VZbtxlVgnn/mcVqhrSdGHEZYumMRKrPc83nEDtn0e1iiRUd2wbky+8wSP0emrWOqRTQTD+qU2r7g0omObypFNbxmWfrKNshHRRNHXyTCJpQNmwvI2rVDAts0tglYTlMM5scgzgYmdI8wsOufqPOO6cRxCGYvgPYsqladkkc8+DG9JK5YuGJv/RRYglAg7t+SlxDr6CSGaz/FOv2yIn1sE3Z2v6f+pL+uGtaMfu04rnDMxFUscDN4wrkiBeg27F/FezPyU9A0msPAVoUT4GiCKW5KwdMFULF/Tivg5hRKqLKcT1ozKU9aSOeZ52MA8kFi4czTIAdiH4WYuXj1drwGbVl7D+IhHB0zF2mBzgKj2YWzeF5mAWDpgAgtfQ7wsjeLnFJigVo/KdbOWNIOd38eXUrgZgsXfIaA6X0PCwnJL0dcDS0/mNQvR6Oi5Jhib93km6IJdOsJvQ8SiaYUbsDgFqjSnE1aNzIUwqmHZHsEy//lU4mImYf9FGdX5GnYuKDPVMMwu3QxLT26lr4dY1rbCzi3JsTTBrFhWsK2z8+U3fS+lBVaNzHE2r9kewTJ+a6ZvBD+I+iY+sXNBqezD1KKvCyaxkjmWLhib+3kGUHZpgF08wmfbiCZGOwJs11KjRt1LeQorRzxy3WazZNia0Y8l0P7wcqpj+CouXBaJnW9R9K1thXg3iLcaliYyK7kVvHX6np6SbG7fDNAFU7HUaUXCEgPqxrkmiBie7aMP47fkvrBScsEHAI6pxSYInqXA60xcralx9RdMxcK30OiCsTl9b4IuWPTMXMAIH/pAjnesUCuG/26rrcATPPiExAtvP3EKcd0Yh2xgk9ZX0Wauui/pD1hacgv9PYgm3m+kA0ZYumDLhtyHg6uK4dddlbAzJB+ObymXt1H6uUZYPuyh16ek6+I7G7D/wgsbV6xf4s/Y8Rudft4bZZiK5a3T99RWsDl9bwBi2QWLmpkDtSVd9I1ZPwgoUce8tRVWMGwrBJD4ugiFa0l+W4pO33+wtBMis1po4e0VbITxbjZRw9jszxDLHljY4HvQ0sg3KPE17axxqK3kUYe8JQWWKPq+Glc6H+Ys+onrKuDfe+sgcV2ls9M3ahhtszk7fX9uyesC6wRi4VsAS7xPKyxgbPZn6WAXbH9EAf3QEQrhcGmEt6S41Br2JmCumyBvB0zFwjG1LhibRVj2wJI281l5TkaraS1ZW8pvS6xfuiNq9/Mwz42r9ZaUR54GOUxvMjWPd3inf/3EU/q5Ipp4k6kOGJvVJx3sgm1bLJ5ar2DN+IcEdmBlIf0DujtfQfiQB3zq6scmiLWG4VPSXYYZxwWMGmYX7JqCxSeu+M5c+xnGZvVJAx0wtbir/431S3fi6vW4k7OGya02uZGrHgzWAzOwnprHOzbB2I+EpQd2+yI/gIsphRl1LqFC1rA3BTNuS2Np9LbArh3ntyGiuXT6NsDYj32ugz9guPhePe4BhA66K+uXrwGi2u2LtkI+KZUTiH8WmIqFe5O6YGzmp4ilB7YvogAuHKqGyBnZXsc7MsuUGvb/BMNNELwQzeNa0kuGEZYuGELhha/qeEediYmJ67sEhqNqgeV1vOMBjM389Boglg6YCcsyrXiXwQwsdZvNwwDRDRib8QliuYLxOmZuK3jzehPOH6qSmSUnFsrE9V0FE1j46q4P81XD2IxPrgKCzdAAE1i3LzZB/KJcim2L8gD7sO2LH8vY8ZMDZIQ4YEeIgxbe2LwmhBQYsaQQcGqxC2Mpj91Li2B3aBHsCS2WsTe0BGSElcDesFLA8c6+ZWWwX0Y54CwM44CMCjgYXiGPByAW7n7rgrEfCEsP7PwvPLMovXrhB46Fv1LGPhgeeSIsXbCQAVlw9XQtPLrZ4j4yWgCXRN4iN6MVcjMx2lwiL7MNjHgGeVnmeJz1DB5ntbvGrXZwyOgAHB66C5zny3mYBzBqLYYWmX7/Dpv+cSogli4Y1i9Rw9TxTm+qYSoYH1ObN0GsYIQVAOO3pC8wNv3jK4BYATDfYGzaR4gVALNzSxJWAIz/wjVfYCz4oxRArACYbzAW/GEKBMCUX4llmbiqRZ8Ff3gZAmCWd7R5AGNBhPVngvGdI7GR25v7MMLyH4wvwMU8TA4RlU0Qdeeot4OxqR9cAsSyBebs9s2L7/cHjLA8g/EnpakPe4/B2NQPLgJiEZgzy8xFPwAmjjv9DzEzvLjPsga2AAAAAElFTkSuQmCC;" vertex="1" parent="1">
          <mxGeometry x="950" y="-127.98" width="48.63" height="47.98" as="geometry" />
        </mxCell>
        <mxCell id="l0EMNmxLnOdooNni136J-66" value="" style="rounded=1;arcSize=10;dashed=1;fillColor=none;gradientColor=none;dashPattern=8 3 1 3;strokeWidth=2;" vertex="1" parent="1">
          <mxGeometry x="670" y="-390" width="130" height="230" as="geometry" />
        </mxCell>
        <mxCell id="l0EMNmxLnOdooNni136J-393" value="" style="shape=image;verticalLabelPosition=bottom;labelBackgroundColor=#ffffff;verticalAlign=top;aspect=fixed;imageAspect=0;image=data:image/png,iVBORw0KGgoAAAANSUhEUgAAADEAAAAxCAYAAABznEEcAAADH0lEQVRoBe2a/UtTURzG/cPK5Vyr38qCIkgrpFfTUMuXDRJMKVGjfqhQIyII06AsMcLIIHShznnVDefbpnlnLtSRoVOaPfHcuOacs915dS/cL5zdvZzvOZ/nPPfcl7ObgiSIFGpwdPvQ1uBFS91UwhTykpshiWi+74bZ6EGRwQWT0RP3hZzkJfe6CDpQbHCh3uxER7Mn7gs5yUvuIBFm4wy6WmelL+P9hZzkDRHB3YguJEKQk7yaiFi7pTkRawfk/jUn5JGI9VZzItYOyP1rTsgjEeut6k48LhtBVbYTFWcE3Mrqj7iwPvOYrzRUF1F2yoZC/QjydP2KC/OYrzRUF8HRpwC7ZQGzk8sRF9ZnHvOVxq6JmP+2ooiF9eNOBF1QEqyviVDzfqLyrIA8nSDNBeVOCGC+0lBlTnyfXkFfxzxeP5xEweEe5OzvjkoE8woO9eDVgyn0fpiDd8ofkZ6oRKwsB+D44kPTXRcqsgaQs78HxQY3TAdF5OqsuLSvMyoRzGM+22F7V1N7UX5aQGONC0MWH/xLgS1FbSviY5MYlDQmLOJFrRumjD5c149KneWnOVByxIpHJcN4/0yE6ZhV6jyaiU1o83Er2p+LqDM5UZphRX6aXeqH/ZUetaGx2o1R248gLnKGuceegaVtFmuB3+hq9aL6ouNvg0YP8nQ23M4eQNsTERODi1j1r603Wnlup3Pi33li1R+Ay/4T756KqDo/iNzUPgmWA1d9wYHOt14Efq1JnKatVjtupI/h3jU7yjNtKDZMoih9AjdPCHhT/xXTo0vr0JvfyCe7aJz43yFWHF9Ga8M0yk4KEg+5yjP7JU7yhqx25B8YQqF+GIV6J2ouO9DbPhc04pvh5c+7KULug85z4tdecUh85CRviIii9HHcybZjqGtBzo1oK4vYqzO23eKTOMkbIoIrap9bZiIC31hJFrGX107kDLsC+OmlchGxuIolZ5ijU3TLmElxP7Fx19qr99ue7PhjIoQmIl5c0pzQnFBxBLTdScXB3FFTmhM7Gj4Vk8M6kRT/Yyf8EwVJ8WxHUjxlo+Kci0lTfwC/j2Y8h+JvAAAAAABJRU5ErkJggg==;" vertex="1" parent="1">
          <mxGeometry x="-60" y="-419.5" width="49" height="49" as="geometry" />
        </mxCell>
        <mxCell id="l0EMNmxLnOdooNni136J-382" value="&amp;nbsp;WAF" style="outlineConnect=0;fontColor=#232F3E;gradientColor=#F54749;gradientDirection=north;fillColor=#C7131F;strokeColor=#ffffff;dashed=0;verticalLabelPosition=bottom;verticalAlign=top;align=center;html=1;fontSize=12;fontStyle=0;aspect=fixed;shape=mxgraph.aws4.resourceIcon;resIcon=mxgraph.aws4.waf;" vertex="1" parent="1">
          <mxGeometry x="-60" y="-354.08" width="43.34" height="43.34" as="geometry" />
        </mxCell>
        <mxCell id="l0EMNmxLnOdooNni136J-394" value="Edge Location" style="text;html=1;strokeColor=none;fillColor=none;align=center;verticalAlign=middle;whiteSpace=wrap;rounded=0;" vertex="1" parent="1">
          <mxGeometry x="-55.49999999999999" y="-441.77" width="40" height="21.77" as="geometry" />
        </mxCell>
      </root>
    </mxGraphModel>
  </diagram>
</mxfile>
